<svg xmlns="http://www.w3.org/2000/svg" width="160" height="35.65556" viewBox="0 0 160 35.65556">
  <title>logo-brandymint</title>
  <g id="Layer_2" data-name="Layer 2">
    <g id="Layer_1-2" data-name="Layer 1">
      <path id="logo-brandymint" d="M12.38713,15.87581A6.50375,6.50375,0,0,0,10.093,14.156a7.4783,7.4783,0,0,0-3.10429-.61181,7.9664,7.9664,0,0,0-4.08657,1.07534V6.05029L0,6.54165V29.42091c.66573.18524,1.51931.36743,2.559.55267a20.9674,20.9674,0,0,0,3.58782.27873,9.21626,9.21626,0,0,0,3.37-.58615,7.20219,7.20219,0,0,0,2.55726-1.65977,7.2571,7.2571,0,0,0,1.63672-2.62422,9.92249,9.92249,0,0,0,.57789-3.4852,11.17573,11.17573,0,0,0-.484-3.37693A7.56666,7.56666,0,0,0,12.38713,15.87581ZM9.859,26.2127a4.85519,4.85519,0,0,1-3.743,1.51887,15.27752,15.27752,0,0,1-1.98154-.107A9.10115,9.10115,0,0,1,2.90252,27.392V17.29076a6.00508,6.00508,0,0,1,1.52931-.8301,5.845,5.845,0,0,1,2.18331-.39961,4.7497,4.7497,0,0,1,2.13634.44483,3.92516,3.92516,0,0,1,1.451,1.22885,5.14848,5.14848,0,0,1,.81053,1.85978,10.13252,10.13252,0,0,1,.2509,2.30158A6.1357,6.1357,0,0,1,9.859,26.2127ZM25.08691,13.74208c-.31265-.05044-.62834-.09-.951-.12-.32309-.03261-.60834-.0474-.85793-.0474a16.73923,16.73923,0,0,0-3.43215.32222,20.14369,20.14369,0,0,0-2.55813.69008V29.88227H20.1898v-13.422c.16654-.03957.51354-.117,1.044-.22916a7.68416,7.68416,0,0,1,1.60715-.17046,10.02967,10.02967,0,0,1,2.042.17046,10.20987,10.20987,0,0,1,1.13927.2896l.50093-2.48421a4.62208,4.62208,0,0,0-.57833-.14C25.68568,13.84644,25.40043,13.79469,25.08691,13.74208ZM38.77246,15.2166a4.84183,4.84183,0,0,0-1.935-1.25972,8.57332,8.57332,0,0,0-2.94818-.44483,16.52714,16.52714,0,0,0-2.83947.23,9.1734,9.1734,0,0,0-1.87153.47658l.34309,2.36767a8.73865,8.73865,0,0,1,1.60715-.41657,13.79225,13.79225,0,0,1,2.5116-.19916,4.40164,4.40164,0,0,1,1.825.32048,2.8415,2.8415,0,0,1,1.10622.85879,3.19247,3.19247,0,0,1,.56267,1.22972,6.321,6.321,0,0,1,.15655,1.398v.79749q-.12654-.03066-.43658-.09088c-.20872-.03914-.4531-.08828-.73487-.14-.2796-.0487-.57746-.08914-.8875-.11784a8.60507,8.60507,0,0,0-.90532-.0474,12.07922,12.07922,0,0,0-2.62075.27612,6.96278,6.96278,0,0,0-2.18418.86054,4.31131,4.31131,0,0,0-1.48061,1.53453,4.49637,4.49637,0,0,0-.54571,2.27375,5.47472,5.47472,0,0,0,.467,2.36463,4.02153,4.02153,0,0,0,1.311,1.58106,5.64408,5.64408,0,0,0,1.99546.87315,10.72842,10.72842,0,0,0,2.52726.27916q.966,0,1.94979-.0787.98295-.07436,1.825-.16742c.56181-.06261,1.06578-.12653,1.5128-.20045.44787-.07219.79487-.12654,1.0449-.16742v-9.9838a9.23342,9.23342,0,0,0-.31177-2.4742A4.784,4.784,0,0,0,38.77246,15.2166ZM37.29054,27.60678a7.76045,7.76045,0,0,1-1.32668.16958q-.79705.045-1.82543.0461a5.24916,5.24916,0,0,1-2.71424-.59877,2.27639,2.27639,0,0,1-.99751-2.1333,2.08419,2.08419,0,0,1,.40527-1.33712,2.90281,2.90281,0,0,1,1.014-.79792,4.3851,4.3851,0,0,1,1.34233-.38135,11.01644,11.01644,0,0,1,1.38843-.09523,11.39261,11.39261,0,0,1,1.69933.11,3.66892,3.66892,0,0,1,1.01447.26ZM55.34531,15.61621a5.039,5.039,0,0,0-2.042-1.50409,8.36623,8.36623,0,0,0-3.21473-.53745,23.26266,23.26266,0,0,0-3.80481.277q-1.65476.27786-2.65249.52006V29.88183h2.90209V16.40022q.15459-.02936.51484-.09479.35679-.05936.8101-.10523c.30134-.03.61833-.057.95185-.07653.33309-.02044.6553-.03262.96708-.03262a5.54372,5.54372,0,0,1,1.93414.29439,2.6364,2.6364,0,0,1,1.248.93619,4.23865,4.23865,0,0,1,.67138,1.688,13.4246,13.4246,0,0,1,.20176,2.51987v8.35274h2.90122V20.9138a13.273,13.273,0,0,0-.31091-2.97818A5.80006,5.80006,0,0,0,55.34531,15.61621ZM71.79814,14.62a7.80669,7.80669,0,0,0-1.608-.70835,7.68211,7.68211,0,0,0-2.47943-.367,7.4756,7.4756,0,0,0-3.10429.61181,6.47838,6.47838,0,0,0-2.29288,1.71978,7.57272,7.57272,0,0,0-1.4206,2.64422,11.2014,11.2014,0,0,0-.484,3.37693,9.9232,9.9232,0,0,0,.57789,3.48563,7.0794,7.0794,0,0,0,4.19659,4.28443,9.21233,9.21233,0,0,0,3.37.58572,20.9738,20.9738,0,0,0,3.58651-.27916c1.03969-.18524,1.8924-.36744,2.55813-.55268V6.05029l-2.90034.49136L71.79814,14.62Zm0,12.772a9.1,9.1,0,0,1-1.23319.23263,15.263,15.263,0,0,1-1.98066.107,4.85839,4.85839,0,0,1-3.74393-1.51887,6.13811,6.13811,0,0,1-1.40364-4.3166,10.18344,10.18344,0,0,1,.25-2.30158,5.15671,5.15671,0,0,1,.811-1.85979,3.95275,3.95275,0,0,1,1.451-1.22884,4.74374,4.74374,0,0,1,2.13591-.44484,5.84271,5.84271,0,0,1,2.18287.39961,6.03535,6.03535,0,0,1,1.53105.8301L71.79814,27.392ZM87.567,20.42461q-.87531,3.15951-2.05981,6.386-.74748-1.5628-1.43409-3.25735-.68811-1.68541-1.27971-3.37562-.59094-1.69194-1.07709-3.28692-.48267-1.5954-.82575-2.97861H77.76972A67.03169,67.03169,0,0,0,80.594,22.27962q1.69847,4.13136,3.66566,7.81746a6.50089,6.50089,0,0,1-1.74673,2.44159,4.861,4.861,0,0,1-3.75958.61181,5.368,5.368,0,0,1-.88923-.2896l-.5305,2.30463a3.86976,3.86976,0,0,0,.42135.15262,6.37329,6.37329,0,0,0,.65443.16742c.23959.05261.48484.09522.734.12479a5.99925,5.99925,0,0,0,.717.04522,8.004,8.004,0,0,0,2.29245-.30481,5.4934,5.4934,0,0,0,1.82587-.9549,7.22814,7.22814,0,0,0,1.481-1.6415,16.47665,16.47665,0,0,0,1.29494-2.38246q1.5915-3.62,2.9634-7.7818,1.37364-4.16071,2.49551-8.67712H89.2198Q88.4397,17.25836,87.567,20.42461Zm29.29785-5.00842a4.87423,4.87423,0,0,0-2.01285-1.51975,8.33829,8.33829,0,0,0-3.22908-.537,8.77516,8.77516,0,0,0-4.67925,1.5041,6.631,6.631,0,0,0-1.82544-1.0597,7.83212,7.83212,0,0,0-2.88556-.4444c-.60355,0-1.218.027-1.83979.0774q-.93793.07632-1.825.21525c-.59268.09-1.15449.19437-1.68411.30482-.53093.11479-.99447.2222-1.38843.32612V29.88227h4.64751V17.41339c.29134-.04044.594-.07828.9062-.10784.3109-.03088.61181-.04523.904-.04523a2.15022,2.15022,0,0,1,1.98154.91968,6.22789,6.22789,0,0,1,.577,3.13385V29.8814h4.64751V21.06947q0-.89358-.06348-1.67541a6.90969,6.90969,0,0,0-.28-1.48931,3.97921,3.97921,0,0,1,1.10753-.45919,4.178,4.178,0,0,1,1.04447-.18524,2.15208,2.15208,0,0,1,1.98153.91968,6.21921,6.21921,0,0,1,.57659,3.13385V29.8814h4.64794V20.76031a14.87588,14.87588,0,0,0-.28046-3.01036A5.71026,5.71026,0,0,0,116.86483,15.41619ZM121.838,29.88227h4.6475V13.72642H121.838Zm21.72215-14.46608a5.25422,5.25422,0,0,0-2.1994-1.51975,9.75465,9.75465,0,0,0-3.47955-.537,25.53043,25.53043,0,0,0-3.93047.29265,25.89051,25.89051,0,0,0-3.05732.63051V29.88227h4.64882V17.41339c.29047-.04044.62486-.07828.99881-.10784.37265-.03088.72748-.04523,1.0597-.04523a2.43511,2.43511,0,0,1,2.21636.91968,6.09406,6.09406,0,0,1,.5918,3.13385V29.8814h4.648V20.76031a12.23461,12.23461,0,0,0-.344-3.01036A5.87076,5.87076,0,0,0,143.56019,15.41619ZM159.34556,25.857a7.998,7.998,0,0,1-1.44975.38614,9.3474,9.3474,0,0,1-1.54539.137,2.2218,2.2218,0,0,1-2.07373-.86054,4.43449,4.43449,0,0,1-.51616-2.30071V17.53427h5.58371V13.72642H153.761v-4.758l-4.64838.73661V23.278a12.74057,12.74057,0,0,0,.297,2.856,5.22474,5.22474,0,0,0,1.04491,2.19722A4.93936,4.93936,0,0,0,152.4504,29.741a8.41638,8.41638,0,0,0,3.15081.51049,11.14843,11.14843,0,0,0,2.52727-.24872A12.91316,12.91316,0,0,0,160,29.42048ZM130.94739,0h-1.72064A7.33106,7.33106,0,0,0,121.838,7.27478V8.96846h1.72064a7.33235,7.33235,0,0,0,7.38871-7.27565Z"/>
    </g>
  </g>
</svg>
