<svg xmlns="http://www.w3.org/2000/svg" width="170" height="14.85889" viewBox="0 0 170 14.85889">
  <title>logo-castle</title>
  <g id="Layer_2" data-name="Layer 2">
    <g id="Layer_1-2" data-name="Layer 1">
      <path id="logo-castle" d="M170,12.61643v2.03612H159.85832V.21153h10.1261V2.24376h-8.151v3.8659H168.627V8.13281h-6.79356v4.48362ZM130.75825.21153h1.98551V12.62032h8.96205v2.01536H130.75825ZM106.243,2.22689H97.2693V.21153l10.95275.00259.0013,14.42156H106.243ZM70.63489,6.00714h2.05429a7.285,7.285,0,0,1,4.17217.85261,4.04028,4.04028,0,0,1,1.944,3.5246c0,3.43117-3.83736,4.45378-6.54181,4.45378A8.82162,8.82162,0,0,1,65.35317,11.939l1.40673-1.38077A7.424,7.424,0,0,0,72.54124,12.754c1.5391,0,4.27988-.49443,4.27988-2.53964a1.8735,1.8735,0,0,0-.92527-1.60787c-.72413-.47756-1.408-.5152-3.44674-.55283L70.37405,8.016C68.225,7.981,66.259,6.82211,66.259,4.398,66.259,2.3307,67.946.94863,69.707.36336A7.95132,7.95132,0,0,1,72.09742,0a9.33592,9.33592,0,0,1,5.745,1.9336L76.71212,3.5843a7.2988,7.2988,0,0,0-4.35645-1.4807c-1.35222,0-4.058.43734-4.058,2.27361C68.2977,5.75928,69.53962,6.00715,70.63489,6.00714ZM40.1216,2.467,40.10992,2.441l-3.31956,7.73441h6.61188l.75787,2.03353H35.99875l-1.1381,2.43063H32.67529L39.038.22191h2.07246ZM7.9122,12.77345a6.36443,6.36443,0,0,0,5.02217-2.2736l1.33406,1.47681a8.07369,8.07369,0,0,1-6.48471,2.88223C3.52071,14.85889,0,11.939,0,7.41128A7.2071,7.2071,0,0,1,7.37365.03893a9.42982,9.42982,0,0,1,6.67028,2.89781l-1.49887,1.3081A7.64227,7.64227,0,0,0,7.48525,2.1036,5.27075,5.27075,0,0,0,1.98292,7.44891C1.98292,10.88008,4.799,12.77345,7.9122,12.77345ZM43.32178,9.97687l.01428.02076.04022.109Z"/>
    </g>
  </g>
</svg>
