<svg xmlns="http://www.w3.org/2000/svg" width="162.94091" height="40" viewBox="0 0 162.94091 40">
  <title>logo-bookmate</title>
  <g id="Layer_2" data-name="Layer 2">
    <g id="Layer_1-2" data-name="Layer 1">
      <path id="logo-bookmate" d="M52.73765,11.37735H58.6926a6.51782,6.51782,0,0,1,1.98975.289,4.58339,4.58339,0,0,1,1.56642.84417,3.74663,3.74663,0,0,1,1.02495,1.362,4.4689,4.4689,0,0,1,.36155,1.84464,4.2331,4.2331,0,0,1-.56655,2.20526,3.77049,3.77049,0,0,1-1.55508,1.45906V19.43a3.6231,3.6231,0,0,1,2.09789,1.54241,4.69878,4.69878,0,0,1,.72313,2.58084,4.81663,4.81663,0,0,1-.43451,2.10884,4.343,4.343,0,0,1-1.193,1.51948,5.13251,5.13251,0,0,1-1.74768.91584,7.25605,7.25605,0,0,1-2.12216.301H52.73765ZM58.6926,18.538a2.38555,2.38555,0,0,0,1.8321-.72313,2.612,2.612,0,0,0,.67578-1.85691,2.54072,2.54072,0,0,0-.65072-1.82062,2.4713,2.4713,0,0,0-1.88157-.68659H55.12443V18.538Zm.265,7.78705a2.84455,2.84455,0,0,0,2.14591-.79648,2.91407,2.91407,0,0,0,.77209-2.12084,2.71716,2.71716,0,0,0-2.918-2.89252H55.12443v5.80984Zm7.59487-4.05057a6.20925,6.20925,0,0,1,.51746-2.54316,6.27005,6.27005,0,0,1,3.48976-3.35171,6.85522,6.85522,0,0,1,2.53842-.47085,6.92744,6.92744,0,0,1,2.563.47085,6.28044,6.28044,0,0,1,3.49,3.35171,6.22,6.22,0,0,1,.51721,2.54316,6.25849,6.25849,0,0,1-1.926,4.59311,6.45749,6.45749,0,0,1-2.08123,1.338,6.98094,6.98094,0,0,1-5.10138,0,6.45218,6.45218,0,0,1-2.0823-1.338,6.26571,6.26571,0,0,1-1.92492-4.59311Zm2.38651,0a4.69645,4.69645,0,0,0,.32582,1.77209,4.0783,4.0783,0,0,0,.90464,1.3861,4.21635,4.21635,0,0,0,1.338.90465A4.14341,4.14341,0,0,0,76.088,25.4327a4.35016,4.35016,0,0,0,.904-1.3861,4.54192,4.54192,0,0,0,.33742-1.77209A4.40691,4.40691,0,0,0,76.088,19.1642a4.18219,4.18219,0,0,0-4.58058-.90385,4.223,4.223,0,0,0-1.338.90385,4.12878,4.12878,0,0,0-.90464,1.37452A4.54512,4.54512,0,0,0,68.939,22.27451Zm12.6405,0a6.21138,6.21138,0,0,1,.5172-2.54316,6.27285,6.27285,0,0,1,3.48856-3.35171,7.14733,7.14733,0,0,1,5.10258,0,6.26985,6.26985,0,0,1,3.48935,3.35171,6.20947,6.20947,0,0,1,.51787,2.54316,6.26874,6.26874,0,0,1-1.92519,4.59311,6.46119,6.46119,0,0,1-2.082,1.338,6.71656,6.71656,0,0,1-2.53842.48266,6.78518,6.78518,0,0,1-2.56416-.48266,6.454,6.454,0,0,1-2.0811-1.338,6.26418,6.26418,0,0,1-1.92466-4.59311Zm2.38639,0a4.704,4.704,0,0,0,.32542,1.77209,4.08838,4.08838,0,0,0,.90383,1.3861,4.23448,4.23448,0,0,0,1.339.90465,4.14264,4.14264,0,0,0,4.58071-.90465,4.36748,4.36748,0,0,0,.90372-1.3861,4.53717,4.53717,0,0,0,.33783-1.77209,4.41085,4.41085,0,0,0-1.24155-3.11031,4.1824,4.1824,0,0,0-4.58071-.90385,4.24118,4.24118,0,0,0-1.339.90385,4.13918,4.13918,0,0,0-.90383,1.37452A4.55238,4.55238,0,0,0,83.96587,22.27451Zm13.0378-10.89716h2.33824v9.884l-.00227.00826,5.0415-5.07071h2.65232l-5.50617,5.49282v.04842l5.96429,6.65834H104.768L99.33964,22.194h.00227v6.20448H97.00367Zm12.58514,4.82151h2.26636v1.66425c0,.128-.00427.24908-.01214.36076-.00893.11251-.01134.20953-.01134.29028-.01734.09544-.03374.18453-.04841.26454h.04841a4.10614,4.10614,0,0,1,.63777-1.049,5.05771,5.05771,0,0,1,.9764-.916,5.35779,5.35779,0,0,1,1.22927-.65132,3.9778,3.9778,0,0,1,1.39865-.25359,3.32409,3.32409,0,0,1,3.64072,2.77369h.04855a5.35054,5.35054,0,0,1,.68685-1.037,4.74651,4.74651,0,0,1,.98841-.89178,5.179,5.179,0,0,1,1.24139-.61489,4.39834,4.39834,0,0,1,1.422-.23,3.74876,3.74876,0,0,1,3.063,1.17071,5.42332,5.42332,0,0,1,.96439,3.50749v7.81145h-2.33969V21.09379a8.19249,8.19249,0,0,0-.0827-1.20606,2.88687,2.88687,0,0,0-.31408-.9644,1.703,1.703,0,0,0-.65017-.65137,2.21365,2.21365,0,0,0-1.0983-.24087,2.92828,2.92828,0,0,0-1.51761.39838,3.70156,3.70156,0,0,0-1.14551,1.06062,4.87865,4.87865,0,0,0-.71061,1.50715,6.14789,6.14789,0,0,0-.24246,1.71139v5.68981H117.689V21.09379a8.74392,8.74392,0,0,0-.07256-1.15712,2.91131,2.91131,0,0,0-.28993-.97725,1.67783,1.67783,0,0,0-.62591-.67472,2.10209,2.10209,0,0,0-1.10884-.25361,2.90663,2.90663,0,0,0-1.54336.41085,3.81743,3.81743,0,0,0-1.14457,1.07255,5.11709,5.11709,0,0,0-.7234,1.506,5.87438,5.87438,0,0,0-.25287,1.68819v5.68981h-2.33877Zm21.02292,8.87308a3.23454,3.23454,0,0,1,.78315-2.291,5.05549,5.05549,0,0,1,1.905-1.27742,9.23977,9.23977,0,0,1,2.38626-.56682,21.66719,21.66719,0,0,1,2.2078-.13283h.62643v-.24007a2.47683,2.47683,0,0,0-.77235-2.08623,3.03572,3.03572,0,0,0-1.90345-.59122,5.13027,5.13027,0,0,0-1.79662.32581,6.97963,6.97963,0,0,0-1.62737.85551l-.94039-1.7112A5.96857,5.96857,0,0,1,133.48051,16.32a8.16607,8.16607,0,0,1,2.55629-.41117,4.9153,4.9153,0,0,1,3.56831,1.21886,4.73682,4.73682,0,0,1,1.2534,3.55576v7.715h-2.1938V27.16877c0-.144.00361-.27247.012-.3853.00774-.11243.01974-.21726.03574-.31382a1.343,1.343,0,0,1,.024-.26407h-.04841a4.61785,4.61785,0,0,1-1.579,1.77114,4.21749,4.21749,0,0,1-2.42146.71153,4.87472,4.87472,0,0,1-1.53147-.24086,3.91791,3.91791,0,0,1-1.302-.71233,3.50711,3.50711,0,0,1-.90491-1.13191A3.33145,3.33145,0,0,1,130.61173,25.07194Zm2.33957-.19313a1.93644,1.93644,0,0,0,.56562,1.33744,2.23114,2.23114,0,0,0,1.72314.61537,2.68824,2.68824,0,0,0,1.37436-.34943,3.36886,3.36886,0,0,0,1.02575-.916,4.46121,4.46121,0,0,0,.65084-1.25408,4.309,4.309,0,0,0,.2294-1.3621v-.45852H137.918c-.43531,0-.93665.02054-1.50907.06042a7.67888,7.67888,0,0,0-1.62552.289,3.30821,3.30821,0,0,0-1.30288.71232A1.69953,1.69953,0,0,0,132.9513,24.87881Zm11.61848-6.65494H142.979V16.32h1.63724V12.848h2.29115V16.32h2.94133v1.90391h-2.94133v5.44889a3.21554,3.21554,0,0,0,.27742,1.45893,2.2401,2.2401,0,0,0,.68618.83249,2.18631,2.18631,0,0,0,.8565.37317,4.25335,4.25335,0,0,0,.78487.08415h.23967a1.35357,1.35357,0,0,0,.31276-.04761v2.0735c-.0951.01547-.2126.03134-.34783.04762a4.0275,4.0275,0,0,1-.4708.0244,8.11211,8.11211,0,0,1-1.38637-.14457,4.22776,4.22776,0,0,1-1.54349-.615,3.74933,3.74933,0,0,1-1.24128-1.386,5.03467,5.03467,0,0,1-.5052-2.4356Zm6.99084,4.07532a7.06293,7.06293,0,0,1,.46893-2.62791,5.99717,5.99717,0,0,1,1.28715-2.01342,5.71362,5.71362,0,0,1,1.93731-1.28981,6.30866,6.30866,0,0,1,2.41813-.45926,5.42319,5.42319,0,0,1,2.273.44686,4.75316,4.75316,0,0,1,1.64713,1.22973,5.22693,5.22693,0,0,1,1.01107,1.82062,7.14479,7.14479,0,0,1,.33756,2.21728c0,.1619-.00787.32114-.02334.48225-.0164.161-.04148.3309-.07322.50694h-8.8492a4.71707,4.71707,0,0,0,.39743,1.7474,3.806,3.806,0,0,0,.91426,1.26728,3.89618,3.89618,0,0,0,1.30929.77035,4.63042,4.63042,0,0,0,1.56242.26487,5.02129,5.02129,0,0,0,1.92466-.38477,5.71138,5.71138,0,0,0,1.65925-1.03682l.98479,1.711a6.27807,6.27807,0,0,1-2.16579,1.27834,7.49333,7.49333,0,0,1-2.54855.45812,6.82665,6.82665,0,0,1-2.63565-.49467,6.23168,6.23168,0,0,1-2.04522-1.34916,6.03323,6.03323,0,0,1-1.32249-2.02575A6.70549,6.70549,0,0,1,151.56062,22.29919Zm9.04138-1.37451a3.28964,3.28964,0,0,0-.90371-2.39912,2.89836,2.89836,0,0,0-2.06149-.80788,3.42587,3.42587,0,0,0-2.3381.84369,3.91462,3.91462,0,0,0-1.23006,2.36331ZM21.92342,26.5326a8.21094,8.21094,0,0,1-7.30612,4.32905c-5.69675,0-9.94071-4.11406-9.94071-10.28693v-.30488c0-.29089.01189-.55869.02989-.8389l24.48878.00564V0L14.59716,10.90916,0,0V40H29.19526V30.86114C26.361,30.85056,23.857,29.5251,21.92342,26.5326Zm-7.30612.97574c2.86945,0,4.62553-1.523,4.85731-4.954H9.04685A5.52,5.52,0,0,0,14.6173,27.50834Zm14.6121,0a5.64059,5.64059,0,0,0,5.69754-4.954H24.37408C24.60535,25.98539,26.36115,27.50834,29.2294,27.50834Z"/>
    </g>
  </g>
</svg>
