<svg xmlns="http://www.w3.org/2000/svg" width="106.41715" height="35" viewBox="0 0 106.41715 35">
  <title>logo-insales</title>
  <g id="Layer_2" data-name="Layer 2">
    <g id="Layer_1-2" data-name="Layer 1">
      <path id="logo-insales" d="M24.29778,16.65906a12.83681,12.83681,0,0,1,1.00528-10.0785c3.01745-5.39087,9.49342-7.7138,15.5804-6.05232l1.76922,2.80482L39.8244,5.6847c-6.09223-1.16235-11.82683.68314-14.32862,5.159a10.02945,10.02945,0,0,0-1.198,5.81533M4.771,10.65973H0V34.572H4.771ZM23.30814,24.1124a7.50638,7.50638,0,0,0-1.921-5.26748,6.13219,6.13219,0,0,0-4.69893-2.09821,6.43556,6.43556,0,0,0-4.33963,1.494v-1.066H7.58366V34.572h4.76488V24.043a3.03536,3.03536,0,0,1,.981-1.99572,3.13368,3.13368,0,0,1,4.33776.03555,2.918,2.918,0,0,1,.94447,2.02959V34.572h4.69635Zm21.68222,3.44813a6.8394,6.8394,0,0,0-2.50613-5.5315,12.67756,12.67756,0,0,0-7.02977-2.5096,8.44882,8.44882,0,0,1-3.04091-.71016,1.6715,1.6715,0,0,1-.94271-1.4957,1.86852,1.86852,0,0,1,.88973-1.58166,5.48339,5.48339,0,0,1,3.02269-.62242A8.51268,8.51268,0,0,1,40.294,16.81613l3.37949-3.37941a13.114,13.114,0,0,0-8.46734-3.09736,8.76373,8.76373,0,0,0-6.20768,2.10079,6.90039,6.90039,0,0,0-2.152,5.19806,5.82135,5.82135,0,0,0,1.93936,4.4446Q30.75727,23.971,35.02911,24.504a10.28052,10.28052,0,0,1,4.09215,1.138A2.22427,2.22427,0,0,1,40.294,27.63431a2.11012,2.11012,0,0,1-1.28042,1.90193,7.16548,7.16548,0,0,1-3.41506.69363,11.83949,11.83949,0,0,1-6.587-2.59556l-3.448,3.4515A14.55473,14.55473,0,0,0,35.34681,35,12.01778,12.01778,0,0,0,42.236,33.13273a6.28876,6.28876,0,0,0,2.75441-5.5722m13.35383,2.244a7.1586,7.1586,0,0,1-3.59471.92537,3.80754,3.80754,0,0,1-2.185-.60767,1.56883,1.56883,0,0,1-.14418-2.77183,3.09133,3.09133,0,0,1,1.90371-.57123,20.39718,20.39718,0,0,1,4.02015.42971v2.59565m4.51927-6.58184a5.74624,5.74624,0,0,0-2.099-4.8752,8.8525,8.8525,0,0,0-5.51584-1.60077A14.56107,14.56107,0,0,0,48.56,18.59664l1.84728,3.69889a10.002,10.002,0,0,1,4.84132-1.27871,4.39562,4.39562,0,0,1,2.45494.60509,1.641,1.641,0,0,1,.71353,1.52957,18.02435,18.02435,0,0,0-4.093-.46615A7.514,7.514,0,0,0,49.18065,24.484a5.748,5.748,0,0,0-2.04523,4.50363,5.33887,5.33887,0,0,0,1.85251,4.19633,6.8731,6.8731,0,0,0,4.72933,1.63722,12.66024,12.66024,0,0,0,4.62693-.81772V34.572h4.51927Zm7.72946-12.88332-4.76926,2.38551V34.572h4.76926ZM78.252,23.43362a2.83287,2.83287,0,0,1,1.16066-1.77784,3.59547,3.59547,0,0,1,2.00612-.6763,3.52324,3.52324,0,0,1,1.99225.6763,2.84845,2.84845,0,0,1,1.13809,1.77784ZM89.2455,27.386a14.84107,14.84107,0,0,0-.95835-5.9612A8.0774,8.0774,0,0,0,85.45807,18.028a6.99652,6.99652,0,0,0-4.03926-1.28129,8.04153,8.04153,0,0,0-4.09126,1.13719A7.64229,7.64229,0,0,0,74.304,21.15834a10.27244,10.27244,0,0,0-1.06857,4.6599,9.268,9.268,0,0,0,2.34729,6.53233,7.867,7.867,0,0,0,6.05053,2.54178,7.33478,7.33478,0,0,0,6.04884-3.09469L84.51359,29.3053a3.91034,3.91034,0,0,1-2.84649,1.24751,3.57423,3.57423,0,0,1-2.45406-.81949A4.05016,4.05016,0,0,1,77.86055,27.386h11.385m17.17165,2.17021a4.103,4.103,0,0,0-1.86984-3.70155,17.28,17.28,0,0,0-5.38562-2.027,19.57881,19.57881,0,0,1-2.5105-.7483.93324.93324,0,0,1-.62242-.6762.91735.91735,0,0,1,.62242-.85336,4.9098,4.9098,0,0,1,1.93492-.28384,15.57114,15.57114,0,0,1,5.44811,1.42192l1.99314-3.948a16.74836,16.74836,0,0,0-7.61575-1.99314,7.88634,7.88634,0,0,0-5.24668,1.65286,5.13027,5.13027,0,0,0-1.90459,4.28833,3.91856,3.91856,0,0,0,2.00877,3.34564,14.9316,14.9316,0,0,0,5.001,1.816,9.73255,9.73255,0,0,1,2.9698.87159,1.01776,1.01776,0,0,1,.4809.763,1.04312,1.04312,0,0,1-.42712.76394,5.55773,5.55773,0,0,1-2.67024.44793,13.09406,13.09406,0,0,1-6.153-1.95927l-2.099,4.165a19.81865,19.81865,0,0,0,8.07585,1.99056q4.1616,0,6.06359-1.60077a4.77269,4.77269,0,0,0,1.90629-3.73534"/>
    </g>
  </g>
</svg>
