<svg xmlns="http://www.w3.org/2000/svg" width="160" height="25.84577" viewBox="0 0 160 25.84577">
  <title>logo-uptopromo</title>
  <g id="Layer_2" data-name="Layer 2">
    <g id="Layer_1-2" data-name="Layer 1">
      <path id="logo-uptopromo" d="M46.63279,7.42361v6.98011c0,4.56712-2.56382,6.80778-6.61422,6.80778-4.05072,0-6.52769-2.26222-6.52769-6.70007V7.42361a1.65895,1.65895,0,1,1,3.31789,0v7.00166c0,2.4561,1.22767,3.72689,3.25291,3.72689S43.3149,16.92448,43.3149,14.533V7.42361a1.65895,1.65895,0,1,1,3.31789,0Zm15.16714,7.75574v.04311c0,3.85646-2.5207,5.96786-5.2569,5.96786a4.43547,4.43547,0,0,1-3.59761-1.72358v3.44679a1.63739,1.63739,0,1,1-3.27478,0V10.93537a1.63739,1.63739,0,0,1,3.27478,0v.15046a4.24087,4.24087,0,0,1,3.59761-1.874C59.23612,9.21179,61.79993,11.32319,61.79993,15.17935Zm-3.27478,0a2.83374,2.83374,0,1,0-5.62285,0v.04311a2.83374,2.83374,0,1,0,5.62285,0ZM76.10528,7.42361a1.53563,1.53563,0,0,0-1.5297-1.52971H64.8812a1.52968,1.52968,0,1,0,0,3.05935h3.18825V19.44518a1.65895,1.65895,0,0,0,3.31789,0V8.95325h3.18824A1.53558,1.53558,0,0,0,76.10528,7.42361ZM87.8475,15.17935v.04311a6.25343,6.25343,0,0,1-12.49561.04305v-.04305a6.25343,6.25343,0,0,1,12.49561-.04311Zm-3.2321.04311A3.06812,3.06812,0,0,0,81.578,12.03378a2.95852,2.95852,0,0,0-2.99474,3.14557v.04311a3.06812,3.06812,0,0,0,3.03748,3.18861,2.95871,2.95871,0,0,0,2.99467-3.14556Zm17.88179-4.11508v.04311c0,3.49021-2.71427,5.3-6.09683,5.3h-2.5207v2.99467a1.65876,1.65876,0,0,1-3.31752,0V7.55288a1.64581,1.64581,0,0,1,1.65892-1.659h4.50251C100.3215,5.8939,102.49719,8.02685,102.49719,11.10738Zm-3.36063.065c0-1.48659-1.03417-2.28372-2.69308-2.28372H93.87966v4.61024h2.62842a2.33517,2.33517,0,0,0,2.62848-2.28341Zm10.96628-1.87472c-.9695,0-1.74513,1.03411-2.21911,2.15445V10.935a1.63724,1.63724,0,1,0-3.27447,0v8.53137a1.63721,1.63721,0,1,0,3.27441,0V16.407c0-2.32645.92646-3.59761,2.58537-3.98543a1.50626,1.50626,0,0,0,1.22811-1.52964A1.49266,1.49266,0,0,0,110.10284,9.29764Zm15.12434,5.88171v.04311a6.2534,6.2534,0,0,1-12.49555.04305v-.04305a6.2534,6.2534,0,0,1,12.49555-.04311Zm-3.23166.04311a3.06814,3.06814,0,0,0-3.03748-3.18868,2.95872,2.95872,0,0,0-2.99468,3.14557v.04311a3.06811,3.06811,0,0,0,3.03742,3.18861,2.959,2.959,0,0,0,2.99474-3.14556Zm19.32557-6.011a4.75664,4.75664,0,0,0-3.79223,1.83136,3.45443,3.45443,0,0,0-3.25254-1.83136,4.12542,4.12542,0,0,0-3.40442,1.85285V10.935a1.63739,1.63739,0,0,0-3.27478,0h-.00068v8.53137a1.63739,1.63739,0,1,0,3.27478,0V14.533c0-1.5512.75407-2.34838,1.98212-2.34838s1.91746.79718,1.91746,2.34838v4.93338a1.63757,1.63757,0,0,0,3.27514,0V14.533c0-1.5512.75408-2.34838,1.98213-2.34838s1.91752.79718,1.91752,2.34838v4.93338a1.63739,1.63739,0,1,0,3.27477,0v-6.0106C145.22036,10.67652,143.75533,9.21142,141.32109,9.21142ZM160,15.17935v.04311a6.2534,6.2534,0,0,1-12.49555.04305v-.04305A6.2534,6.2534,0,0,1,160,15.17935Zm-3.23167.04311a3.06771,3.06771,0,0,0-3.03748-3.18868,2.959,2.959,0,0,0-2.99474,3.14557v.04311a3.06831,3.06831,0,0,0,3.03823,3.18861,2.95835,2.95835,0,0,0,2.994-3.14556ZM25.84614,12.92288A12.92307,12.92307,0,1,1,12.92326,0,12.923,12.923,0,0,1,25.84614,12.92288ZM8.759,12.07943a1.46423,1.46423,0,0,0-1.46429-1.46436H7.26522a1.46451,1.46451,0,0,0-1.46466,1.46436v5.61814a1.46445,1.46445,0,0,0,1.46466,1.46429h.02949A1.46417,1.46417,0,0,0,8.759,17.69757Zm5.58835-2.30137A1.4645,1.4645,0,0,0,12.883,8.3134h-.02942a1.46452,1.46452,0,0,0-1.46466,1.46466v7.91951a1.46445,1.46445,0,0,0,1.46466,1.46429H12.883a1.46451,1.46451,0,0,0,1.46436-1.46466ZM19.9357,6.81962a1.46419,1.46419,0,0,0-1.46436-1.4643h-.02942a1.46446,1.46446,0,0,0-1.46467,1.4643V17.69757a1.46445,1.46445,0,0,0,1.46467,1.46429h.02942a1.46419,1.46419,0,0,0,1.46436-1.46429Z"/>
    </g>
  </g>
</svg>
