<svg xmlns="http://www.w3.org/2000/svg" width="142.85714" height="30" viewBox="0 0 142.85714 30">
  <title>Asset 4</title>
  <g id="Layer_2" data-name="Layer 2">
    <g id="Layer_1-2" data-name="Layer 1">
      <path id="logo-medusa" d="M15.52018,13.04v14.8L22.30778,30V13.04h4.3663v14.8L33.422,30l4.406-6h-4.3663V9.4l-6.7479-2.36-4.406,5.2V9.4l-6.7479-2.36-4.406,5.2V9.4L4.406,7.04,0,13.04H4.36629v14.8L11.15389,30V13.04ZM88.39757,24V9.2L81.61,7.04v20.6L88.35788,30l4.406-5.2v2.84L99.51177,30l4.406-6H99.55146V9.2l-6.7876-2.16V24Zm50.09328-14L131.862,7.04,124.0027,10.8l7.85932,2.96L121.06538,19v8.56L127.853,30l4.00905-5.24v2.88L138.64963,30l4.20751-6.04h-4.36629V10ZM46.60025,30l7.77993-3.12-7.77993-2.92v-4.2L56.80149,14.8,51.00623,7.04l-11.19358,5.4V27.08L46.60025,30Zm72.99646-6.48L111.34045,21l7.74024-9.92-9.68522-4.04-5.08078,6.48,8.296,2.56-7.899,9.88L114.51593,30l5.08078-6.48ZM127.853,24V18.08l4.00905-1.92V24ZM46.60025,10.92l3.41364,4.72-3.41364,1.64V10.92ZM58.548,27.08,65.33561,30,76.4895,25.52V7.8L58.548,0V6.90857l11.15389,4.44V25.56l-4.36629-1.6V11.48L58.548,13.64Z"/>
    </g>
  </g>
</svg>
