<?xml version="1.0" encoding="UTF-8" standalone="no"?>
<svg width="128px" height="16px" viewBox="0 0 128 16" version="1.1" xmlns="http://www.w3.org/2000/svg" xmlns:xlink="http://www.w3.org/1999/xlink" xmlns:sketch="http://www.bohemiancoding.com/sketch/ns">
    <!-- Generator: Sketch 3.3.2 (12043) - http://www.bohemiancoding.com/sketch -->
    <title>Slice 1</title>
    <desc>Created with Sketch.</desc>
    <defs></defs>
    <g id="Page-1" stroke="none" stroke-width="1" fill="none" fill-rule="evenodd" sketch:type="MSPage">
        <g id="bookmate" sketch:type="MSLayerGroup" fill="#9CF5FB">
            <g id="Page-1" sketch:type="MSShapeGroup">
                <g id="bookmate">
                    <g id="Page-1">
                        <g id="bookmate">
                            <g id="Group">
                                <path d="M0,15.148 L0,1.058 L2.117,1.058 C3.06,1.058 3.812,1.132 4.371,1.279 C4.937,1.425 5.415,1.67 5.803,2.018 C6.2,2.376 6.511,2.823 6.743,3.359 C6.98,3.9 7.099,4.449 7.099,5.001 C7.099,6.011 6.712,6.865 5.942,7.564 C6.688,7.821 7.277,8.268 7.71,8.907 C8.147,9.54 8.366,10.276 8.366,11.115 C8.366,12.216 7.979,13.146 7.2,13.907 C6.732,14.376 6.205,14.701 5.622,14.885 C4.982,15.06 4.182,15.149 3.222,15.149 L0,15.148 L0,15.148 Z M2.126,7.109 L2.792,7.109 C3.584,7.109 4.164,6.934 4.53,6.583 C4.898,6.234 5.083,5.719 5.083,5.035 C5.083,4.373 4.894,3.87 4.517,3.526 C4.138,3.185 3.592,3.012 2.874,3.012 L2.126,3.012 L2.126,7.109 L2.126,7.109 Z M2.126,13.15 L3.44,13.15 C4.401,13.15 5.105,12.961 5.557,12.583 C6.033,12.176 6.269,11.659 6.269,11.033 C6.269,10.425 6.041,9.914 5.585,9.5 C5.14,9.09 4.347,8.888 3.204,8.888 L2.126,8.888 L2.126,13.15 L2.126,13.15 Z" id="Shape"></path>
                                <path d="M13.333,8.04 C13.333,6.057 14.061,4.354 15.513,2.93 C16.964,1.508 18.702,0.794 20.734,0.794 C22.741,0.794 24.463,1.512 25.899,2.948 C27.341,4.384 28.061,6.108 28.061,8.122 C28.061,10.148 27.338,11.866 25.892,13.278 C24.438,14.695 22.681,15.404 20.625,15.404 C18.805,15.404 17.173,14.775 15.724,13.514 C14.131,12.121 13.333,10.297 13.333,8.04 L13.333,8.04 L13.333,8.04 Z M15.476,8.062 C15.476,9.617 16.001,10.896 17.047,11.901 C18.086,12.903 19.289,13.405 20.653,13.405 C22.129,13.405 23.376,12.895 24.392,11.873 C25.408,10.84 25.916,9.582 25.916,8.098 C25.916,6.597 25.415,5.339 24.411,4.324 C23.413,3.303 22.177,2.791 20.705,2.791 C19.238,2.791 18.002,3.302 16.992,4.324 C15.981,5.333 15.476,6.578 15.476,8.062 L15.476,8.062 L15.476,8.062 Z" id="Shape"></path>
                                <path d="M32.772,8.04 C32.772,6.057 33.499,4.354 34.952,2.93 C36.401,1.508 38.14,0.794 40.171,0.794 C42.179,0.794 43.899,1.512 45.337,2.948 C46.779,4.384 47.5,6.108 47.5,8.122 C47.5,10.148 46.774,11.866 45.328,13.278 C43.875,14.695 42.119,15.404 40.063,15.404 C38.244,15.404 36.612,14.775 35.164,13.514 C33.57,12.121 32.772,10.297 32.772,8.04 L32.772,8.04 L32.772,8.04 Z M34.916,8.062 C34.916,9.617 35.44,10.896 36.486,11.901 C37.527,12.903 38.729,13.405 40.091,13.405 C41.568,13.405 42.817,12.895 43.831,11.873 C44.847,10.84 45.356,9.582 45.356,8.098 C45.356,6.597 44.855,5.339 43.852,4.324 C42.854,3.303 41.621,2.791 40.145,2.791 C38.68,2.791 37.442,3.302 36.433,4.324 C35.423,5.333 34.916,6.578 34.916,8.062 L34.916,8.062 L34.916,8.062 Z" id="Shape"></path>
                                <path d="M55.687,6.68 L61.171,1.057 L64.006,1.057 L57.638,7.435 L64.044,15.147 L61.197,15.147 L56.124,8.877 L55.687,9.316 L55.687,15.147 L53.558,15.147 L53.558,1.058 L55.687,1.058 L55.687,6.68 L55.687,6.68 Z" id="Shape"></path>
                                <path d="M69.539,15.148 L72.505,0 L77.341,10.95 L82.351,0 L85.013,15.148 L82.832,15.148 L81.475,6.644 L77.305,15.796 L73.256,6.634 L71.738,15.149 L69.539,15.148 L69.539,15.148 Z" id="Shape"></path>
                                <path d="M99.306,11.726 L93.275,11.726 L91.706,15.149 L89.416,15.149 L96.388,0.173 L103.114,15.149 L100.786,15.149 L99.306,11.726 L99.306,11.726 Z M98.44,9.728 L96.348,4.937 L94.157,9.728 L98.44,9.728 L98.44,9.728 Z" id="Shape"></path>
                                <path d="M111.36,3.057 L111.36,15.148 L109.234,15.148 L109.234,3.057 L105.994,3.057 L105.994,1.058 L114.59,1.058 L114.59,3.057 L111.36,3.057 L111.36,3.057 Z" id="Shape"></path>
                                <path d="M128,3.057 L122.351,3.057 L122.351,6.443 L127.835,6.443 L127.835,8.442 L122.351,8.442 L122.351,13.151 L128,13.151 L128,15.149 L120.228,15.149 L120.228,1.058 L128,1.058 L128,3.057 L128,3.057 Z" id="Shape"></path>
                            </g>
                        </g>
                    </g>
                </g>
            </g>
        </g>
    </g>
</svg>