<?xml version="1.0" encoding="UTF-8" standalone="no"?>
<svg width="368px" height="82px" viewBox="0 0 368 82" version="1.1" xmlns="http://www.w3.org/2000/svg" xmlns:xlink="http://www.w3.org/1999/xlink" xmlns:sketch="http://www.bohemiancoding.com/sketch/ns">
    <!-- Generator: Sketch 3.3.2 (12043) - http://www.bohemiancoding.com/sketch -->
    <title>Slice 1</title>
    <desc>Created with Sketch.</desc>
    <defs></defs>
    <g id="Page-1" stroke="none" stroke-width="1" fill="none" fill-rule="evenodd" sketch:type="MSPage">
        <g id="brandymint" sketch:type="MSLayerGroup" fill="#9CF5FB">
            <g id="Page-1" sketch:type="MSShapeGroup">
                <g id="brandymint">
                    <g id="Page-1">
                        <g id="brandymint">
                            <path d="M28.509,36.512 C27.071,34.823 25.314,33.502 23.233,32.557 C21.154,31.619 18.772,31.15 16.094,31.15 C13.944,31.15 12.043,31.432 10.39,31.994 C8.743,32.556 7.508,33.102 6.696,33.623 L6.696,13.916 L0.022,15.046 L0.022,67.662 C1.553,68.088 3.516,68.507 5.907,68.933 C8.296,69.351 11.049,69.574 14.158,69.574 C17.027,69.574 19.608,69.122 21.908,68.226 C24.2,67.33 26.162,66.066 27.789,64.409 C29.416,62.767 30.669,60.755 31.553,58.374 C32.439,55.997 32.882,53.325 32.882,50.359 C32.882,47.538 32.512,44.945 31.769,42.593 C31.029,40.235 29.94,38.211 28.509,36.512 L28.509,36.512 L28.509,36.512 Z M22.695,60.284 C20.545,62.609 17.675,63.777 14.087,63.777 C12.27,63.777 10.75,63.695 9.53,63.531 C8.313,63.365 7.367,63.191 6.697,62.996 L6.697,39.766 C7.509,39.111 8.681,38.467 10.214,37.857 C11.743,37.248 13.414,36.938 15.235,36.938 C17.145,36.938 18.785,37.282 20.148,37.961 C21.514,38.651 22.627,39.588 23.485,40.787 C24.345,41.988 24.968,43.415 25.349,45.064 C25.732,46.707 25.926,48.476 25.926,50.357 C25.925,54.639 24.849,57.951 22.695,60.284 L22.695,60.284 L22.695,60.284 Z M57.715,31.605 C56.996,31.489 56.27,31.398 55.528,31.329 C54.785,31.254 54.129,31.22 53.555,31.22 C50.638,31.22 48.007,31.468 45.662,31.961 C43.318,32.456 41.36,32.984 39.779,33.548 L39.779,68.723 L46.453,68.723 L46.453,37.856 C46.836,37.765 47.634,37.587 48.854,37.329 C50.074,37.069 51.304,36.937 52.55,36.937 C54.464,36.937 56.029,37.068 57.246,37.329 C58.468,37.587 59.341,37.811 59.866,37.995 L61.018,32.282 C60.727,32.184 60.288,32.074 59.688,31.96 C59.092,31.845 58.436,31.726 57.715,31.605 L57.715,31.605 L57.715,31.605 Z M89.188,34.996 C88.063,33.753 86.579,32.788 84.738,32.099 C82.896,31.42 80.635,31.076 77.958,31.076 C75.615,31.076 73.439,31.254 71.428,31.605 C69.42,31.96 67.988,32.326 67.124,32.701 L67.913,38.146 C68.728,37.811 69.96,37.495 71.609,37.188 C73.258,36.879 75.181,36.73 77.385,36.73 C79.106,36.73 80.506,36.972 81.582,37.467 C82.66,37.96 83.507,38.626 84.126,39.442 C84.749,40.272 85.182,41.214 85.42,42.27 C85.66,43.332 85.78,44.403 85.78,45.485 L85.78,47.319 C85.586,47.272 85.251,47.203 84.776,47.11 C84.296,47.02 83.734,46.907 83.086,46.788 C82.443,46.676 81.758,46.583 81.045,46.517 C80.328,46.441 79.629,46.408 78.963,46.408 C76.857,46.408 74.849,46.619 72.936,47.043 C71.022,47.471 69.35,48.126 67.913,49.022 C66.482,49.918 65.342,51.091 64.508,52.551 C63.671,54.012 63.253,55.752 63.253,57.78 C63.253,59.895 63.611,61.712 64.327,63.218 C65.044,64.725 66.048,65.932 67.342,66.854 C68.633,67.772 70.162,68.444 71.931,68.862 C73.701,69.291 75.64,69.504 77.743,69.504 C79.224,69.504 80.72,69.444 82.227,69.323 C83.734,69.209 85.131,69.082 86.424,68.938 C87.716,68.794 88.875,68.647 89.903,68.477 C90.933,68.311 91.731,68.186 92.306,68.092 L92.306,45.132 C92.306,43.065 92.068,41.167 91.589,39.442 C91.11,37.731 90.31,36.248 89.188,34.996 L89.188,34.996 L89.188,34.996 Z M85.78,63.49 C84.965,63.685 83.95,63.81 82.729,63.88 C81.507,63.949 80.109,63.986 78.531,63.986 C75.9,63.986 73.822,63.531 72.289,62.609 C70.758,61.695 69.995,60.058 69.995,57.703 C69.995,56.432 70.306,55.41 70.927,54.628 C71.548,53.857 72.326,53.243 73.259,52.793 C74.195,52.352 75.22,52.055 76.346,51.916 C77.468,51.773 78.532,51.697 79.539,51.697 C81.07,51.697 82.37,51.785 83.447,51.95 C84.525,52.111 85.301,52.31 85.78,52.548 L85.78,63.49 L85.78,63.49 Z M127.301,35.915 C126.131,34.432 124.561,33.284 122.605,32.456 C120.644,31.635 118.179,31.22 115.212,31.22 C111.914,31.22 108.994,31.433 106.462,31.857 C103.925,32.283 101.894,32.68 100.362,33.053 L100.362,68.722 L107.036,68.722 L107.036,37.718 C107.273,37.673 107.668,37.6 108.22,37.5 C108.767,37.409 109.388,37.329 110.083,37.258 C110.776,37.189 111.505,37.127 112.272,37.082 C113.038,37.035 113.779,37.007 114.496,37.007 C116.267,37.007 117.75,37.236 118.944,37.684 C120.141,38.132 121.098,38.845 121.814,39.837 C122.531,40.821 123.043,42.121 123.358,43.719 C123.669,45.317 123.822,47.249 123.822,49.514 L123.822,68.723 L130.494,68.723 L130.494,48.098 C130.494,45.604 130.256,43.317 129.779,41.249 C129.298,39.18 128.473,37.396 127.301,35.915 L127.301,35.915 L127.301,35.915 Z M165.138,33.624 C164.323,33.103 163.089,32.558 161.44,31.995 C159.791,31.433 157.888,31.151 155.738,31.151 C153.057,31.151 150.679,31.62 148.599,32.558 C146.517,33.502 144.761,34.824 143.326,36.513 C141.89,38.213 140.803,40.237 140.059,42.594 C139.318,44.946 138.946,47.538 138.946,50.36 C138.946,53.327 139.389,55.999 140.275,58.376 C141.161,60.757 142.414,62.771 144.041,64.411 C145.668,66.067 147.629,67.334 149.926,68.229 C152.22,69.124 154.805,69.576 157.676,69.576 C160.782,69.576 163.531,69.352 165.924,68.934 C168.315,68.508 170.276,68.089 171.807,67.663 L171.807,13.916 L165.137,15.046 L165.138,33.624 L165.138,33.624 Z M165.138,62.996 C164.465,63.191 163.524,63.365 162.302,63.531 C161.082,63.695 159.564,63.777 157.747,63.777 C154.159,63.777 151.289,62.609 149.137,60.284 C146.985,57.951 145.909,54.638 145.909,50.357 C145.909,48.476 146.103,46.707 146.484,45.064 C146.867,43.415 147.488,41.988 148.349,40.787 C149.211,39.588 150.324,38.651 151.686,37.961 C153.048,37.282 154.686,36.938 156.598,36.938 C158.417,36.938 160.091,37.248 161.618,37.857 C163.153,38.467 164.323,39.111 165.139,39.766 L165.138,62.996 L165.138,62.996 Z M201.402,46.973 C200.06,51.817 198.482,56.714 196.665,61.659 C195.519,59.263 194.419,56.764 193.367,54.168 C192.312,51.584 191.331,48.996 190.424,46.405 C189.518,43.811 188.692,41.296 187.947,38.846 C187.207,36.4 186.572,34.116 186.048,31.996 L178.871,31.996 C180.594,38.492 182.757,44.91 185.366,51.239 C187.97,57.573 190.783,63.563 193.796,69.217 C192.602,71.802 191.26,73.676 189.779,74.832 C188.296,75.985 186.238,76.561 183.605,76.561 C182.792,76.561 181.971,76.457 181.133,76.239 C180.297,76.032 179.613,75.809 179.088,75.573 L177.868,80.873 C178.058,80.964 178.38,81.077 178.837,81.224 C179.288,81.37 179.791,81.494 180.342,81.609 C180.893,81.73 181.457,81.828 182.03,81.896 C182.603,81.965 183.152,82 183.679,82 C185.638,82 187.4,81.763 188.951,81.299 C190.502,80.826 191.906,80.09 193.15,79.103 C194.394,78.115 195.527,76.855 196.556,75.328 C197.582,73.794 198.576,71.973 199.534,69.849 C201.974,64.299 204.246,58.331 206.349,51.953 C208.455,45.574 210.366,38.917 212.088,31.998 L205.203,31.998 C204.007,37.127 202.741,42.121 201.402,46.973 L201.402,46.973 L201.402,46.973 Z M268.779,35.455 C267.633,33.95 266.087,32.788 264.15,31.96 C262.212,31.139 259.738,30.725 256.724,30.725 C255.046,30.725 253.22,31.031 251.234,31.642 C249.25,32.261 247.493,33.103 245.963,34.184 C244.86,33.246 243.461,32.432 241.765,31.747 C240.068,31.063 237.857,30.725 235.129,30.725 C233.741,30.725 232.328,30.787 230.898,30.903 C229.46,31.02 228.062,31.183 226.701,31.398 C225.338,31.605 224.046,31.845 222.828,32.099 C221.607,32.363 220.541,32.61 219.635,32.849 L219.635,68.723 L230.323,68.723 L230.323,40.048 C230.993,39.955 231.689,39.868 232.407,39.8 C233.122,39.729 233.814,39.696 234.486,39.696 C236.638,39.696 238.159,40.397 239.043,41.811 C239.928,43.223 240.37,45.625 240.37,49.018 L240.37,68.721 L251.058,68.721 L251.058,48.456 C251.058,47.086 251.009,45.801 250.912,44.603 C250.815,43.402 250.602,42.257 250.268,41.178 C250.94,40.752 251.784,40.397 252.815,40.122 C253.842,39.836 254.643,39.696 255.217,39.696 C257.368,39.696 258.887,40.397 259.774,41.811 C260.661,43.223 261.1,45.625 261.1,49.018 L261.1,68.721 L271.789,68.721 L271.789,47.745 C271.789,45.204 271.574,42.898 271.144,40.822 C270.715,38.754 269.925,36.959 268.779,35.455 L268.779,35.455 L268.779,35.455 Z M280.216,68.723 L290.904,68.723 L290.904,31.569 L280.216,31.569 L280.216,68.723 L280.216,68.723 Z M330.171,35.455 C328.928,33.95 327.238,32.788 325.113,31.96 C322.98,31.139 320.316,30.725 317.111,30.725 C313.955,30.725 310.943,30.951 308.072,31.398 C305.204,31.845 302.859,32.326 301.041,32.848 L301.041,68.723 L311.732,68.723 L311.732,40.048 C312.4,39.955 313.169,39.868 314.029,39.8 C314.886,39.729 315.702,39.696 316.466,39.696 C318.952,39.696 320.654,40.397 321.563,41.811 C322.471,43.223 322.924,45.625 322.924,49.018 L322.924,68.721 L333.613,68.721 L333.613,47.745 C333.613,45.204 333.349,42.898 332.822,40.822 C332.3,38.754 331.413,36.959 330.171,35.455 L330.171,35.455 L330.171,35.455 Z M366.473,59.466 C365.468,59.848 364.356,60.139 363.139,60.354 C361.917,60.559 360.733,60.669 359.585,60.669 C357.191,60.669 355.604,60.007 354.816,58.69 C354.021,57.374 353.629,55.602 353.629,53.399 L353.629,40.326 L366.47,40.326 L366.47,31.569 L353.63,31.569 L353.63,20.627 L342.94,22.321 L342.94,53.535 C342.94,55.937 343.168,58.128 343.623,60.103 C344.075,62.081 344.878,63.763 346.026,65.156 C347.172,66.54 348.707,67.626 350.616,68.398 C352.53,69.177 354.946,69.572 357.862,69.572 C360.16,69.572 362.094,69.373 363.674,69 C365.255,68.629 366.689,68.18 367.978,67.661 L366.473,59.466 L366.473,59.466 Z M301.165,0.002 L297.208,0.002 C287.822,0.002 280.216,7.489 280.216,16.732 L280.216,20.627 L284.173,20.627 C293.559,20.627 301.165,13.136 301.165,3.895 L301.165,0.002 L301.165,0.002 Z" id="Shape"></path>
                        </g>
                    </g>
                </g>
            </g>
        </g>
    </g>
</svg>