<?xml version="1.0" encoding="UTF-8" standalone="no"?>
<svg width="86px" height="51px" viewBox="0 0 86 51" version="1.1" xmlns="http://www.w3.org/2000/svg" xmlns:xlink="http://www.w3.org/1999/xlink" xmlns:sketch="http://www.bohemiancoding.com/sketch/ns">
    <!-- Generator: Sketch 3.3.2 (12043) - http://www.bohemiancoding.com/sketch -->
    <title>Slice 1</title>
    <desc>Created with Sketch.</desc>
    <defs></defs>
    <g id="Page-1" stroke="none" stroke-width="1" fill="none" fill-rule="evenodd" sketch:type="MSPage">
        <g id="cloud_castle" sketch:type="MSLayerGroup" fill="#9CF5FB">
            <g id="Page-1" sketch:type="MSShapeGroup">
                <g id="cloud_castle">
                    <g id="Page-1">
                        <g id="cloud_castle">
                            <g id="Group">
                                <path d="M64.791,9.942 C61.346,9.942 59.131,10.437 59.131,10.437 C57.514,4.715 51.725,0.477 44.82,0.477 C35.178,0.477 31.483,8.289 31.5,8.367 C31.477,8.45 31.463,8.535 31.463,8.625 C31.463,9.149 31.888,9.574 32.412,9.574 C32.784,9.574 33.105,9.36 33.261,9.048 C33.262,9.047 33.264,9.046 33.265,9.045 C35.182,5.316 39.338,2.73 44.158,2.73 C49.918,2.73 54.728,6.423 55.9,11.352 C51.849,13.066 50.39,14.331 50.324,14.384 C50.107,14.556 49.953,14.83 49.953,15.133 C49.953,15.657 50.379,16.082 50.902,16.082 C51.095,16.082 51.275,16.023 51.425,15.924 L51.437,15.924 C55.681,12.866 61.449,12.896 63.025,12.896 C73.339,12.896 81.701,21.023 81.701,30.955 C81.701,46.902 66.045,48.59 66.045,48.59 L66.047,48.592 C65.59,48.66 65.24,49.053 65.24,49.53 C65.24,50.053 65.666,50.483 66.189,50.479 C66.627,50.475 85.236,48.141 85.236,30.389 C85.236,19.096 76.082,9.942 64.791,9.942 L64.791,9.942 L64.791,9.942 Z" id="Shape"></path>
                                <path d="M27.924,28.995 C27.162,28.442 26.097,28.614 25.545,29.376 C24.231,31.196 22.35,32.28 20.111,32.28 C16.249,32.28 13.032,29.137 13.032,25.274 C13.032,21.413 16.265,18.202 20.111,17.854 C22.414,17.646 23.801,18.081 26.031,19.596 C27.043,20.284 28.023,18.839 27.091,17.93 C25.556,16.436 23.139,15.317 20.111,15.317 C14.37,15.317 9.699,19.533 9.699,25.273 C9.699,26.349 9.832,27.396 10.167,28.363 C10.377,28.972 10.612,29.509 10.843,29.972 C10.844,29.976 10.847,29.976 10.849,29.98 C5.12,29.992 0.463,34.205 0.463,39.935 C0.463,43.263 1.87,45.374 2.803,46.595 C4.621,48.982 7.649,50.347 10.875,50.347 C14.204,50.347 17.114,48.736 19.069,46.035 C19.621,45.273 19.45,44.207 18.688,43.656 C17.925,43.105 16.86,43.275 16.308,44.037 C14.995,45.857 13.114,46.941 10.875,46.941 C7.012,46.941 3.795,43.798 3.795,39.935 C3.795,36.074 7.013,32.662 10.875,32.662 C11.525,32.662 12.257,32.73 12.967,32.98 C13.015,33.041 15.872,35.685 20.111,35.685 C23.441,35.685 26.351,34.074 28.305,31.374 C28.857,30.612 28.687,29.546 27.924,28.995 L27.924,28.995 L27.924,28.995 Z" id="Shape"></path>
                                <path d="M31.391,35.649 C32.332,35.649 33.106,34.924 33.106,33.983 L33.106,21.11 C33.106,20.169 32.329,19.444 31.389,19.444 C30.448,19.444 29.697,20.169 29.697,21.11 L29.697,33.983 C29.697,34.925 30.451,35.649 31.391,35.649 L31.391,35.649 L31.391,35.649 Z" id="Shape"></path>
                                <path d="M25.96,39.095 C22.825,39.095 20.312,41.638 20.312,44.773 C20.312,47.912 22.314,50.416 25.949,50.416 C26.842,50.416 27.813,49.896 28.321,49.305 C28.553,49.969 29.209,50.453 29.95,50.453 C30.888,50.453 31.671,49.685 31.671,48.748 L31.671,44.773 C31.671,41.638 29.097,39.095 25.96,39.095 L25.96,39.095 L25.96,39.095 Z M25.944,47.425 C24.69,47.425 23.673,46.236 23.673,44.773 C23.673,43.31 24.69,42.125 25.944,42.125 C27.199,42.125 28.217,43.311 28.217,44.773 C28.217,46.235 27.2,47.425 25.944,47.425 L25.944,47.425 L25.944,47.425 Z" id="Shape"></path>
                                <path d="M39.493,35.649 C42.629,35.649 45.135,33.143 45.135,30.006 C45.135,26.869 42.629,24.366 39.493,24.366 C36.357,24.366 33.889,26.869 33.889,30.006 C33.889,33.143 36.356,35.649 39.493,35.649 L39.493,35.649 L39.493,35.649 Z M39.493,27.356 C40.747,27.356 41.764,28.545 41.764,30.006 C41.764,31.469 40.747,32.658 39.493,32.658 C38.238,32.658 37.221,31.469 37.221,30.006 C37.22,28.546 38.237,27.356 39.493,27.356 L39.493,27.356 L39.493,27.356 Z" id="Shape"></path>
                                <path d="M67.674,19.407 C66.733,19.407 66.022,20.169 66.022,21.111 L65.989,24.805 C65.292,24.5 64.528,24.329 63.719,24.329 C60.584,24.329 58.043,26.871 58.043,30.007 C58.043,33.143 60.586,35.65 63.723,35.65 C64.678,35.65 65.577,35.449 66.366,35.033 C66.678,35.428 67.132,35.687 67.675,35.687 C68.616,35.687 69.355,34.925 69.355,33.984 L69.355,21.111 C69.354,20.169 68.615,19.407 67.674,19.407 L67.674,19.407 L67.674,19.407 Z M63.723,32.657 C62.469,32.657 61.452,31.469 61.452,30.007 C61.452,28.546 62.47,27.357 63.723,27.357 C64.979,27.357 65.996,28.546 65.996,30.007 C65.996,31.47 64.979,32.657 63.723,32.657 L63.723,32.657 L63.723,32.657 Z" id="Shape"></path>
                                <path d="M52.684,36.444 C51.743,36.444 50.991,37.208 50.991,38.147 L50.991,48.749 C50.991,49.69 51.745,50.415 52.686,50.415 C53.627,50.415 54.401,49.69 54.401,48.749 L54.401,38.147 C54.4,37.208 53.625,36.444 52.684,36.444 L52.684,36.444 L52.684,36.444 Z" id="Shape"></path>
                                <path d="M66.043,42.646 C64.869,39.744 61.553,38.335 58.648,39.507 C55.746,40.681 54.377,43.997 55.548,46.902 C56.72,49.804 60.001,51.175 62.903,50.002 C63.776,49.648 64.196,48.693 63.844,47.822 C63.49,46.949 62.498,46.527 61.627,46.881 C61.174,47.063 60.695,47.088 60.254,46.985 C60,46.901 59.832,46.79 59.832,46.79 L65.027,44.688 C65.9,44.336 66.465,43.696 66.111,42.823 L66.043,42.646 L66.043,42.646 Z M61.92,43.087 C61.92,43.087 58.977,44.275 58.568,44.442 L58.451,44.487 C58.455,43.522 58.943,42.655 59.785,42.315 C60.623,41.977 61.58,42.258 62.252,42.952 L61.92,43.087 L61.92,43.087 Z" id="Shape"></path>
                                <path d="M48.416,42.46 C49.355,42.46 50.131,41.698 50.131,40.757 C50.131,39.816 49.352,39.054 48.41,39.054 C48.357,39.054 46.683,39.05 46.683,39.05 L46.683,38.148 C46.683,37.207 45.925,36.445 44.984,36.445 C44.043,36.445 43.31,37.209 43.31,38.148 C43.31,38.148 43.314,46.255 43.314,46.289 C43.314,48.781 45.252,50.416 48.08,50.416 C49.023,50.416 49.793,49.689 49.793,48.748 C49.793,47.809 49.008,47.045 48.066,47.045 C46.742,47.045 46.683,46.131 46.683,46.1 L46.683,42.461 C46.684,42.458 48.363,42.46 48.416,42.46 L48.416,42.46 L48.416,42.46 Z" id="Shape"></path>
                                <path d="M51.559,35.649 C54.629,35.649 57.211,33.155 57.272,30.2 L57.272,30.198 L57.272,26.032 C57.272,25.091 56.471,24.328 55.53,24.328 C54.591,24.328 53.803,25.091 53.803,26.032 L53.803,30.007 C53.803,31.47 52.803,32.657 51.549,32.657 C50.295,32.657 49.317,31.469 49.317,30.007 L49.317,26.032 C49.317,25.091 48.514,24.328 47.573,24.328 C46.63,24.328 45.848,25.091 45.848,26.032 L45.848,30.2 C46.027,33.247 48.488,35.649 51.559,35.649 L51.559,35.649 L51.559,35.649 Z" id="Shape"></path>
                                <path d="M36.2,43.153 L36.2,43.153 C35.973,43.094 35.805,42.948 35.805,42.704 C35.805,42.487 35.934,42.302 36.119,42.222 C36.126,42.218 36.134,42.216 36.14,42.214 C36.566,42.032 37.212,42.011 37.433,42.011 C38.901,42.011 40.373,42.872 40.373,42.872 C40.375,42.872 40.378,42.868 40.383,42.868 C40.578,42.964 40.8,43.02 41.034,43.02 C41.759,43.02 42.361,42.493 42.478,41.801 C42.479,41.801 42.481,41.799 42.481,41.799 C42.598,41.131 42.281,40.461 41.641,40.102 C41.457,39.998 39.777,39.094 37.432,39.094 C33.659,39.094 32.38,40.918 32.38,42.483 C32.38,43.559 32.823,44.874 35.922,45.602 C36.325,45.694 38.306,46.082 38.7,46.229 C38.919,46.293 39.077,46.495 39.077,46.733 C39.077,46.942 38.958,47.178 38.784,47.266 C38.781,47.268 38.777,47.27 38.775,47.272 C38.397,47.454 37.816,47.475 37.58,47.475 C36.074,47.475 34.431,46.668 34.391,46.649 L34.389,46.649 C34.213,46.577 34.021,46.536 33.82,46.536 C33.01,46.536 32.354,47.192 32.354,48.003 C32.354,48.083 32.36,48.161 32.373,48.237 C32.446,48.766 32.776,49.245 33.3,49.503 C33.496,49.601 35.281,50.415 37.581,50.415 C41.244,50.415 42.542,48.565 42.542,47.003 C42.542,45.353 41.537,44.386 39.185,43.794 C38.742,43.683 36.617,43.274 36.2,43.153 L36.2,43.153 L36.2,43.153 Z" id="Shape"></path>
                            </g>
                        </g>
                    </g>
                </g>
            </g>
        </g>
    </g>
</svg>