<svg xmlns="http://www.w3.org/2000/svg" viewBox="0 0 144.10004 30.90002"><title>logo-humaniq</title><path d="M81.8,6.3a9.5,9.5,0,0,0,0,19A9.27515,9.27515,0,0,0,88.6,22.4v2.4H91.3V15.7A9.41093,9.41093,0,0,0,81.8,6.3Zm0,16.4A6.8,6.8,0,1,1,88.6,15.9,6.8724,6.8724,0,0,1,81.8,22.7ZM42.3,6.8h3v7.6a10.5,10.5,0,0,1-21,0V6.8h3v7.6a7.5,7.5,0,0,0,15,0ZM66,6.8h3.1V24.9H66.3V10.3l-6,6v8.6H57.5V16.3l-6-6V24.9H48.7V6.8h3.7l6.8,6.9Zm68.1-.9a10,10,0,0,0,0,20,9.65506,9.65506,0,0,0,7.1-3v8h2.9v-15A10.0294,10.0294,0,0,0,134.1,5.9Zm0,17a7.1,7.1,0,1,1,7.1-7.1A7.12738,7.12738,0,0,1,134.1,22.9ZM21,15.8v9.1H18v-9a7.55461,7.55461,0,0,0-7.5-7.5C6.6,8.4,3,11.4,3,15V25H0V0H3V8.5a10.25931,10.25931,0,0,1,7.5-3.1C16.2,5.4,21,9.2,21,15.8Zm91.3-9h2.8V24.9h-2.8L97.4,10.7V24.9H94.7V8h-.1V6.8h2.8L112.3,21.1Zm6.2.1h2.8v18h-2.8Z"/></svg>