<?xml version="1.0" encoding="UTF-8" standalone="no"?>
<svg width="132px" height="45px" viewBox="0 0 132 45" version="1.1" xmlns="http://www.w3.org/2000/svg" xmlns:xlink="http://www.w3.org/1999/xlink" xmlns:sketch="http://www.bohemiancoding.com/sketch/ns">
    <!-- Generator: Sketch 3.3.2 (12043) - http://www.bohemiancoding.com/sketch -->
    <title>Slice 1</title>
    <desc>Created with Sketch.</desc>
    <defs></defs>
    <g id="Page-1" stroke="none" stroke-width="1" fill="none" fill-rule="evenodd" sketch:type="MSPage">
        <g id="insales" sketch:type="MSLayerGroup" fill="#9CF5FB">
            <g id="Page-1" sketch:type="MSShapeGroup">
                <g id="insales">
                    <g id="Page-1">
                        <g id="insales">
                            <path d="M30.102,21.505 C28.854,17.407 29.167,12.948 31.343,9.056 C35.068,2.402 43.066,-0.47 50.586,1.583 L52.769,5.051 L49.275,7.953 C41.755,6.515 34.673,8.795 31.582,14.321 C30.352,16.515 29.892,18.979 30.102,21.505 L30.102,21.505 L30.102,21.505 Z" id="Shape"></path>
                            <g id="Group" transform="translate(0.000000, 13.000000)">
                                <path d="M5.986,30.626 L0.099,30.626 L0.099,1.097 L5.987,1.097 L5.987,30.626 L5.986,30.626 L5.986,30.626 Z" id="Shape"></path>
                                <path d="M28.881,30.626 L23.081,30.626 L23.081,17.708 C23.021,16.713 22.634,15.878 21.916,15.203 C21.198,14.529 20.327,14.164 19.302,14.104 C18.189,14.134 17.273,14.485 16.556,15.159 C15.837,15.834 15.435,16.653 15.347,17.62 L15.347,30.627 L9.459,30.627 L9.459,9.139 L15.347,9.139 L15.347,10.457 C16.783,9.227 18.57,8.611 20.708,8.611 C22.993,8.611 24.927,9.475 26.508,11.203 C28.09,12.932 28.881,15.099 28.881,17.707 L28.881,30.626 L28.881,30.626 Z" id="Shape"></path>
                                <path d="M55.658,21.97 C55.658,25.017 54.522,27.309 52.253,28.847 C49.982,30.385 47.148,31.154 43.75,31.154 C39.297,31.125 35.27,29.513 31.666,26.32 L35.928,22.058 C38.477,24.021 41.187,25.089 44.058,25.265 C45.816,25.265 47.222,24.98 48.277,24.409 C49.331,23.838 49.858,23.055 49.858,22.058 C49.887,21.062 49.404,20.242 48.408,19.597 C47.412,18.952 45.728,18.484 43.355,18.191 C39.839,17.752 37.269,16.756 35.643,15.203 C34.017,13.651 33.218,11.819 33.248,9.711 C33.248,7.133 34.134,4.994 35.906,3.295 C37.678,1.597 40.234,0.733 43.574,0.702 C47.645,0.79 51.132,2.064 54.032,4.525 L49.857,8.7 C48.188,7.411 46.167,6.708 43.794,6.591 C42.036,6.591 40.791,6.848 40.059,7.36 C39.327,7.873 38.96,8.525 38.96,9.316 C38.989,10.136 39.378,10.752 40.125,11.161 C40.872,11.572 42.124,11.864 43.882,12.04 C47.602,12.392 50.495,13.425 52.561,15.139 C54.627,16.853 55.658,19.128 55.658,21.97 L55.658,21.97 L55.658,21.97 Z" id="Shape"></path>
                                <path d="M77.729,30.626 L72.149,30.626 L72.149,29.923 C70.42,30.597 68.516,30.934 66.436,30.934 C64.063,30.934 62.115,30.26 60.592,28.913 C59.068,27.566 58.307,25.837 58.307,23.728 C58.307,21.501 59.149,19.649 60.833,18.168 C62.518,16.689 64.634,15.949 67.183,15.949 C68.912,15.949 70.595,16.14 72.237,16.52 C72.295,15.729 72.002,15.099 71.358,14.63 C70.713,14.162 69.703,13.913 68.326,13.883 C66.275,13.883 64.283,14.41 62.349,15.465 L60.065,10.896 C62.994,9.373 65.748,8.611 68.326,8.611 C71.138,8.611 73.408,9.27 75.137,10.589 C76.866,11.906 77.73,13.914 77.73,16.609 L77.73,30.626 L77.729,30.626 L77.729,30.626 Z M72.148,24.738 L72.148,21.531 C70.39,21.179 68.735,21.004 67.182,21.004 C66.244,21.004 65.46,21.238 64.831,21.707 C64.2,22.176 63.886,22.747 63.886,23.421 C63.886,24.066 64.26,24.637 65.007,25.134 C65.754,25.633 66.654,25.881 67.709,25.881 C69.32,25.88 70.801,25.5 72.148,24.738 L72.148,24.738 L72.148,24.738 Z" id="Shape"></path>
                                <path d="M87.272,30.626 L81.384,30.626 L81.384,3.646 L87.272,0.702 L87.272,30.626 L87.272,30.626 Z" id="Shape"></path>
                                <path d="M110.312,21.75 L96.25,21.75 C96.514,22.98 97.07,23.947 97.92,24.649 C98.77,25.352 99.78,25.69 100.952,25.66 C102.27,25.66 103.441,25.148 104.468,24.123 L108.378,27.198 C106.415,29.747 103.925,31.021 100.908,31.021 C97.861,31.021 95.371,29.974 93.437,27.879 C91.504,25.784 90.538,23.097 90.538,19.816 C90.538,17.736 90.977,15.817 91.856,14.059 C92.735,12.301 93.979,10.955 95.59,10.017 C97.201,9.079 98.886,8.611 100.644,8.611 C102.43,8.611 104.093,9.138 105.631,10.193 C107.169,11.247 108.333,12.646 109.124,14.389 C109.915,16.132 110.312,18.586 110.312,21.75 L110.312,21.75 L110.312,21.75 Z M104.512,16.873 C104.306,15.935 103.837,15.203 103.106,14.676 C102.374,14.149 101.552,13.871 100.645,13.841 C99.737,13.871 98.91,14.149 98.163,14.676 C97.416,15.203 96.939,15.936 96.734,16.873 L104.512,16.873 L104.512,16.873 Z" id="Shape"></path>
                                <path d="M131.516,24.43 C131.516,26.188 130.732,27.726 129.165,29.044 C127.598,30.362 125.101,31.022 121.673,31.022 C118.655,31.022 115.33,30.203 111.698,28.561 L114.291,23.42 C116.985,24.973 119.52,25.778 121.893,25.836 C123.739,25.778 124.837,25.595 125.189,25.287 C125.541,24.979 125.716,24.665 125.716,24.342 C125.716,24.021 125.518,23.705 125.122,23.398 C124.726,23.091 123.503,22.732 121.453,22.322 C118.933,21.824 116.876,21.077 115.279,20.081 C113.682,19.085 112.854,17.708 112.797,15.95 C112.737,13.783 113.522,12.017 115.148,10.655 C116.774,9.293 118.934,8.612 121.629,8.612 C124.675,8.612 127.81,9.432 131.032,11.073 L128.571,15.95 C126.081,14.867 123.841,14.28 121.848,14.192 C120.764,14.192 119.965,14.309 119.453,14.544 C118.939,14.779 118.683,15.131 118.683,15.599 C118.742,15.951 118.997,16.23 119.453,16.434 C119.906,16.639 120.939,16.947 122.551,17.357 C125.451,18.031 127.67,18.866 129.208,19.862 C130.746,20.858 131.516,22.38 131.516,24.43 L131.516,24.43 L131.516,24.43 Z" id="Shape"></path>
                            </g>
                        </g>
                    </g>
                </g>
            </g>
        </g>
    </g>
</svg>