<?xml version="1.0" encoding="UTF-8" standalone="no"?>
<svg width="128px" height="27px" viewBox="0 0 128 27" version="1.1" xmlns="http://www.w3.org/2000/svg" xmlns:xlink="http://www.w3.org/1999/xlink" xmlns:sketch="http://www.bohemiancoding.com/sketch/ns">
    <!-- Generator: Sketch 3.3.2 (12043) - http://www.bohemiancoding.com/sketch -->
    <title>Slice 1</title>
    <desc>Created with Sketch.</desc>
    <defs></defs>
    <g id="Page-1" stroke="none" stroke-width="1" fill="none" fill-rule="evenodd" sketch:type="MSPage">
        <g id="meduza" sketch:type="MSLayerGroup" fill="#9CF5FB">
            <g id="Page-1" sketch:type="MSShapeGroup">
                <g id="Group">
                    <path d="M13.879,11.969 L13.879,24.993 L19.895,26.894 L19.895,11.969 L23.889,11.969 L23.889,24.993 L29.869,26.894 L33.774,21.614 L29.905,21.614 L29.905,8.765 L23.924,6.688 L19.895,11.793 L19.895,8.765 L13.914,6.688 L9.885,11.793 L9.885,8.765 L3.904,6.688 L0,11.969 L3.9,11.969 L3.9,24.993 L9.885,26.894 L9.885,11.969 L13.879,11.969 L13.879,11.969 Z M61.909,26.894 L67.925,21.825 L67.925,6.688 L52.18,0 L52.18,5.879 L61.909,9.434 L61.909,21.121 L57.914,19.678 L57.914,9.751 L51.899,11.652 L51.899,22.67 L61.909,26.894 L61.909,26.894 Z M77.916,21.614 L77.916,8.589 L71.9,6.688 L71.9,24.817 L77.881,26.894 L81.91,21.79 L81.91,24.817 L87.891,26.894 L91.795,21.614 L87.926,21.614 L87.926,8.589 L81.91,6.688 L81.91,21.614 L77.916,21.614 L77.916,21.614 Z M123.906,9.293 L117.89,6.688 L110.925,9.997 L117.797,12.602 L107.885,17.214 L107.885,24.747 L113.9,26.894 L117.89,21.754 L117.89,24.817 L123.406,26.894 L127.635,21.579 L123.89,21.579 L123.906,9.293 L123.906,9.293 Z M40.903,26.894 L47.797,24.149 L40.903,21.579 L40.903,17.882 L49.943,13.517 L44.807,6.688 L34.887,11.44 L34.887,24.325 L40.903,26.894 L40.903,26.894 Z M106.478,21.86 L98.703,18.974 L105.422,10.349 L97.085,6.688 L92.863,11.405 L100.11,14.151 L93.039,23.057 L102.291,26.894 L106.478,21.86 L106.478,21.86 Z M113.907,21.579 L113.907,16.404 L117.897,14.714 L117.897,21.579 L113.907,21.579 L113.907,21.579 Z M40.903,10.103 L41.008,10.103 L43.928,14.151 L43.928,14.257 L40.903,15.7 L40.903,10.103 L40.903,10.103 Z" id="Shape"></path>
                </g>
            </g>
        </g>
    </g>
</svg>