<?xml version="1.0" encoding="UTF-8" standalone="no"?>
<svg width="100px" height="29px" viewBox="0 0 100 29" version="1.1" xmlns="http://www.w3.org/2000/svg" xmlns:xlink="http://www.w3.org/1999/xlink" xmlns:sketch="http://www.bohemiancoding.com/sketch/ns">
    <!-- Generator: Sketch 3.3.2 (12043) - http://www.bohemiancoding.com/sketch -->
    <title>Slice 1</title>
    <desc>Created with Sketch.</desc>
    <defs></defs>
    <g id="Page-1" stroke="none" stroke-width="1" fill="none" fill-rule="evenodd" sketch:type="MSPage">
        <g id="rambler" sketch:type="MSLayerGroup">
            <g id="Page-1">
                <g id="rambler">
                    <g id="Page-1">
                        <g id="Rambler-Logo-EPS">
                            <g id="Group-3">
                                <g id="Clip-2"></g>
                                <g id="Fill-1-Clipped" fill="#9CF5FB" sketch:type="MSShapeGroup">
                                    <path d="M1.654,3.89 C3.054,1.924 5.28,0.615 7.659,0.258 C7.665,1.103 7.663,1.948 7.663,2.793 C6.257,3.181 4.89,3.869 3.971,5.034 C2.563,6.696 2.181,9.073 2.847,11.128 C2.108,11.564 1.366,11.994 0.609,12.396 C0.284,11.429 0.032,10.428 0,9.403 L0,8.36 C0.154,6.76 0.703,5.192 1.654,3.89" id="Fill-1"></path>
                                </g>
                            </g>
                            <path d="M10.094,0.455 C10.659,0.453 11.241,0.453 11.774,0.674 C14.537,1.612 16.773,3.993 17.469,6.835 C17.977,8.671 17.789,10.644 17.112,12.411 C16.367,11.986 15.63,11.549 14.885,11.128 C15.514,9.229 15.246,7.048 14.065,5.417 C13.146,4.054 11.654,3.208 10.09,2.797 C10.096,2.016 10.094,1.236 10.094,0.455" id="Fill-4" fill="#9CF5FB" sketch:type="MSShapeGroup"></path>
                            <path d="M8.828,7.136 C10.514,6.82 12.196,6.477 13.892,6.215 C12.793,7.525 11.686,8.831 10.565,10.122 C9.979,9.13 9.419,8.124 8.828,7.136" id="Fill-5" fill="#9CF5FB" sketch:type="MSShapeGroup"></path>
                            <path d="M1.832,14.497 C2.575,14.066 3.324,13.646 4.064,13.211 C5.1,14.327 6.488,15.139 8.013,15.324 C10.098,15.633 12.278,14.787 13.668,13.213 C14.407,13.644 15.16,14.052 15.895,14.489 C14.115,16.811 11.131,18.141 8.215,17.887 C5.721,17.75 3.39,16.422 1.832,14.497" id="Fill-6" fill="#9CF5FB" sketch:type="MSShapeGroup"></path>
                            <path d="M42.286,14.447 C43.185,14.445 44.082,14.445 44.979,14.445 C45.706,16.578 46.368,18.732 47.062,20.875 C47.218,21.219 47.159,21.758 47.382,22.012 C48.013,19.453 49.033,17.006 49.811,14.489 C50.726,14.46 51.654,14.378 52.565,14.503 C53.09,17.889 53.522,21.291 54.035,24.68 C53.07,24.682 52.104,24.676 51.136,24.686 C50.88,22.668 50.619,20.654 50.407,18.631 C49.942,20.686 49.184,22.658 48.602,24.682 C47.688,24.678 46.772,24.688 45.857,24.668 C45.281,22.67 44.595,20.705 44.044,18.697 C43.945,20.709 43.579,22.693 43.311,24.684 C42.458,24.678 41.605,24.68 40.752,24.682 C41.299,21.275 41.719,17.85 42.286,14.447" id="Fill-7" fill="#9CF5FB" sketch:type="MSShapeGroup"></path>
                            <path d="M68.707,14.445 C71.326,14.453 73.945,14.447 76.563,14.449 C76.57,17.859 76.565,21.272 76.565,24.684 C75.615,24.678 74.664,24.68 73.713,24.682 C73.713,22.022 73.713,19.365 73.715,16.705 C72.815,16.725 71.918,16.721 71.021,16.707 C70.761,18.863 70.987,21.182 69.958,23.166 C69.367,24.318 68.065,24.9 66.809,24.863 C66.668,24.19 66.556,23.512 66.416,22.836 C67.449,22.598 67.89,21.539 68.016,20.588 C68.307,18.549 68.412,16.484 68.707,14.445" id="Fill-8" fill="#9CF5FB" sketch:type="MSShapeGroup"></path>
                            <g id="Group-14">
                                <g id="Clip-10"></g>
                                <g id="Fill-9-Clipped" transform="translate(78.000000, 14.000000)" fill="#9CF5FB" sketch:type="MSShapeGroup">
                                    <path d="M3.605,4.322 C3.766,3.812 3.87,3.244 4.271,2.859 C4.934,2.109 6.283,2.041 6.938,2.836 C7.3,3.244 7.334,3.809 7.431,4.32 C6.155,4.324 4.881,4.322 3.605,4.322 L3.605,4.322 L3.605,4.322 Z M10.161,6.252 C10.296,4.414 10.069,2.232 8.485,1.037 C6.335,-0.466 3.011,0.136 1.547,2.324 C0.552,3.748 0.473,5.607 0.818,7.258 C1.213,8.965 2.603,10.395 4.324,10.768 C6.181,11.147 8.197,10.955 9.847,9.982 C9.553,9.356 9.24,8.738 8.922,8.125 C7.734,8.729 6.259,9.143 4.987,8.553 C4.112,8.139 3.784,7.145 3.648,6.256 C5.82,6.254 7.991,6.264 10.161,6.252 L10.161,6.252 L10.161,6.252 Z" id="Fill-9"></path>
                                </g>
                                <g id="Fill-11-Clipped" transform="translate(19.000000, 14.000000)" fill="#9CF5FB" sketch:type="MSShapeGroup">
                                    <path d="M2.97,3.471 C2.968,5.022 2.97,6.574 2.968,8.125 C3.819,8.797 5.174,9.045 6.027,8.252 C6.906,7.387 6.942,6.025 6.855,4.871 C6.778,3.957 6.406,2.902 5.455,2.578 C4.528,2.225 3.586,2.807 2.97,3.471 L2.97,3.471 L2.97,3.471 Z M2.884,1.481 C3.997,0.193 5.96,-0.15 7.475,0.589 C8.719,1.131 9.441,2.424 9.718,3.701 C9.93,4.826 9.956,5.994 9.746,7.121 C9.429,8.731 8.32,10.232 6.724,10.744 C5.479,11.088 4.063,11.029 2.962,10.301 C2.98,11.609 2.958,12.92 2.976,14.227 C2.035,14.539 1.089,14.854 0.105,15 C0.108,10.15 0.098,5.299 0.11,0.449 C1.045,0.451 1.981,0.437 2.914,0.464 C2.908,0.803 2.896,1.143 2.884,1.481 L2.884,1.481 L2.884,1.481 Z" id="Fill-11"></path>
                                </g>
                                <g id="Fill-12-Clipped" transform="translate(55.000000, 9.000000)" fill="#9CF5FB" sketch:type="MSShapeGroup">
                                    <path d="M4.752,7.604 C4.18,7.772 3.651,8.16 3.366,8.69 C3.299,10.072 3.307,11.547 3.925,12.82 C4.352,13.742 5.636,14.102 6.458,13.482 C7.27,12.898 7.415,11.809 7.445,10.881 C7.447,9.902 7.397,8.795 6.702,8.033 C6.22,7.494 5.417,7.377 4.752,7.604 L4.752,7.604 L4.752,7.604 Z M5.026,1.226 C6.458,0.845 7.932,0.66 9.384,0.378 C9.498,1.169 9.64,1.957 9.76,2.746 C8.136,3.116 6.386,3.078 4.87,3.833 C3.857,4.334 3.36,5.424 3.198,6.492 C4.256,5.549 5.773,5.209 7.135,5.609 C8.759,5.992 9.969,7.453 10.283,9.057 C10.621,10.69 10.493,12.523 9.508,13.92 C7.984,16.215 4.357,16.647 2.289,14.867 C0.808,13.51 0.447,11.395 0.369,9.482 C0.349,7.668 0.453,5.768 1.305,4.125 C2.041,2.668 3.469,1.644 5.026,1.226 L5.026,1.226 L5.026,1.226 Z" id="Fill-12"></path>
                                </g>
                                <g id="Fill-13-Clipped" transform="translate(90.000000, 14.000000)" fill="#9CF5FB" sketch:type="MSShapeGroup">
                                    <path d="M3.14,3.473 C3.14,5.018 3.147,6.565 3.136,8.109 C3.998,8.813 5.4,9.051 6.255,8.209 C7.094,7.32 7.092,6.002 7.016,4.856 C6.964,3.906 6.52,2.813 5.519,2.541 C4.607,2.27 3.742,2.842 3.14,3.473 L3.14,3.473 L3.14,3.473 Z M3.079,1.459 C4.021,0.382 5.574,-0.036 6.939,0.338 C8.081,0.587 9.026,1.443 9.493,2.502 C10.071,3.67 10.008,5.014 9.987,6.283 C9.976,8.051 8.952,9.838 7.32,10.582 C5.984,11.123 4.353,11.1 3.123,10.297 C3.159,11.606 3.134,12.916 3.142,14.225 C2.215,14.537 1.283,14.854 0.308,14.984 C0.314,10.139 0.296,5.293 0.318,0.447 C1.237,0.445 2.156,0.443 3.075,0.447 C3.077,0.785 3.079,1.121 3.079,1.459 L3.079,1.459 L3.079,1.459 Z" id="Fill-13"></path>
                                </g>
                            </g>
                            <path d="M33.391,20.834 C32.833,21.318 32.792,22.398 33.529,22.734 C34.377,23.053 35.434,22.752 35.988,22.035 C36.124,21.438 35.968,20.793 36.064,20.178 C35.155,20.213 34.114,20.193 33.391,20.834 L33.391,20.834 L33.391,20.834 Z M30.592,15.67 C31.799,14.609 33.46,14.155 35.047,14.214 C35.988,14.237 36.966,14.443 37.746,14.996 C38.476,15.586 38.814,16.539 38.838,17.457 C38.909,19.867 38.665,22.305 39.144,24.688 C38.203,24.674 37.264,24.682 36.322,24.68 C36.291,24.352 36.259,24.023 36.23,23.697 C35.606,24.244 34.909,24.783 34.056,24.879 C32.789,25.121 31.249,24.74 30.602,23.533 C29.793,22.072 30.386,20.061 31.872,19.287 C33.137,18.584 34.617,18.391 36.042,18.408 C35.996,17.795 36.141,16.926 35.42,16.648 C34.192,16.135 32.811,16.695 31.803,17.44 C31.407,16.846 30.926,16.305 30.592,15.67 L30.592,15.67 L30.592,15.67 Z" id="Fill-15" fill="#9CF5FB" sketch:type="MSShapeGroup"></path>
                        </g>
                    </g>
                </g>
            </g>
        </g>
    </g>
</svg>