<?xml version="1.0" encoding="UTF-8" standalone="no"?>
<svg width="340px" height="140px" viewBox="0 0 340 140" version="1.1" xmlns="http://www.w3.org/2000/svg" xmlns:xlink="http://www.w3.org/1999/xlink" xmlns:sketch="http://www.bohemiancoding.com/sketch/ns">
    <!-- Generator: Sketch 3.3.2 (12043) - http://www.bohemiancoding.com/sketch -->
    <title>Slice 1</title>
    <desc>Created with Sketch.</desc>
    <defs>
        <path id="path-1" d="M0,0.487 L338.833,0.487 L338.833,140 L0,140 L0,0.487 Z"></path>
        <path id="path-3" d="M0,0.487 L338.833,0.487 L338.833,140 L0,140"></path>
        <path id="path-5" d="M0,0.487 L338.833,0.487 L338.833,140 L0,140"></path>
        <path id="path-7" d="M0,0.17777551 L158.898818,0.17777551 L158.898818,30.9620408 L0,30.9620408"></path>
    </defs>
    <g id="Page-1" stroke="none" stroke-width="1" fill="none" fill-rule="evenodd" sketch:type="MSPage">
        <g id="Vector-Smart-Object.ai" sketch:type="MSLayerGroup" transform="translate(1.000000, 0.000000)">
            <path d="M90.8193,130.6309 L59.1083,130.6309 C57.9153,130.6309 56.9453,129.6609 56.9453,128.4689 L56.9453,124.8639 L92.9813,124.8639 L92.9813,128.4689 C92.9813,129.6609 92.0113,130.6309 90.8193,130.6309 M59.1083,102.5229 L90.8193,102.5229 C92.0113,102.5229 92.9813,103.4929 92.9813,104.6849 L92.9813,123.4239 L56.9453,123.4239 L56.9453,104.6849 C56.9453,103.4929 57.9153,102.5229 59.1083,102.5229 M90.8193,101.0819 L59.1083,101.0819 C57.1213,101.0819 55.5043,102.6969 55.5043,104.6849 L55.5043,128.4689 C55.5043,130.4559 57.1213,132.0709 59.1083,132.0709 L90.8193,132.0709 C92.8063,132.0709 94.4233,130.4559 94.4233,128.4689 L94.4233,104.6849 C94.4233,102.6969 92.8063,101.0819 90.8193,101.0819" id="Fill-1" fill="#8DECF9" sketch:type="MSShapeGroup"></path>
            <path d="M80.7295,135.4229 L80.7295,133.5139 L79.2885,133.5139 L79.2885,135.6759 C79.2885,135.8389 79.3435,135.9979 79.4465,136.1259 L81.3915,138.5589 L68.5355,138.5589 L70.4815,136.1259 C70.5835,135.9979 70.6395,135.8389 70.6395,135.6759 L70.6395,133.5139 L69.1985,133.5139 L69.1985,135.4229 L67.3735,137.7029 C66.9575,138.2229 66.8485,138.7909 67.0735,139.2599 C67.2995,139.7309 67.8115,139.9999 68.4775,139.9999 L81.4505,139.9999 C82.1165,139.9999 82.6275,139.7309 82.8535,139.2599 C83.0795,138.7909 82.9695,138.2229 82.5535,137.7029 L80.7295,135.4229 Z" id="Fill-3" fill="#8DECF9" sketch:type="MSShapeGroup"></path>
            <path d="M80.8506,35.0337 C81.3656,35.9467 81.6476,37.1197 81.6476,38.4257 C81.6476,40.3387 81.6366,42.0037 81.6286,43.1067 L81.6216,44.2857 C81.6216,44.6017 81.8236,44.6027 81.9566,44.6027 C82.0306,44.6027 82.1116,44.5937 82.1996,44.5767 C90.5276,41.7907 96.1876,33.9317 96.1876,25.0457 C96.1876,13.6797 86.9406,4.4327 75.5746,4.4327 C64.2086,4.4327 54.9626,13.6797 54.9626,25.0457 C54.9626,33.9187 60.6036,41.7637 69.0066,44.5867 C69.0706,44.5967 69.1306,44.6007 69.1866,44.6007 C69.3156,44.6007 69.5316,44.6007 69.5316,44.2857 C69.5316,44.0447 69.5276,43.6127 69.5216,43.0337 L69.5096,41.5477 C69.0216,41.6167 68.5506,41.6517 68.1006,41.6517 C64.4126,41.6517 62.7186,39.2667 62.3376,38.0057 C61.5266,35.9507 60.3676,35.3447 60.3556,35.3387 C60.3266,35.3237 60.2876,35.3017 60.2606,35.2837 C59.8496,35.0017 58.8846,34.3427 59.1526,33.4737 C59.3836,32.7277 60.2976,32.6167 60.8216,32.6167 C63.4066,32.7957 64.7056,35.1067 64.7606,35.2057 C65.5216,36.5097 66.5446,37.1517 67.8756,37.1517 C68.5626,37.1517 69.2036,36.9727 69.6516,36.8057 C69.7836,36.1547 69.9986,35.5597 70.2856,35.0487 C66.0546,34.3297 61.1966,32.1377 61.1966,23.9287 C61.1966,21.6807 61.9016,19.6997 63.2926,18.0317 C62.9856,17.0337 62.6076,14.9217 63.6566,12.2677 C63.7396,12.0577 63.9116,11.8977 64.1246,11.8287 C64.2046,11.8037 64.4346,11.7427 64.8306,11.7427 C65.8546,11.7427 67.6356,12.1277 70.3626,13.9207 C72.0146,13.4927 73.7656,13.2717 75.5736,13.2637 C77.3846,13.2717 79.1366,13.4927 80.7906,13.9207 C83.5156,12.1267 85.2946,11.7427 86.3166,11.7427 C86.7136,11.7427 86.9426,11.8037 87.0226,11.8287 C87.2356,11.8977 87.4076,12.0577 87.4906,12.2667 C88.5436,14.9227 88.1656,17.0337 87.8586,18.0317 C89.2476,19.6957 89.9526,21.6767 89.9526,23.9287 C89.9526,32.1377 85.0896,34.3227 80.8506,35.0337 M81.9566,46.1027 L81.9566,46.1027 C80.7526,46.1017 80.1216,45.1887 80.1216,44.2857 L80.1286,43.0957 C80.1366,41.9957 80.1476,40.3337 80.1476,38.4257 C80.1476,36.2897 79.3166,35.3467 78.9596,35.0387 C78.7326,34.8447 78.6436,34.5337 78.7316,34.2487 C78.8196,33.9637 79.0686,33.7577 79.3656,33.7247 C83.8586,33.2247 88.4526,31.6707 88.4526,23.9287 C88.4526,21.9077 87.7796,20.1497 86.4536,18.7027 C86.2566,18.4887 86.2016,18.1807 86.3116,17.9127 C86.5146,17.4147 87.0786,15.6687 86.2526,13.2437 C85.6416,13.2607 84.0536,13.5177 81.3466,15.3537 C81.1636,15.4777 80.9356,15.5157 80.7246,15.4557 C79.1236,15.0107 77.3426,14.7717 75.5736,14.7637 C73.8086,14.7717 72.0276,15.0107 70.4306,15.4557 C70.2166,15.5127 69.9906,15.4767 69.8086,15.3537 C67.0976,13.5167 65.5076,13.2607 64.8946,13.2437 C64.0736,15.6677 64.6376,17.4147 64.8396,17.9127 C64.9486,18.1817 64.8936,18.4887 64.6986,18.7017 C63.3696,20.1537 62.6966,21.9117 62.6966,23.9287 C62.6966,31.6667 67.2786,33.2317 71.7606,33.7407 C72.0566,33.7737 72.3036,33.9787 72.3926,34.2627 C72.4806,34.5457 72.3936,34.8547 72.1706,35.0507 C71.8426,35.3377 71.2616,36.0307 71.0626,37.4467 C71.0276,37.7007 70.8626,37.9207 70.6276,38.0257 C69.9926,38.3117 68.9996,38.6517 67.8756,38.6517 C66.5796,38.6517 64.7616,38.1817 63.4556,35.9447 C63.4406,35.9187 62.7156,34.6527 61.4186,34.2377 C61.9846,34.6427 62.9946,35.5847 63.7536,37.5147 C63.8066,37.6727 64.6356,40.1517 68.1006,40.1517 C68.7156,40.1517 69.3856,40.0737 70.0926,39.9197 C70.3116,39.8717 70.5446,39.9257 70.7206,40.0677 C70.8976,40.2087 71.0006,40.4217 71.0016,40.6477 L71.0216,43.0197 C71.0276,43.6057 71.0316,44.0417 71.0316,44.2857 C71.0316,45.1877 70.3976,46.1007 69.1866,46.1007 C69.0346,46.1007 68.8676,46.0867 68.6876,46.0537 C68.6536,46.0477 68.6196,46.0387 68.5866,46.0277 C59.5406,43.0167 53.4626,34.5847 53.4626,25.0457 C53.4626,12.8527 63.3816,2.9327 75.5746,2.9327 C87.7676,2.9327 97.6876,12.8527 97.6876,25.0457 C97.6876,34.5777 91.6166,43.0087 82.5786,46.0247 C82.2926,46.0867 82.1176,46.1027 81.9566,46.1027" id="Fill-5" fill="#8DECF9" sketch:type="MSShapeGroup"></path>
            <g id="Group-9">
                <mask id="mask-2" sketch:name="Clip 8" fill="white">
                    <use xlink:href="#path-1"></use>
                </mask>
                <g id="Clip-8"></g>
                <path d="M264.1768,40.3779 C254.9868,40.3779 248.1188,37.7419 248.1188,35.3849 L248.1188,29.0209 C250.9908,31.4589 257.7628,32.7519 264.2288,32.7519 C270.6158,32.7519 277.3058,31.4919 280.2368,29.1119 L280.2368,35.6949 C280.2368,37.9099 273.6418,40.3779 264.1768,40.3779 L264.1768,40.3779 Z M264.2288,2.0159 C273.3908,2.0159 280.2368,4.6139 280.2368,6.9369 C280.2368,9.1869 273.6618,11.6929 264.2288,11.6929 C254.7958,11.6929 248.2238,9.1439 248.2238,6.8559 C248.2238,4.5669 254.7958,2.0159 264.2288,2.0159 L264.2288,2.0159 Z M280.2368,16.4439 C280.2368,18.7319 273.6618,21.2819 264.2288,21.2819 C254.7958,21.2819 248.2238,18.7319 248.2238,16.4439 C248.2238,16.3099 248.1808,16.1909 248.1188,16.0809 L248.1188,9.4909 C250.9908,11.9299 257.7628,13.2219 264.2288,13.2219 C270.6158,13.2219 277.3058,11.9789 280.2368,9.6289 L280.2368,16.4439 Z M280.2368,26.3849 C280.2368,28.6729 273.6618,31.2229 264.2288,31.2229 C254.7958,31.2229 248.2238,28.6729 248.2238,26.3849 C248.2238,26.2509 248.1808,26.1319 248.1188,26.0219 L248.1188,19.0799 C250.9908,21.5179 257.7628,22.8109 264.2288,22.8109 C270.6158,22.8109 277.3058,21.5509 280.2368,19.1709 L280.2368,26.3849 Z M281.7658,6.9369 C281.7658,3.8099 275.6188,0.4869 264.2288,0.4869 C255.7288,0.4869 246.6948,2.7189 246.6948,6.8559 C246.6948,6.9119 246.7018,6.9659 246.7048,7.0209 C246.6388,7.1349 246.5898,7.2599 246.5898,7.4009 L246.5898,35.3849 C246.5898,39.4679 255.5318,41.9069 264.1768,41.9069 C272.9168,41.9069 281.7658,39.7729 281.7658,35.6949 L281.7658,7.4009 C281.7658,7.3589 281.7478,7.3229 281.7408,7.2829 C281.7558,7.1689 281.7658,7.0539 281.7658,6.9369 L281.7658,6.9369 Z" id="Fill-7" fill="#8DECF9" sketch:type="MSShapeGroup" mask="url(#mask-2)"></path>
            </g>
            <path d="M273.1455,17.3418 C273.1745,17.3418 273.2045,17.3398 273.2335,17.3368 C274.5305,17.1888 276.1105,16.7618 276.9905,16.3218 C277.3685,16.1328 277.5215,15.6728 277.3325,15.2958 C277.1435,14.9178 276.6855,14.7648 276.3065,14.9538 C275.5905,15.3118 274.1645,15.6908 273.0595,15.8168 C272.6405,15.8658 272.3375,16.2448 272.3865,16.6638 C272.4315,17.0538 272.7625,17.3418 273.1455,17.3418" id="Fill-10" fill="#8DECF9" sketch:type="MSShapeGroup"></path>
            <path d="M273.1455,26.9014 C273.1745,26.9014 273.2045,26.8994 273.2335,26.8964 C274.5305,26.7484 276.1105,26.3214 276.9905,25.8814 C277.3685,25.6924 277.5215,25.2324 277.3325,24.8554 C277.1435,24.4774 276.6855,24.3244 276.3065,24.5134 C275.5905,24.8714 274.1645,25.2504 273.0595,25.3764 C272.6405,25.4254 272.3375,25.8044 272.3865,26.2234 C272.4315,26.6134 272.7625,26.9014 273.1455,26.9014" id="Fill-12" fill="#8DECF9" sketch:type="MSShapeGroup"></path>
            <path d="M276.3066,34.4224 C275.5906,34.7804 274.1646,35.1594 273.0596,35.2864 C272.6396,35.3344 272.3386,35.7134 272.3866,36.1334 C272.4316,36.5234 272.7626,36.8104 273.1456,36.8104 C273.1736,36.8104 273.2036,36.8094 273.2336,36.8054 C274.5316,36.6564 276.1116,36.2294 276.9906,35.7904 C277.3686,35.6014 277.5216,35.1424 277.3316,34.7644 C277.1436,34.3874 276.6856,34.2324 276.3066,34.4224" id="Fill-14" fill="#8DECF9" sketch:type="MSShapeGroup"></path>
            <path d="M281.8105,137.6445 C281.6225,137.6445 281.4235,137.6375 281.2185,137.6295 C280.9815,137.6215 280.7355,137.6135 280.4885,137.6135 L249.9385,137.6135 C249.7535,137.6135 249.5705,137.6105 249.3905,137.6135 C249.2265,137.6165 249.0665,137.6135 248.9115,137.6135 L248.9065,137.6135 C248.6965,137.6135 248.1545,137.6185 247.9175,137.4945 C247.8705,137.4695 247.7925,137.4355 247.7805,137.1725 C247.8425,136.8895 248.0685,135.8785 248.5195,134.1375 C248.9655,132.4135 254.3995,129.3295 258.2895,127.7615 L264.8525,131.2855 C265.0665,131.4015 265.3245,131.4065 265.5455,131.3005 L272.8645,127.7625 C277.1655,129.6955 281.5345,132.7595 281.9625,134.1675 C282.6145,136.3135 282.6475,136.6235 282.6475,137.2005 C282.6475,137.5505 282.6475,137.6445 281.8105,137.6445 M283.4235,133.7235 C282.6235,131.0935 276.1615,127.5325 273.1565,126.2205 C272.9515,126.1315 272.7185,126.1355 272.5185,126.2335 L265.2315,129.7555 L258.7015,126.2485 C258.5045,126.1425 258.2715,126.1285 258.0625,126.2095 C255.4465,127.2275 247.8045,130.8015 247.0395,133.7555 C246.4945,135.8645 246.2765,136.8995 246.2675,136.9415 C246.2575,136.9935 246.2515,137.0455 246.2515,137.0985 C246.2515,138.1355 246.7725,138.6255 247.2085,138.8545 C247.8525,139.1905 248.6225,139.1625 249.4185,139.1475 C249.5885,139.1445 249.7635,139.1405 249.9385,139.1405 L280.4885,139.1405 C280.7175,139.1405 280.9445,139.1485 281.1645,139.1565 C281.3885,139.1645 281.6055,139.1715 281.8105,139.1715 C282.3955,139.1715 284.1755,139.1715 284.1755,137.2005 C284.1755,136.3995 284.1015,135.9535 283.4235,133.7235" id="Fill-16" fill="#8DECF9" sketch:type="MSShapeGroup"></path>
            <path d="M257.1953,117.2344 C257.6073,118.2644 258.0773,119.0034 258.5713,119.7784 C258.7113,119.9984 258.8533,120.2204 258.9953,120.4554 C259.4913,121.2674 259.9933,121.8774 260.5533,122.3384 C260.5153,123.0904 260.4223,124.0164 260.2533,124.7044 C260.1523,125.1124 260.4023,125.5264 260.8123,125.6284 C261.2213,125.7284 261.6353,125.4774 261.7363,125.0684 C261.9643,124.1394 262.0713,122.8714 262.0953,121.9924 C262.1023,121.7344 261.9793,121.4904 261.7673,121.3434 C261.2463,120.9824 260.7803,120.4474 260.2993,119.6594 C260.1513,119.4174 260.0043,119.1854 259.8603,118.9594 C259.3303,118.1274 258.8733,117.4074 258.4843,116.3284 C258.3833,116.0464 258.0903,115.8484 257.7923,115.8224 C257.7193,115.8174 257.5163,115.6964 257.4083,115.5004 C256.6373,114.0854 256.3073,111.9224 256.4513,111.4814 C256.4703,111.4684 256.5573,111.4394 256.7423,111.4424 C256.9603,111.4604 257.1583,111.3684 257.3073,111.2164 C257.4553,111.0664 257.5353,110.8624 257.5283,110.6514 C257.3663,106.2694 258.9793,103.9154 260.3613,102.7104 C260.6143,102.4884 260.6933,102.1284 260.5553,101.8204 C260.5463,101.7994 260.5363,101.7794 260.5253,101.7604 C261.1763,101.3224 262.2703,101.3514 262.2843,101.3544 L262.3263,100.5914 L262.9553,100.1594 C262.9053,100.0444 263.0073,99.7644 263.1513,99.5094 C263.5843,99.8724 264.1633,100.1304 264.7053,100.2804 C266.2743,100.7154 267.4123,101.1644 268.1183,101.4734 C271.3743,102.7634 273.1453,106.1094 272.9773,110.6534 C272.9693,110.8574 273.0443,111.0574 273.1853,111.2074 C273.3263,111.3554 273.5213,111.4414 273.7253,111.4454 C273.8663,111.4484 273.9383,111.4764 273.9343,111.4634 C274.0983,111.9284 273.7683,114.0934 272.9973,115.5074 C272.8883,115.7074 272.6903,115.8314 272.6143,115.8404 C272.3363,115.8804 272.1003,116.0684 272.0033,116.3334 C271.6083,117.4004 271.1283,118.1524 270.6193,118.9494 C270.4653,119.1904 270.3093,119.4354 270.1523,119.6934 C269.6893,120.4544 269.2673,120.9664 268.8263,121.3074 C268.6383,121.4544 268.5283,121.6784 268.5303,121.9184 C268.5343,122.6124 268.5913,123.9584 268.9183,125.1564 C269.0113,125.4964 269.3193,125.7184 269.6553,125.7184 C269.7223,125.7184 269.7893,125.7104 269.8573,125.6914 C270.2643,125.5814 270.5033,125.1614 270.3923,124.7544 C270.1543,123.8834 270.0843,122.8764 270.0643,122.2614 C270.5413,121.8264 270.9903,121.2534 271.4563,120.4884 C271.6073,120.2394 271.7583,120.0054 271.9073,119.7714 C272.3843,119.0234 272.8763,118.2544 273.2993,117.2134 C273.7193,117.0244 274.1003,116.6734 274.3373,116.2394 C275.2273,114.6084 275.7403,111.9894 275.3743,110.9554 C275.2273,110.5374 274.9273,110.2314 274.5153,110.0634 C274.5073,105.2254 272.3563,101.5094 268.7073,100.0644 C267.9823,99.7464 266.7703,99.2674 265.1133,98.8084 C264.3843,98.6064 264.0343,98.2764 263.9983,98.2144 C263.9643,98.0104 263.8493,97.8284 263.6793,97.7104 C263.5093,97.5914 263.2973,97.5474 263.0953,97.5894 C262.4273,97.7224 261.8443,98.6154 261.6153,99.1834 C261.5203,99.4204 261.4603,99.6504 261.4353,99.8714 C260.4243,100.0134 259.0093,100.5004 258.6173,101.9254 C258.5723,102.0544 258.5583,102.1934 258.5803,102.3274 C257.2563,103.8074 255.9943,106.2174 255.9893,110.0224 C255.5253,110.1784 255.1903,110.4974 255.0323,110.9484 C254.6653,111.9824 255.1783,114.5984 256.0673,116.2304 C256.3223,116.6954 256.7403,117.0584 257.1953,117.2344" id="Fill-18" fill="#8DECF9" sketch:type="MSShapeGroup"></path>
            <g id="Group-22">
                <mask id="mask-4" sketch:name="Clip 21" fill="white">
                    <use xlink:href="#path-3"></use>
                </mask>
                <g id="Clip-21"></g>
                <path d="M45.4639,123.5352 C45.3539,123.5352 45.2419,123.5172 45.1319,123.4782 C17.7149,113.8332 -0.0001,92.4042 -0.0001,68.8862 C-0.0001,44.7472 18.3689,23.0962 46.7959,13.7262 C47.3219,13.5522 47.8859,13.8382 48.0589,14.3632 C48.2319,14.8872 47.9459,15.4522 47.4219,15.6252 C19.8289,24.7202 1.9999,45.6262 1.9999,68.8862 C1.9999,91.5442 19.1909,112.2322 45.7959,121.5922 C46.3169,121.7752 46.5899,122.3462 46.4069,122.8672 C46.2629,123.2782 45.8769,123.5352 45.4639,123.5352" id="Fill-20" fill="#8DECF9" sketch:type="MSShapeGroup" mask="url(#mask-4)"></path>
            </g>
            <g id="Group-25">
                <mask id="mask-6" sketch:name="Clip 24" fill="white">
                    <use xlink:href="#path-5"></use>
                </mask>
                <g id="Clip-24"></g>
                <path d="M293.3691,124.0117 C292.9571,124.0117 292.5701,123.7547 292.4261,123.3437 C292.2421,122.8227 292.5161,122.2517 293.0371,122.0687 C319.6421,112.7097 336.8331,92.0217 336.8331,69.3627 C336.8331,46.1027 319.0041,25.1977 291.4101,16.1027 C290.8861,15.9297 290.6001,15.3647 290.7731,14.8397 C290.9461,14.3157 291.5091,14.0287 292.0371,14.2027 C320.4641,23.5727 338.8331,45.2247 338.8331,69.3627 C338.8331,92.8817 321.1171,114.3107 293.7011,123.9547 C293.5911,123.9937 293.4791,124.0117 293.3691,124.0117" id="Fill-23" fill="#8DECF9" sketch:type="MSShapeGroup" mask="url(#mask-6)"></path>
            </g>
            <path d="M78.0894,107.667 L61.4094,107.667 C60.8574,107.667 60.4094,107.22 60.4094,106.667 C60.4094,106.114 60.8574,105.667 61.4094,105.667 L78.0894,105.667 C78.6414,105.667 79.0894,106.114 79.0894,106.667 C79.0894,107.22 78.6414,107.667 78.0894,107.667" id="Fill-26" fill="#8DECF9" sketch:type="MSShapeGroup"></path>
            <path d="M74.8833,112.6465 L61.4093,112.6465 C60.8573,112.6465 60.4093,112.1995 60.4093,111.6465 C60.4093,111.0935 60.8573,110.6465 61.4093,110.6465 L74.8833,110.6465 C75.4353,110.6465 75.8833,111.0935 75.8833,111.6465 C75.8833,112.1995 75.4353,112.6465 74.8833,112.6465" id="Fill-28" fill="#8DECF9" sketch:type="MSShapeGroup"></path>
            <path d="M79.7563,117.5771 L61.4093,117.5771 C60.8573,117.5771 60.4093,117.1301 60.4093,116.5771 C60.4093,116.0241 60.8573,115.5771 61.4093,115.5771 L79.7563,115.5771 C80.3083,115.5771 80.7563,116.0241 80.7563,116.5771 C80.7563,117.1301 80.3083,117.5771 79.7563,117.5771" id="Fill-30" fill="#8DECF9" sketch:type="MSShapeGroup"></path>
            <path d="M46.9531,21.2769 C46.8341,21.2769 46.7131,21.2559 46.5951,21.2099 C46.0791,21.0119 45.8221,20.4339 46.0191,19.9179 L48.1361,14.4029 L43.2821,10.8349 C42.8371,10.5079 42.7411,9.8819 43.0681,9.4369 C43.3951,8.9929 44.0211,8.8969 44.4661,9.2239 L49.9351,13.2439 C50.2981,13.5099 50.4381,13.9869 50.2771,14.4079 L47.8871,20.6349 C47.7341,21.0319 47.3551,21.2769 46.9531,21.2769" id="Fill-32" fill="#8DECF9" sketch:type="MSShapeGroup"></path>
            <path d="M298.2344,127.1406 C298.1544,127.1406 298.0734,127.1306 297.9914,127.1116 L291.4824,125.4896 C290.9904,125.3666 290.6684,124.8946 290.7324,124.3906 L291.6364,117.3586 C291.7084,116.8116 292.2004,116.4336 292.7564,116.4946 C293.3044,116.5646 293.6914,117.0666 293.6214,117.6146 L292.8304,123.7636 L298.4754,125.1696 C299.0104,125.3036 299.3374,125.8466 299.2044,126.3826 C299.0904,126.8366 298.6824,127.1406 298.2344,127.1406" id="Fill-34" fill="#8DECF9" sketch:type="MSShapeGroup"></path>
            <path d="M76.9287,128.7187 L73.0897,128.7187 C72.5377,128.7187 72.0897,128.2717 72.0897,127.7187 C72.0897,127.1657 72.5377,126.7187 73.0897,126.7187 L76.9287,126.7187 C77.4807,126.7187 77.9287,127.1657 77.9287,127.7187 C77.9287,128.2717 77.4807,128.7187 76.9287,128.7187" id="Fill-36" fill="#8DECF9" sketch:type="MSShapeGroup"></path>
            <path d="M275.4941,136.5137 L269.9901,136.5137 C269.4371,136.5137 268.9901,136.0667 268.9901,135.5137 C268.9901,134.9607 269.4371,134.5137 269.9901,134.5137 L275.4941,134.5137 C276.0471,134.5137 276.4941,134.9607 276.4941,135.5137 C276.4941,136.0667 276.0471,136.5137 275.4941,136.5137" id="Fill-38" fill="#8DECF9" sketch:type="MSShapeGroup"></path>
            <path d="M236.333,12.876 L102.333,12.876" id="Stroke-40" stroke="#8DECF9" stroke-width="2" stroke-linecap="round" sketch:type="MSShapeGroup"></path>
            <path d="M233.1006,6.7168 L236.9996,13.3338 L232.9996,19.6668" id="Stroke-42" stroke="#8DECF9" stroke-width="2" stroke-linecap="round" sketch:type="MSShapeGroup"></path>
            <path d="M103.667,123.876 L237.667,123.876" id="Stroke-44" stroke="#8DECF9" stroke-width="2" stroke-linecap="round" sketch:type="MSShapeGroup"></path>
            <path d="M106.8994,117.7168 L103.0004,124.3338 L107.0004,130.6658" id="Stroke-46" stroke="#8DECF9" stroke-width="2" stroke-linecap="round" sketch:type="MSShapeGroup"></path>
        </g>
        <g id="vexor_logo_white" sketch:type="MSLayerGroup" transform="translate(91.000000, 55.000000)">
            <path d="M28.6577075,3.02471429 C28.6577075,3.30308163 28.5948617,3.6067551 28.46917,3.93573469 L17.307747,29.4057143 C17.156917,29.7606327 16.9055336,30.0579796 16.5535968,30.2983878 C16.2016601,30.5381633 15.8120158,30.659 15.384664,30.659 L13.0845059,30.659 C12.6571542,30.659 12.2612253,30.5318367 11.8967194,30.2787755 C11.5322134,30.0263469 11.2745455,29.7226735 11.1237154,29.3677551 L0.15083004,3.93573469 C0.0502766798,3.70734694 0,3.41695918 0,3.06204082 C0,2.48063265 0.207391304,1.9745102 0.622173913,1.54367347 C1.03695652,1.11410204 1.53281028,0.898367347 2.11162055,0.898367347 C2.53897233,0.898367347 2.92233202,1.01920408 3.2616996,1.25961224 C3.60106719,1.50002041 3.85873518,1.80938776 4.03470356,2.18897959 L14.2534387,25.8755102 L24.5475889,2.18897959 C24.698419,1.83532653 24.956087,1.53165306 25.3205929,1.27859184 C25.6850988,1.02553061 26.0803992,0.898367347 26.5083794,0.898367347 C27.0865613,0.898367347 27.5886996,1.10777551 28.0166798,1.52532653 C28.4440316,1.9422449 28.6577075,2.44267347 28.6577075,3.02471429" id="Fill-1" fill="#FFFFFF" sketch:type="MSShapeGroup"></path>
            <path d="M58.7105929,28.2675714 C58.6848261,28.8243061 58.4654941,29.3177755 58.0507115,29.7479796 C57.6359289,30.1781837 57.1388182,30.3932857 56.5612648,30.3932857 L43.2505138,30.3932857 C42.1437984,30.3932857 41.075419,30.2098163 40.0453755,29.8422449 C39.0140751,29.4765714 38.1034387,28.937551 37.311581,28.2296122 C36.5197233,27.5210408 35.8843518,26.6416531 35.4073518,25.591449 C34.9297233,24.5412449 34.6909091,23.3202245 34.6909091,21.9283878 C34.6909091,21.1685714 34.7851779,20.4732857 34.9737154,19.84 C35.162253,19.2079796 35.4073518,18.6259388 35.7090119,18.0945102 C36.0106719,17.5630816 36.3437549,17.0885918 36.7082609,16.6710408 C37.0721383,16.2534898 37.4303597,15.8802245 37.7829249,15.5512449 C37.4303597,15.2222653 37.0721383,14.849 36.7082609,14.431449 C36.3437549,14.0132653 36.0106719,13.5387755 35.7090119,13.0079796 C35.4073518,12.476551 35.162253,11.8945102 34.9737154,11.2612245 C34.7851779,10.6292041 34.6909091,9.93328571 34.6909091,9.17346939 C34.6909091,7.78226531 34.9297233,6.5612449 35.4073518,5.51040816 C35.8843518,4.46083673 36.5197233,3.58144898 37.311581,2.87287755 C38.1034387,2.16430612 39.0140751,1.62655102 40.0453755,1.25961224 C41.075419,0.892673469 42.1437984,0.709204082 43.2505138,0.709204082 L56.5612648,0.709204082 C57.1388182,0.709204082 57.6359289,0.924306122 58.0507115,1.3545102 C58.4654941,1.78471429 58.6848261,2.27818367 58.7105929,2.83491837 C58.7357312,3.41695918 58.5277115,3.92308163 58.088419,4.35265306 C57.6478696,4.7834898 57.1388182,4.99795918 56.5612648,4.99795918 L43.2505138,4.99795918 C42.5208735,4.99795918 41.8861304,5.13081633 41.3462846,5.39716327 C40.8051818,5.66287755 40.3596047,5.99818367 40.007668,6.40308163 C39.6551028,6.80797959 39.3854941,7.25716327 39.1969565,7.75 C39.008419,8.24410204 38.9141502,8.71859184 38.9141502,9.17346939 C38.9141502,9.62961224 39.008419,10.1104286 39.1969565,10.616551 C39.3854941,11.1226735 39.6551028,11.5781837 40.007668,11.9830816 C40.3596047,12.3879796 40.8051818,12.7226531 41.3462846,12.989 C41.8861304,13.2547143 42.5208735,13.3875714 43.2505138,13.3875714 L54.2233992,13.3875714 C55.0020593,13.3875714 55.5934387,13.609 55.9956522,14.0518571 C56.3972372,14.4947143 56.5989723,14.9945102 56.5989723,15.5512449 C56.5989723,16.1079796 56.3972372,16.6077755 55.9956522,17.0506327 C55.5934387,17.4934898 55.0020593,17.7149184 54.2233992,17.7149184 L43.2505138,17.7149184 C42.5208735,17.7149184 41.8861304,17.8477755 41.3462846,18.1128571 C40.8051818,18.3785714 40.3596047,18.7145102 40.007668,19.1194082 C39.6551028,19.5243061 39.3854941,19.9798163 39.1969565,20.4853061 C39.008419,20.9920612 38.9141502,21.4722449 38.9141502,21.9283878 C38.9141502,22.3832653 39.008419,22.8577551 39.1969565,23.3518571 C39.3854941,23.8446939 39.6551028,24.2945102 40.007668,24.6994082 C40.3596047,25.1043061 40.8051818,25.4396122 41.3462846,25.7053265 C41.8861304,25.9710408 42.5208735,26.103898 43.2505138,26.103898 L56.5612648,26.103898 C57.1388182,26.103898 57.6478696,26.3196327 58.088419,26.7492041 C58.5277115,27.1794082 58.7357312,27.6855306 58.7105929,28.2675714" id="Fill-2" fill="#FFFFFF" sketch:type="MSShapeGroup"></path>
            <g id="Group-6">
                <mask id="mask-8" sketch:name="Clip 4" fill="white">
                    <use xlink:href="#path-7"></use>
                </mask>
                <g id="Clip-4"></g>
                <path d="M88.7628498,28.6471633 C88.7628498,29.2292041 88.5491739,29.7283673 88.1218221,30.1459184 C87.6944704,30.564102 87.1917036,30.7728776 86.6135217,30.7728776 C85.8845099,30.7728776 85.2937589,30.4812245 84.8412688,29.8998163 L76.0177115,18.0179592 L67.1941542,29.8998163 C66.9930474,30.1522449 66.7542332,30.3610204 66.4777115,30.5255102 C66.2005613,30.69 65.8869605,30.7728776 65.5350237,30.7728776 C64.9562134,30.7728776 64.4289368,30.5577755 63.9513083,30.1275714 C63.4736798,29.6973673 63.2348656,29.1912449 63.2348656,28.6092041 C63.2348656,28.1530612 63.372498,27.7228571 63.6496482,27.3185918 L73.4158933,14.336551 L66.1006364,4.20144898 C65.8241146,3.79655102 65.6858538,3.379 65.6858538,2.94879592 C65.6858538,2.3667551 65.8806759,1.86063265 66.2703202,1.43042857 C66.6599644,1.00022449 67.143249,0.785122449 67.7220593,0.785122449 C68.0488577,0.785122449 68.363087,0.860408163 68.664747,1.01287755 C68.9664071,1.16408163 69.2177905,1.37981633 69.4188972,1.65818367 L76.0931265,10.8063469 L82.9181858,1.62022449 C83.1192925,1.34185714 83.3706759,1.13308163 83.672336,0.993265306 C83.973996,0.854714286 84.2882253,0.785122449 84.6150237,0.785122449 C85.1932055,0.785122449 85.670834,0.993265306 86.0479091,1.41144898 C86.4249842,1.829 86.6135217,2.32879592 86.6135217,2.91083673 C86.6135217,3.41695918 86.4752609,3.84716327 86.1987391,4.20144898 L78.6949447,14.3745102 L88.3103597,27.3185918 C88.6120198,27.6981837 88.7628498,28.1404082 88.7628498,28.6471633" id="Fill-3" fill="#FFFFFF" sketch:type="MSShapeGroup" mask="url(#mask-8)"></path>
                <path d="M120.172577,15.5892041 C120.172577,14.0708367 119.884115,12.6347143 119.305933,11.2808367 C118.726494,9.92695918 117.929609,8.74389796 116.910877,7.73165306 C115.893403,6.71940816 114.67985,5.91593878 113.272731,5.3212449 C111.863727,4.72655102 110.330917,4.42920408 108.672415,4.42920408 C107.012656,4.42920408 105.479846,4.72655102 104.072099,5.3212449 C102.663723,5.91593878 101.451427,6.71940816 100.432696,7.73165306 C99.4145929,8.74389796 98.6170791,9.92695918 98.0388972,11.2808367 C97.4594585,12.6347143 97.170996,14.0708367 97.170996,15.5892041 C97.170996,17.1075714 97.4594585,18.5436939 98.0388972,19.8975714 C98.6170791,21.251449 99.4145929,22.4345102 100.432696,23.4467551 C101.451427,24.4583673 102.663723,25.263102 104.072099,25.8571633 C105.479846,26.4518571 107.012656,26.7492041 108.672415,26.7492041 C110.330917,26.7492041 111.863727,26.4518571 113.272731,25.8571633 C114.67985,25.263102 115.893403,24.4583673 116.910877,23.4467551 C117.929609,22.4345102 118.726494,21.251449 119.305933,19.8975714 C119.884115,18.5436939 120.172577,17.1075714 120.172577,15.5892041 L120.172577,15.5892041 Z M124.434154,15.5892041 C124.434154,17.9173673 124.005545,20.024102 123.15147,21.9087755 C122.297395,23.7947143 121.147316,25.4149388 119.701233,26.7681837 C118.25515,28.1220612 116.584708,29.1665714 114.686763,29.8998163 C112.78819,30.6330612 110.783407,31 108.672415,31 C106.560166,31 104.555383,30.6330612 102.658067,29.8998163 C100.758866,29.1665714 99.0884229,28.1283878 97.6423399,26.7865306 C96.1962569,25.4459388 95.0461779,23.8257143 94.1921028,21.9283878 C93.3380277,20.0304286 92.9106759,17.9173673 92.9106759,15.5892041 C92.9106759,13.2610408 93.3380277,11.1479796 94.1921028,9.25002041 C95.0461779,7.35206122 96.1962569,5.73246939 97.6423399,4.39061224 C99.0884229,3.05002041 100.758866,2.01246939 102.658067,1.27859184 C104.555383,0.544714286 106.560166,0.17777551 108.672415,0.17777551 C110.783407,0.17777551 112.78819,0.544714286 114.686763,1.27859184 C116.584708,2.01246939 118.25515,3.05002041 119.701233,4.39061224 C121.147316,5.73246939 122.297395,7.35206122 123.15147,9.25002041 C124.005545,11.1479796 124.434154,13.2610408 124.434154,15.5892041 L124.434154,15.5892041 Z" id="Fill-5" fill="#FFFFFF" sketch:type="MSShapeGroup" mask="url(#mask-8)"></path>
            </g>
            <path d="M154.637241,9.25002041 C154.637241,8.41428571 154.492067,7.72532653 154.203605,7.1812449 C153.913885,6.63716327 153.537439,6.20695918 153.073008,5.89063265 C152.606692,5.57430612 152.078787,5.35287755 151.488664,5.22634694 C150.897913,5.09981633 150.301506,5.03591837 149.697557,5.03591837 L136.613051,5.03591837 L136.613051,13.7671633 L149.697557,13.7671633 C151.281273,13.7671633 152.499854,13.3749184 153.355814,12.5897959 C154.209889,11.8059388 154.637241,10.6918367 154.637241,9.25002041 L154.637241,9.25002041 Z M158.898818,9.25002041 C158.898818,10.8443061 158.659375,12.1855306 158.181747,13.2730612 C157.704119,14.3618571 157.120281,15.2349184 156.428976,15.8928776 C155.737043,16.5508367 155.001747,17.0310204 154.22183,17.3346939 C153.442542,17.6383673 152.751866,17.8161429 152.149174,17.8667551 L156.90032,27.6981837 C157.049893,28.0018571 157.126565,28.3188163 157.126565,28.6471633 C157.126565,29.2292041 156.912889,29.7283673 156.485538,30.1459184 C156.056929,30.564102 155.555419,30.7728776 154.977237,30.7728776 C154.548628,30.7728776 154.159613,30.659 153.808304,30.4312449 C153.456368,30.2028571 153.191158,29.9124694 153.015818,29.5581837 L147.510522,18.0179592 L136.613051,18.0179592 L136.613051,28.8363265 C136.613051,29.3430816 136.425142,29.7922653 136.047439,30.1845102 C135.670364,30.5761224 135.218502,30.7728776 134.690597,30.7728776 L134.312893,30.7728776 C133.809498,30.7728776 133.357636,30.5761224 132.955423,30.1845102 C132.553838,29.7922653 132.352731,29.3430816 132.352731,28.8363265 L132.352731,2.94879592 C132.352731,2.3667551 132.565779,1.86063265 132.99313,1.43042857 C133.420482,1.00022449 133.923877,0.785122449 134.502059,0.785122449 L149.697557,0.785122449 C150.853921,0.785122449 151.984518,0.943285714 153.091862,1.25961224 C154.19732,1.57593878 155.184628,2.07573469 156.051273,2.75836735 C156.918545,3.44163265 157.60985,4.31469388 158.125186,5.37818367 C158.64115,6.44104082 158.898818,7.73165306 158.898818,9.25002041 L158.898818,9.25002041 Z" id="Fill-7" fill="#FFFFFF" sketch:type="MSShapeGroup"></path>
        </g>
    </g>
</svg>