<svg xmlns="http://www.w3.org/2000/svg" width="228" height="80" viewBox="0 0 228 80">
    <g fill="#FFF" fill-rule="nonzero">
        <path d="M0 0h17.194v7.484h-9.22v7.384H15.7v7.483H7.974v12.573H0zM36.981 33.776a8.645 8.645 0 0 1-5.332 1.747c-6.778 0-10.965-4.79-10.965-11.825 0-6.535 5.283-11.824 13.108-11.824 3.736.001 7.409.964 10.665 2.794v20.256h-7.476v-1.148zm0-6.885v-7.234a7.393 7.393 0 0 0-3.239-.798c-3.788 0-5.084 2.544-5.084 5.189 0 2.943 1.894 4.49 4.336 4.49a5.912 5.912 0 0 0 3.987-1.647zM49.243 19.208c0-4.84 3.987-7.334 8.772-7.334 5.034 0 7.924 1.746 9.42 3.044l-2.792 5.288a11.78 11.78 0 0 0-6.18-2.095c-1.096 0-1.744.499-1.744.997 0 2.345 11.862.849 11.862 8.831 0 4.54-3.689 7.584-9.67 7.584-4.734 0-9.17-2.545-10.216-4.141l3.538-4.89a12.933 12.933 0 0 0 7.177 2.794c1.097 0 1.695-.35 1.695-.998 0-2.395-11.862-.898-11.862-9.08zM72.32 6.237h7.475v6.236h6.23v6.985h-6.23v6.585c0 1.347.449 2.495 1.446 2.495a5.152 5.152 0 0 0 3.339-1.297l2.243 5.737a11.733 11.733 0 0 1-7.526 2.545c-5.084 0-6.977-3.393-6.977-9.13V6.236zM100.33 19.208c0-4.84 3.987-7.334 8.772-7.334 5.034 0 7.925 1.746 9.42 3.044l-2.791 5.288a11.78 11.78 0 0 0-6.18-2.095c-1.097 0-1.745.499-1.745.997 0 2.345 11.862.849 11.862 8.831 0 4.54-3.688 7.584-9.669 7.584-4.734 0-9.17-2.545-10.217-4.141l3.539-4.89a12.933 12.933 0 0 0 7.177 2.794c1.096 0 1.694-.35 1.694-.998 0-2.395-11.861-.898-11.861-9.08zM123.407 6.237h7.476v6.236h6.23v6.985h-6.23v6.585c0 1.347.448 2.495 1.445 2.495a5.152 5.152 0 0 0 3.34-1.297l2.242 5.737a11.731 11.731 0 0 1-7.526 2.545c-5.083 0-6.977-3.393-6.977-9.13V6.236zM157.198 33.776a8.645 8.645 0 0 1-5.332 1.747c-6.778 0-10.965-4.79-10.965-11.825 0-6.535 5.283-11.824 13.108-11.824 3.736.001 7.409.964 10.665 2.794v20.256h-7.476v-1.148zm0-6.885v-7.234a7.393 7.393 0 0 0-3.239-.798c-3.788 0-5.083 2.544-5.083 5.189 0 2.943 1.893 4.49 4.336 4.49a5.912 5.912 0 0 0 3.986-1.647zM170.158 12.473h7.476v1.796c.897-1.297 2.093-2.195 4.635-2.195 1.844 0 2.741.3 3.489.848l-2.642 6.985a4.635 4.635 0 0 0-2.74-.848 2.843 2.843 0 0 0-2.742 1.596v14.269h-7.476V12.473zM188.002 6.237h7.475v6.236h6.23v6.985h-6.23v6.585c0 1.347.449 2.495 1.445 2.495a5.152 5.152 0 0 0 3.34-1.297l2.242 5.737a11.731 11.731 0 0 1-7.525 2.545c-5.084 0-6.977-3.393-6.977-9.13V6.236zM210.828 26.243c3.29 0 5.183 2.694 5.183 6.286a9.476 9.476 0 0 1-7.127 9.58l-2.043-3.443a6.343 6.343 0 0 0 2.89-1.946c.593-.563.95-1.33.998-2.146a2.165 2.165 0 0 1-1.546.35c-1.644 0-3.19-1.696-3.19-4.042 0-2.694 1.646-4.64 4.835-4.64z"/>
        <path d="M0 34.409h17.194v7.483h-9.22v6.137H15.7v7.484H7.974v6.336h9.719v7.484H0zM38.476 68.185a8.645 8.645 0 0 1-5.333 1.747c-6.777 0-10.964-4.79-10.964-11.825 0-6.536 5.283-11.824 13.107-11.824a21.79 21.79 0 0 1 10.666 2.793v20.257h-7.476v-1.148zm0-6.885v-7.235a7.399 7.399 0 0 0-3.24-.798c-3.787 0-5.083 2.545-5.083 5.19 0 2.943 1.894 4.49 4.336 4.49a5.912 5.912 0 0 0 3.987-1.647zM50.738 53.617c0-4.84 3.987-7.334 8.772-7.334 5.034 0 7.924 1.746 9.42 3.043l-2.791 5.289a11.784 11.784 0 0 0-6.18-2.096c-1.097 0-1.745.499-1.745.998 0 2.345 11.862.848 11.862 8.83 0 4.541-3.688 7.585-9.669 7.585-4.735 0-9.17-2.545-10.217-4.142l3.539-4.889a12.933 12.933 0 0 0 7.177 2.794c1.096 0 1.694-.35 1.694-.998 0-2.395-11.862-.898-11.862-9.08zM84.231 79.71c-5.731 0-8.223-1.995-9.669-2.993l3.34-5.887a9.998 9.998 0 0 0 5.83 1.896c2.842 0 4.038-1.248 4.038-3.044v-2.595a7.706 7.706 0 0 1-6.43 2.845c-3.787 0-7.525-2.745-7.525-8.931V46.88h7.476v12.523c0 1.746.697 3.542 2.89 3.542a4.548 4.548 0 0 0 3.589-2.045V46.88h7.476v21.953c0 7.883-5.383 10.876-11.015 10.876zM110 53.617c0-4.84 3.986-7.334 8.771-7.334 5.034 0 7.925 1.746 9.42 3.043l-2.791 5.289a11.784 11.784 0 0 0-6.18-2.096c-1.097 0-1.745.499-1.745.998 0 2.345 11.862.848 11.862 8.83 0 4.541-3.688 7.585-9.669 7.585-4.734 0-9.17-2.545-10.217-4.142l3.539-4.889a12.933 12.933 0 0 0 7.177 2.794c1.096 0 1.694-.35 1.694-.998 0-2.395-11.861-.898-11.861-9.08zM153.211 67.387a14.732 14.732 0 0 1-8.722 2.545c-7.376 0-12.16-4.74-12.16-11.825 0-6.536 4.784-11.824 12.16-11.824 5.781 0 10.865 4.19 10.865 10.576a12.1 12.1 0 0 1-.449 3.743h-14.852c.698 2.145 2.791 3.093 5.233 3.093 2.07.013 4.103-.54 5.882-1.597l2.043 5.289zm-13.407-11.774h8.074c0-1.548-1.246-3.094-3.638-3.094a4.154 4.154 0 0 0-4.436 3.094zM158.595 40.645h7.476v6.236h6.23v6.985h-6.23v6.586c0 1.347.448 2.494 1.445 2.494a5.152 5.152 0 0 0 3.34-1.297l2.242 5.738a11.733 11.733 0 0 1-7.526 2.545c-5.083 0-6.977-3.393-6.977-9.131V40.645zM198.267 69.333h-7.476v-2.246a7.706 7.706 0 0 1-6.429 2.845c-3.787 0-7.525-2.745-7.525-8.931V46.88h7.475v12.523c0 1.746.698 3.542 2.891 3.542a4.548 4.548 0 0 0 3.588-2.045V46.88h7.476v22.452zM203.75 46.881h7.477v1.696a8.929 8.929 0 0 1 6.23-2.294c6.03 0 10.017 4.839 10.017 11.474 0 6.836-4.785 12.175-12.06 12.175a11.465 11.465 0 0 1-4.187-.7v10.079h-7.476V46.88zm7.477 8.382v6.835a5.858 5.858 0 0 0 3.488.848c3.24 0 4.785-2.295 4.785-5.038 0-2.595-1.545-4.64-4.386-4.64a4.995 4.995 0 0 0-3.887 1.995z"/>
    </g>
</svg>
