<svg xmlns="http://www.w3.org/2000/svg" width="202" height="80" viewBox="0 0 202 80">
    <g fill="#339" fill-rule="nonzero">
        <path d="M0 0h17.194v7.483h-9.22v6.137H15.7v7.484H7.974v6.336h9.719v7.484H0zM21.481 12.472h7.476v1.747a8.133 8.133 0 0 1 5.532-2.146c5.184 0 9.12 2.445 9.12 9.48v13.37h-7.475V22.85c0-2.594-1.495-3.79-3.688-3.79a4.593 4.593 0 0 0-3.489 1.546v14.319h-7.476V12.472zM57.466 35.427c0 7.982-5.283 9.13-11.513 9.13v-7.485c2.492 0 3.539-.348 3.539-3.093V12.227h7.974v23.2zM73.763 11.874c7.676 0 12.46 5.088 12.46 11.824s-4.784 11.825-12.46 11.825c-7.675 0-12.46-5.09-12.46-11.825 0-6.736 4.785-11.824 12.46-11.824zm0 16.663c2.542 0 4.486-1.796 4.486-4.84 0-2.893-1.994-4.839-4.486-4.839-2.392 0-4.485 1.796-4.485 4.84 0 2.843 1.943 4.84 4.485 4.84zM99.133 45.3c-5.732 0-8.224-1.994-9.67-2.992l3.34-5.888a9.998 9.998 0 0 0 5.831 1.896c2.841 0 4.037-1.247 4.037-3.043v-2.595a7.706 7.706 0 0 1-6.429 2.844c-3.788 0-7.526-2.744-7.526-8.93v-14.12h7.476v12.523c0 1.746.698 3.542 2.89 3.542a4.548 4.548 0 0 0 3.589-2.045v-14.02h7.476v21.953c0 7.883-5.383 10.876-11.014 10.876zM129.436 33.776a8.645 8.645 0 0 1-5.333 1.747c-6.778 0-10.964-4.79-10.964-11.825 0-6.536 5.283-11.824 13.107-11.824a21.79 21.79 0 0 1 10.666 2.793v20.257h-7.476v-1.148zm0-6.885v-7.235a7.399 7.399 0 0 0-3.24-.798c-3.787 0-5.083 2.545-5.083 5.19 0 2.943 1.894 4.49 4.336 4.49a5.912 5.912 0 0 0 3.987-1.647zM141.15 0h7.476v13.071a10.567 10.567 0 0 1 4.933-1.197c6.63 0 10.616 4.839 10.616 11.474 0 7.385-4.884 12.175-13.107 12.175a23.321 23.321 0 0 1-9.918-2.395V0zm7.476 20.306v7.583c.858.453 1.82.677 2.79.648 2.692 0 4.785-1.646 4.785-4.74 0-3.542-2.293-4.939-4.436-4.939a4.346 4.346 0 0 0-3.14 1.448zM167.416 0h7.476v34.924h-7.476zM199.014 32.978a14.732 14.732 0 0 1-8.722 2.545c-7.376 0-12.16-4.74-12.16-11.825 0-6.536 4.784-11.824 12.16-11.824 5.781 0 10.865 4.19 10.865 10.576a12.1 12.1 0 0 1-.449 3.743h-14.852c.698 2.145 2.791 3.093 5.233 3.093 2.07.013 4.103-.54 5.881-1.597l2.044 5.289zm-13.407-11.774h8.074c0-1.548-1.246-3.094-3.638-3.094a4.154 4.154 0 0 0-4.436 3.094z"/>
        <path d="M29.455 54.913c0 10.678-6.778 15.018-14.253 15.018C6.23 69.931 0 64.791 0 54.564V34.409h7.974v18.459c0 5.438 1.644 9.58 7.227 9.58 4.834 0 6.279-3.543 6.279-9.13v-18.91h7.974v20.505zM34.241 53.616c0-4.84 3.987-7.333 8.772-7.333 5.034 0 7.924 1.745 9.42 3.042l-2.791 5.29a11.784 11.784 0 0 0-6.18-2.097c-1.097 0-1.745.5-1.745.998 0 2.346 11.862.849 11.862 8.831 0 4.54-3.688 7.584-9.669 7.584-4.735 0-9.17-2.544-10.217-4.141l3.539-4.89a12.933 12.933 0 0 0 7.177 2.794c1.096 0 1.694-.349 1.694-.998 0-2.394-11.862-.897-11.862-9.08zM71.622 68.185a8.645 8.645 0 0 1-5.333 1.746c-6.778 0-10.964-4.79-10.964-11.824 0-6.536 5.282-11.824 13.107-11.824a21.79 21.79 0 0 1 10.666 2.793v20.256h-7.476v-1.147zm0-6.885v-7.235a7.399 7.399 0 0 0-3.24-.798c-3.787 0-5.083 2.544-5.083 5.189 0 2.944 1.894 4.49 4.336 4.49a5.912 5.912 0 0 0 3.987-1.646zM93.851 79.71a15.66 15.66 0 0 1-10.316-3.542l3.588-5.738a13.27 13.27 0 0 0 7.226 2.295c3.14 0 4.037-1.247 4.037-3.043v-.8a11.406 11.406 0 0 1-4.485 1.05c-7.326 0-11.812-4.74-11.812-11.825 0-6.536 5.283-11.824 13.108-11.824a21.79 21.79 0 0 1 10.665 2.793v19.757c0 7.883-5.382 10.876-12.01 10.876zm4.535-18.061v-7.584a7.399 7.399 0 0 0-3.239-.798c-3.788 0-5.084 2.544-5.084 5.189a4.558 4.558 0 0 0 4.835 4.49 5.058 5.058 0 0 0 3.488-1.297zM129.737 67.387a14.732 14.732 0 0 1-8.722 2.544c-7.376 0-12.16-4.74-12.16-11.824 0-6.536 4.784-11.824 12.16-11.824 5.781 0 10.865 4.19 10.865 10.576a12.1 12.1 0 0 1-.449 3.742h-14.852c.698 2.145 2.791 3.094 5.233 3.094 2.07.013 4.103-.54 5.881-1.597l2.044 5.289zM116.33 55.612h8.074c0-1.547-1.246-3.094-3.638-3.094a4.154 4.154 0 0 0-4.436 3.094z"/>
    </g>
</svg>
