<?xml version="1.0" encoding="UTF-8" standalone="no"?>
<svg width="51px" height="55px" viewBox="0 0 51 55" version="1.1" xmlns="http://www.w3.org/2000/svg" xmlns:xlink="http://www.w3.org/1999/xlink" xmlns:sketch="http://www.bohemiancoding.com/sketch/ns">
    <!-- Generator: Sketch 3.3.2 (12043) - http://www.bohemiancoding.com/sketch -->
    <title>Slice 1</title>
    <desc>Created with Sketch.</desc>
    <defs></defs>
    <g id="Page-1" stroke="none" stroke-width="1" fill="none" fill-rule="evenodd" sketch:type="MSPage">
        <g id="developer_icon" sketch:type="MSLayerGroup" transform="translate(6.000000, 4.000000)">
            <path d="M38.411,34.152 C40.905,30.679 42.375,26.417 42.375,21.813 C42.375,10.111 32.889,0.625 21.187,0.625 C9.486,0.625 0,10.111 0,21.813 C0,26.81 1.729,31.402 4.624,35.024" id="Stroke-1" stroke="#97D3D6" stroke-width="2" stroke-linecap="round" stroke-linejoin="round" sketch:type="MSShapeGroup"></path>
            <path d="M13.195,24.234 C13.607,25.265 14.077,26.003 14.571,26.778 C14.711,26.998 14.854,27.221 14.995,27.455 C15.491,28.268 16.554,29.339 16.554,29.339 C16.554,29.339 18.071,29.871 18.096,28.992 C18.103,28.734 17.979,28.49 17.768,28.344 C17.246,27.982 16.78,27.447 16.299,26.659 C16.151,26.417 16.004,26.185 15.86,25.959 C15.33,25.127 14.873,24.407 14.484,23.328 C14.383,23.047 14.09,22.849 13.792,22.822 C13.72,22.817 13.517,22.696 13.408,22.5 C12.638,21.085 12.308,18.923 12.451,18.481 C12.471,18.469 12.558,18.44 12.742,18.442 C12.96,18.46 13.158,18.368 13.308,18.217 C13.455,18.066 13.535,17.862 13.528,17.651 C13.366,13.27 14.979,10.915 16.361,9.71 C16.614,9.488 16.693,9.128 16.556,8.82 C16.546,8.8 16.536,8.779 16.525,8.761 C17.177,8.322 18.271,8.352 18.284,8.354 L18.326,7.592 L18.955,7.159 C18.905,7.044 19.007,6.765 19.151,6.51 C19.584,6.872 20.163,7.131 20.705,7.28 C22.274,7.716 23.412,8.164 24.118,8.474 C27.374,9.764 29.146,13.109 28.978,17.653 C28.97,17.857 29.044,18.058 29.185,18.207 C29.326,18.355 29.521,18.441 29.726,18.445 C29.866,18.448 29.938,18.477 29.935,18.463 C30.099,18.929 29.769,21.094 28.997,22.508 C28.889,22.707 28.69,22.831 28.614,22.841 C28.336,22.88 28.101,23.068 28.003,23.333 C27.608,24.4 27.128,25.152 26.619,25.949 C26.465,26.19 26.31,26.435 26.152,26.693 C25.689,27.454 25.268,27.967 24.826,28.308 C24.639,28.454 24.528,28.679 24.53,28.918 C24.534,29.612 26.064,29.262 26.064,29.262 C26.541,28.826 26.99,28.253 27.456,27.488 C27.607,27.239 27.758,27.005 27.907,26.771 C28.385,26.023 28.876,25.254 29.299,24.214 C29.72,24.024 30.101,23.674 30.337,23.239 C31.228,21.608 31.74,18.989 31.374,17.955 C31.228,17.537 30.928,17.231 30.516,17.063 C30.507,12.226 28.356,8.51 24.707,7.064 C23.982,6.746 22.771,6.268 21.113,5.809 C20.385,5.606 20.034,5.276 19.998,5.215 C19.964,5.011 19.85,4.828 19.68,4.71 C19.51,4.592 19.297,4.548 19.096,4.59 C18.428,4.723 17.845,5.615 17.615,6.184 C17.52,6.42 17.46,6.65 17.435,6.871 C16.424,7.014 15.01,7.5 14.617,8.926 C14.572,9.055 14.559,9.193 14.58,9.327 C13.256,10.808 11.994,13.218 11.989,17.022 C11.525,17.179 11.19,17.497 11.032,17.948 C10.665,18.982 11.179,21.599 12.067,23.23 C12.322,23.695 12.74,24.059 13.195,24.234" id="Fill-3" fill="#2C97C8" sketch:type="MSShapeGroup"></path>
            <path d="M11.375,16 L14.75,18.125 L11.375,16 Z M20.5,18 C20.5,16.619 19.213,15.5 17.625,15.5 C16.037,15.5 14.75,16.619 14.75,18 C14.75,19.381 16.037,20.5 17.625,20.5 C19.213,20.5 20.5,19.381 20.5,18 L20.5,18 Z M27.75,18 C27.75,16.619 26.538,15.5 25.042,15.5 C23.546,15.5 22.333,16.619 22.333,18 C22.333,19.381 23.546,20.5 25.042,20.5 C26.538,20.5 27.75,19.381 27.75,18 L27.75,18 Z M30.625,15.875 L27.75,18 L30.625,15.875 Z" id="Stroke-4" stroke="#2C97C8" stroke-width="2" stroke-linecap="round" stroke-linejoin="round" sketch:type="MSShapeGroup"></path>
            <path d="M39.424,40.724 C38.953,39.177 36.521,37.31 33.988,35.766 L33.995,37.574 C36.125,38.967 37.713,40.348 37.963,41.168 C38.614,43.313 38.647,43.623 38.647,44.2 C38.647,44.551 38.647,44.645 37.811,44.645 C37.622,44.645 37.424,44.638 37.219,44.63 C36.981,44.621 36.735,44.613 36.488,44.613 L34.021,44.613 L34.026,46.141 L36.488,46.141 C36.718,46.141 36.944,46.148 37.164,46.156 C37.389,46.164 37.605,46.172 37.811,46.172 C38.396,46.172 40.176,46.172 40.176,44.2 C40.176,43.399 40.102,42.953 39.424,40.724" id="Fill-5" fill="#2C97C8" sketch:type="MSShapeGroup"></path>
            <path d="M9.02,44.613 L5.938,44.613 C5.754,44.613 5.57,44.61 5.391,44.613 C5.227,44.616 5.066,44.613 4.911,44.613 L4.906,44.613 C4.696,44.613 4.154,44.618 3.918,44.494 C3.87,44.47 3.793,44.436 3.78,44.173 C3.843,43.89 4.068,42.879 4.52,41.138 C4.776,40.146 6.683,38.707 8.994,37.363 L8.988,35.613 C6.24,37.124 3.483,39.043 3.04,40.756 C2.494,42.864 2.276,43.899 2.268,43.941 C2.258,43.993 2.252,44.046 2.252,44.099 C2.252,45.136 2.772,45.626 3.209,45.854 C3.853,46.19 4.623,46.162 5.419,46.147 C5.589,46.145 5.764,46.141 5.938,46.141 L9.026,46.141 L9.02,44.613" id="Fill-6" fill="#2C97C8" sketch:type="MSShapeGroup"></path>
            <path d="M9.551,29.63 L9.619,48.541 L33.365,48.454 L33.299,29.543 L9.551,29.63 L9.551,29.63 Z M9.037,50 C8.486,50 8.039,49.577 8.037,49.026 L7.964,29.039 C7.963,28.773 8.067,28.523 8.254,28.336 C8.441,28.147 8.695,28.066 8.96,28.065 L33.96,28 L33.964,28 C34.228,28 34.481,28.082 34.668,28.268 C34.856,28.455 34.963,28.697 34.964,28.963 L35.036,48.956 C35.038,49.509 34.592,49.933 34.04,49.935 L9.04,50 L9.037,50 L9.037,50 Z" id="Fill-7" fill="#2C97C8" sketch:type="MSShapeGroup"></path>
            <path d="M22.826,37.956 C22.593,37.683 23.334,36.528 23.334,36.528 C23.334,36.528 22.405,36.071 21.857,36.071 C20.411,36.071 19.238,37.244 19.238,38.69 C19.238,40.137 20.411,41.31 21.857,41.31 C23.303,41.31 24.476,40.137 24.476,38.69" id="Fill-8" fill="#FFFFFF" sketch:type="MSShapeGroup"></path>
            <path d="M22.826,37.956 C22.593,37.683 23.334,36.528 23.334,36.528 C23.334,36.528 22.405,36.071 21.857,36.071 C20.411,36.071 19.238,37.244 19.238,38.69 C19.238,40.137 20.411,41.31 21.857,41.31 C23.303,41.31 24.476,40.137 24.476,38.69" id="Stroke-9" stroke="#2C97C8" stroke-width="2" stroke-linecap="round" stroke-linejoin="round" sketch:type="MSShapeGroup"></path>
            <path d="M12,32 L12,47" id="Fill-11" fill="#FFFFFF" sketch:type="MSShapeGroup"></path>
            <path d="M12,32 L12,47" id="Stroke-12" stroke="#97D3D6" stroke-width="2" stroke-linecap="round" stroke-linejoin="round" sketch:type="MSShapeGroup"></path>
            <path d="M18.125,17.875 C18.125,17.323 17.677,16.875 17.125,16.875 C16.573,16.875 16.125,17.323 16.125,17.875 C16.125,18.427 16.573,18.875 17.125,18.875 C17.677,18.875 18.125,18.427 18.125,17.875" id="Fill-14" fill="#97D3D6" sketch:type="MSShapeGroup"></path>
            <path d="M26.125,17.875 C26.125,17.323 25.678,16.875 25.125,16.875 C24.572,16.875 24.125,17.323 24.125,17.875 C24.125,18.427 24.572,18.875 25.125,18.875 C25.678,18.875 26.125,18.427 26.125,17.875" id="Fill-15" fill="#97D3D6" sketch:type="MSShapeGroup"></path>
            <path d="M16.688,10.763 C16.688,10.763 18.092,12.591 20.812,13.237" id="Stroke-16" stroke="#2C97C8" stroke-width="1.5" stroke-linecap="round" stroke-linejoin="round" sketch:type="MSShapeGroup"></path>
            <path d="M20.57,9.984 C20.57,9.984 22.157,11.656 24.93,12.016" id="Fill-17" fill="#FFFFFF" sketch:type="MSShapeGroup"></path>
            <path d="M20.57,9.984 C20.57,9.984 22.157,11.656 24.93,12.016 M4.213,24.357 C4.458,25.894 4.909,27.363 5.537,28.734 M4.167,19.255 C4.057,20.039 4,20.84 4,21.655 M37.548,17.489 C37.189,16.064 36.651,14.711 35.959,13.454 C35.04,11.788 33.852,10.29 32.452,9.023 C32.137,8.738 31.812,8.465 31.476,8.204" id="Stroke-18" stroke="#97D3D6" stroke-width="2" stroke-linecap="round" stroke-linejoin="round" sketch:type="MSShapeGroup"></path>
            <path d="M21,22 L21,24" id="Fill-20" fill="#FFFFFF" sketch:type="MSShapeGroup"></path>
            <path d="M21,22 L21,24" id="Stroke-21" stroke="#97D3D6" stroke-width="2" stroke-linecap="round" stroke-linejoin="round" sketch:type="MSShapeGroup"></path>
            <path d="M19.875,26.25 C19.875,26.25 23.125,27.375 24.125,25.5" id="Stroke-22" stroke="#2C97C8" stroke-width="1.5" stroke-linecap="round" stroke-linejoin="round" sketch:type="MSShapeGroup"></path>
        </g>
    </g>
</svg>