<?xml version="1.0" encoding="UTF-8" standalone="no"?>
<svg width="48px" height="57px" viewBox="0 0 48 57" version="1.1" xmlns="http://www.w3.org/2000/svg" xmlns:xlink="http://www.w3.org/1999/xlink" xmlns:sketch="http://www.bohemiancoding.com/sketch/ns">
    <!-- Generator: Sketch 3.3.2 (12043) - http://www.bohemiancoding.com/sketch -->
    <title>Slice 1</title>
    <desc>Created with Sketch.</desc>
    <defs></defs>
    <g id="Page-1" stroke="none" stroke-width="1" fill="none" fill-rule="evenodd" sketch:type="MSPage">
        <g id="easy_icon" sketch:type="MSLayerGroup" transform="translate(3.000000, 1.000000)">
            <path d="M21.36,10.33 C9.565,10.33 0,19.894 0,31.693 C0,41.132 6.121,49.138 14.61,51.964 C15.678,52.159 16.068,51.5 16.068,50.934 C16.068,50.427 16.05,49.083 16.039,47.301 C10.097,48.592 8.843,44.437 8.843,44.437 C7.872,41.969 6.471,41.312 6.471,41.312 C4.532,39.986 6.618,40.014 6.618,40.014 C8.762,40.165 9.89,42.215 9.89,42.215 C11.796,45.479 14.89,44.536 16.107,43.989 C16.301,42.609 16.853,41.668 17.463,41.134 C12.72,40.595 7.733,38.763 7.733,30.575 C7.733,28.243 8.565,26.336 9.932,24.844 C9.712,24.304 8.979,22.132 10.141,19.19 C10.141,19.19 11.935,18.616 16.016,21.38 C17.719,20.907 19.547,20.669 21.364,20.662 C23.178,20.669 25.005,20.907 26.712,21.38 C30.79,18.616 32.58,19.19 32.58,19.19 C33.746,22.132 33.013,24.304 32.793,24.844 C34.162,26.336 34.989,28.243 34.989,30.575 C34.989,38.782 29.994,40.589 25.234,41.117 C26.002,41.776 26.685,43.081 26.685,45.073 C26.685,47.93 26.659,50.233 26.659,50.934 C26.659,51.505 27.044,52.17 28.128,51.961 C36.608,49.131 42.725,41.129 42.725,31.693 C42.725,19.894 33.159,10.33 21.36,10.33 L21.36,10.33 Z M17.972,36.473 C17.972,36.473 18.447,38.492 21.352,38.492 C24.26,38.492 24.753,36.559 24.753,36.559 L17.972,36.473 Z M14.423,29.738 C14.423,29.738 14.792,28.083 16.528,27.768 C18.599,27.393 19.393,28.988 19.393,28.988 L14.423,29.738 Z M23.299,29.05 C23.299,29.05 23.961,27.534 25.712,27.691 C27.8,27.877 28.282,29.644 28.282,29.644 L23.299,29.05 Z" id="Stroke-1" stroke="#2C97C8" stroke-width="2" stroke-linecap="round" stroke-linejoin="round" sketch:type="MSShapeGroup"></path>
            <path d="M11.798,24.286 L11.798,21.178 L14.298,22.703 L11.798,24.286" id="Fill-3" fill="#97D3D6" sketch:type="MSShapeGroup"></path>
            <path d="M28.424,22.578 L30.809,23.978 L31.132,21.178 L28.424,22.578" id="Fill-4" fill="#97D3D6" sketch:type="MSShapeGroup"></path>
            <path d="M22.925,33.952 C22.925,33.089 22.225,32.391 21.362,32.391 C20.499,32.391 19.8,33.089 19.8,33.952 C19.8,34.815 20.499,35.515 21.362,35.515 C22.225,35.515 22.925,34.815 22.925,33.952" id="Fill-5" fill="#97D3D6" sketch:type="MSShapeGroup"></path>
            <path d="M28.186,16.05 C26.096,15.141 23.787,14.637 21.362,14.637 C18.937,14.637 16.627,15.141 14.537,16.051 M30.269,46.406 C35.201,43.398 38.494,37.968 38.494,31.768 C38.494,28.783 37.73,25.976 36.389,23.533 M6.616,23.042 C5.1,25.599 4.23,28.581 4.23,31.768 C4.23,33.037 4.368,34.274 4.63,35.465 M21.362,6.119 L21.362,0.619 M10.132,8.95 L7.299,5.119 M33.382,8.95 L36.215,5.119" id="Stroke-6" stroke="#97D3D6" stroke-width="2" stroke-linecap="round" stroke-linejoin="round" sketch:type="MSShapeGroup"></path>
        </g>
    </g>
</svg>