<?xml version="1.0" encoding="UTF-8" standalone="no"?>
<svg width="44px" height="54px" viewBox="0 0 44 54" version="1.1" xmlns="http://www.w3.org/2000/svg" xmlns:xlink="http://www.w3.org/1999/xlink" xmlns:sketch="http://www.bohemiancoding.com/sketch/ns">
    <!-- Generator: Sketch 3.3.2 (12043) - http://www.bohemiancoding.com/sketch -->
    <title>Slice 1</title>
    <desc>Created with Sketch.</desc>
    <defs>
        <path id="path-1" d="M0.06,0.05 L44,0.05 L44,53.94 L0.06,53.94"></path>
    </defs>
    <g id="Page-1" stroke="none" stroke-width="1" fill="none" fill-rule="evenodd" sketch:type="MSPage">
        <g id="fast_icon" sketch:type="MSLayerGroup">
            <path d="M39.407,28.186 C37.871,21.322 32.338,15.968 25.379,14.695 M25.96,49.306 C32.463,47.888 37.626,42.885 39.276,36.473 M4.927,35.808 C6.377,42.517 11.643,47.806 18.338,49.292 M18.453,14.8 C11.893,16.21 6.687,21.265 5.059,27.741" id="Stroke-1" stroke="#97D3D6" stroke-width="2" stroke-linecap="round" sketch:type="MSShapeGroup"></path>
            <path d="M35,32.167 C35,25.079 29.254,19.333 22.167,19.333 C15.079,19.333 9.333,25.079 9.333,32.167 C9.333,39.255 15.079,45 22.167,45 C29.254,45 35,39.255 35,32.167" id="Fill-3" fill="#97D3D6" sketch:type="MSShapeGroup"></path>
            <g id="Group-8">
                <mask id="mask-2" sketch:name="Clip 5" fill="white">
                    <use xlink:href="#path-1"></use>
                </mask>
                <g id="Clip-5"></g>
                <path d="M22,35 C20.346,35 19,33.654 19,32 C19,30.346 20.346,29 22,29 C23.654,29 25,30.346 25,32 C25,33.654 23.654,35 22,35 M23,27.101 L23,16 C23,15.448 22.552,15 22,15 C21.448,15 21,15.448 21,16 L21,27.101 C18.721,27.566 17,29.585 17,32 C17,34.757 19.243,37 22,37 C24.757,37 27,34.757 27,32 C27,29.585 25.279,27.566 23,27.101" id="Fill-4" fill="#2C97C8" sketch:type="MSShapeGroup" mask="url(#mask-2)"></path>
                <path d="M22,52 C10.972,52 2,43.028 2,32 C2,20.972 10.972,12 22,12 C33.028,12 42,20.972 42,32 C42,43.028 33.028,52 22,52 M35.707,14.707 L38.293,12.121 C38.683,11.731 39.317,11.731 39.707,12.121 L40.879,13.293 C41.269,13.683 41.269,14.317 40.879,14.707 L38.321,17.265 C37.498,16.354 36.598,15.517 35.636,14.754 C35.658,14.736 35.686,14.728 35.707,14.707 M39.581,18.791 C39.622,18.761 39.67,18.744 39.707,18.707 L42.293,16.121 C43.463,14.952 43.463,13.048 42.293,11.879 L41.121,10.707 C39.951,9.537 38.049,9.537 36.879,10.707 L34.293,13.293 C34.196,13.39 34.123,13.503 34.074,13.623 C30.605,11.336 26.456,10 22,10 C9.869,10 0,19.869 0,32 C0,44.131 9.869,54 22,54 C34.131,54 44,44.131 44,32 C44,27.047 42.354,22.472 39.581,18.791" id="Fill-6" fill="#2C97C8" sketch:type="MSShapeGroup" mask="url(#mask-2)"></path>
                <path d="M17,4.002 C17.001,3.356 17.594,2.586 18.18,2.45 C19.433,2.185 20.718,2.05 22,2.05 C23.282,2.05 24.567,2.185 25.802,2.446 C26.406,2.586 26.999,3.356 27,4 L27,5.002 C27.001,5.529 26.539,5.984 25.988,6 L18.021,6 C17.467,5.988 16.999,5.531 17,5 L17,4.002 L17,4.002 Z M18,8 L26.021,8 C27.666,7.965 29.003,6.619 29,5 L29,3.998 C28.997,2.418 27.765,0.848 26.235,0.494 C23.456,-0.096 20.562,-0.1 17.747,0.498 C16.235,0.848 15.003,2.418 15,4 L15,4.998 C14.997,6.618 16.333,7.965 18,8 L18,8 Z" id="Fill-7" fill="#2C97C8" sketch:type="MSShapeGroup" mask="url(#mask-2)"></path>
            </g>
            <path d="M7,31 L5,31 C4.448,31 4,31.448 4,32 C4,32.552 4.448,33 5,33 L7,33 C7.552,33 8,32.552 8,32 C8,31.448 7.552,31 7,31" id="Fill-9" fill="#2C97C8" sketch:type="MSShapeGroup"></path>
            <path d="M39,31 L37,31 C36.448,31 36,31.448 36,32 C36,32.552 36.448,33 37,33 L39,33 C39.552,33 40,32.552 40,32 C40,31.448 39.552,31 39,31" id="Fill-10" fill="#2C97C8" sketch:type="MSShapeGroup"></path>
            <path d="M22,46 C21.448,46 21,46.448 21,47 L21,49 C21,49.552 21.448,50 22,50 C22.552,50 23,49.552 23,49 L23,47 C23,46.448 22.552,46 22,46" id="Fill-11" fill="#2C97C8" sketch:type="MSShapeGroup"></path>
            <path d="M23.625,31.915 C23.625,31.018 22.897,30.29 22,30.29 C21.103,30.29 20.375,31.018 20.375,31.915 C20.375,32.811 21.103,33.54 22,33.54 C22.897,33.54 23.625,32.811 23.625,31.915" id="Fill-12" fill="#FFFFFF" sketch:type="MSShapeGroup"></path>
        </g>
    </g>
</svg>