<?xml version="1.0" encoding="UTF-8" standalone="no"?>
<svg width="34px" height="42px" viewBox="0 0 34 42" version="1.1" xmlns="http://www.w3.org/2000/svg" xmlns:xlink="http://www.w3.org/1999/xlink" xmlns:sketch="http://www.bohemiancoding.com/sketch/ns">
    <!-- Generator: Sketch 3.3.2 (12043) - http://www.bohemiancoding.com/sketch -->
    <title>Slice 1</title>
    <desc>Created with Sketch.</desc>
    <defs>
        <path id="path-1" d="M0.06,0.807 L33.565,0.807 L33.565,41.94 L0.06,41.94 L0.06,0.807 Z"></path>
    </defs>
    <g id="Page-1" stroke="none" stroke-width="1" fill="none" fill-rule="evenodd" sketch:type="MSPage">
        <g id="features_icon" sketch:type="MSLayerGroup">
            <g id="Group-3">
                <mask id="mask-2" sketch:name="Clip 2" fill="white">
                    <use xlink:href="#path-1"></use>
                </mask>
                <g id="Clip-2"></g>
                <path d="M32.039,38.185 C32.039,39.448 31.012,40.475 29.751,40.475 L3.814,40.475 C2.552,40.475 1.526,39.448 1.526,38.185 L1.526,9.961 C1.526,8.699 2.552,7.673 3.814,7.673 L9.917,7.673 C9.917,8.935 10.943,9.961 12.205,9.961 L22.122,9.961 C23.384,9.961 24.411,8.935 24.411,7.673 L29.751,7.673 C31.012,7.673 32.039,8.699 32.039,9.961 L32.039,38.185 L32.039,38.185 Z M11.442,6.91 C11.442,6.444 11.693,6.147 11.824,6.147 C12.77,6.147 13.81,5.332 14.243,4.25 L14.635,3.271 C14.831,2.78 15.491,2.333 16.02,2.333 L18.308,2.333 C18.836,2.333 19.496,2.78 19.692,3.27 L20.084,4.251 C20.135,4.378 20.196,4.502 20.263,4.621 L19.071,4.621 C18.649,4.621 18.308,4.962 18.308,5.384 C18.308,5.806 18.649,6.147 19.071,6.147 L22.122,6.147 C22.168,6.147 22.208,6.128 22.252,6.121 C22.336,6.133 22.42,6.147 22.504,6.147 C22.635,6.147 22.885,6.444 22.885,6.91 L22.885,7.673 C22.885,8.094 22.543,8.435 22.122,8.435 L12.205,8.435 C11.784,8.435 11.442,8.094 11.442,7.673 L11.442,6.91 L11.442,6.91 Z M29.751,6.147 L24.411,6.147 C24.371,6.147 24.337,6.163 24.3,6.169 C24.041,5.272 23.338,4.621 22.504,4.621 C22.251,4.621 21.718,4.227 21.501,3.684 L21.109,2.703 C20.683,1.64 19.452,0.807 18.308,0.807 L16.02,0.807 C14.875,0.807 13.645,1.64 13.218,2.704 L12.827,3.683 C12.609,4.227 12.076,4.621 11.824,4.621 C10.99,4.621 10.286,5.272 10.028,6.169 C9.991,6.163 9.956,6.147 9.917,6.147 L3.814,6.147 C1.711,6.147 0,7.858 0,9.961 L0,38.185 C0,40.289 1.711,42 3.814,42 L29.751,42 C31.854,42 33.565,40.289 33.565,38.185 L33.565,9.961 C33.565,7.858 31.854,6.147 29.751,6.147 L29.751,6.147 Z" id="Fill-1" fill="#2C97C8" sketch:type="MSShapeGroup" mask="url(#mask-2)"></path>
            </g>
            <path d="M15.257,19.878 C14.835,19.878 14.494,20.219 14.494,20.641 L14.494,22.166 L8.391,22.166 L8.391,16.064 L12.968,16.064 C13.39,16.064 13.731,15.723 13.731,15.301 C13.731,14.879 13.39,14.538 12.968,14.538 L7.629,14.538 C7.207,14.538 6.866,14.879 6.866,15.301 L6.866,22.929 C6.866,23.351 7.207,23.691 7.629,23.691 L15.257,23.691 C15.679,23.691 16.02,23.351 16.02,22.929 L16.02,20.641 C16.02,20.219 15.679,19.878 15.257,19.878" id="Fill-4" fill="#2C97C8" sketch:type="MSShapeGroup"></path>
            <path d="M16.969,14.044 L12.546,19.152 L10.457,17.074 C10.159,16.776 9.676,16.8 9.377,17.098 C9.08,17.396 9.08,17.926 9.377,18.224 L12.047,20.989 C12.19,21.132 12.385,21.403 12.586,21.403 C12.596,21.403 12.604,21.403 12.615,20.641 C12.826,20.641 13.024,20.728 13.164,20.569 L18.122,15.039 C18.397,14.72 18.363,14.241 18.046,13.964 C17.727,13.689 17.247,13.726 16.969,14.044" id="Fill-5" fill="#2C97C8" sketch:type="MSShapeGroup"></path>
            <path d="M25.937,19.115 L21.359,19.115 C20.937,19.115 20.597,19.456 20.597,19.878 C20.597,20.299 20.937,20.641 21.359,20.641 L25.937,20.641 C26.358,20.641 26.699,20.299 26.699,19.878 C26.699,19.456 26.358,19.115 25.937,19.115" id="Fill-6" fill="#2C97C8" sketch:type="MSShapeGroup"></path>
            <path d="M8.391,29.031 L14.494,29.031 L14.494,35.133 L8.391,35.133 L8.391,29.031 Z M15.257,27.506 L7.628,27.506 C7.207,27.506 6.866,27.847 6.866,28.269 L6.866,35.897 C6.866,36.319 7.207,36.66 7.628,36.66 L15.257,36.66 C15.678,36.66 16.02,36.319 16.02,35.897 L16.02,28.269 C16.02,27.847 15.678,27.506 15.257,27.506 L15.257,27.506 Z" id="Fill-7" fill="#2C97C8" sketch:type="MSShapeGroup"></path>
            <path d="M25.937,31.32 L21.359,31.32 C20.937,31.32 20.597,31.661 20.597,32.083 C20.597,32.504 20.937,32.847 21.359,32.847 L25.937,32.847 C26.358,32.847 26.699,32.504 26.699,32.083 C26.699,31.661 26.358,31.32 25.937,31.32" id="Fill-8" fill="#2C97C8" sketch:type="MSShapeGroup"></path>
            <path d="M9.154,30.083 L13.731,30.083 L13.731,34.083 L9.154,34.083 L9.154,30.083 Z" id="Fill-9" fill="#97D3D6" sketch:type="MSShapeGroup"></path>
            <path d="M4.481,11.583 L4.481,37.66 M29.981,11.583 L29.981,37.66" id="Stroke-10" stroke="#97D3D6" stroke-width="2" sketch:type="MSShapeGroup"></path>
        </g>
    </g>
</svg>