<?xml version="1.0" encoding="UTF-8" standalone="no"?>
<svg width="45px" height="45px" viewBox="0 0 45 45" version="1.1" xmlns="http://www.w3.org/2000/svg" xmlns:xlink="http://www.w3.org/1999/xlink" xmlns:sketch="http://www.bohemiancoding.com/sketch/ns">
    <!-- Generator: Sketch 3.3.2 (12043) - http://www.bohemiancoding.com/sketch -->
    <title>Slice 1</title>
    <desc>Created with Sketch.</desc>
    <defs>
        <path id="path-1" d="M0.06,0.25 L44.75,0.25 L44.75,45 L0.06,45"></path>
    </defs>
    <g id="Page-1" stroke="none" stroke-width="1" fill="none" fill-rule="evenodd" sketch:type="MSPage">
        <g id="monthly_icon" sketch:type="MSLayerGroup">
            <g id="Group-3">
                <mask id="mask-2" sketch:name="Clip 2" fill="white">
                    <use xlink:href="#path-1"></use>
                </mask>
                <g id="Clip-2"></g>
                <path d="M40.606,43.343 L4.143,43.343 C2.772,43.343 1.657,42.228 1.657,40.856 L1.657,16.824 L43.092,16.824 L43.092,40.856 C43.092,42.228 41.977,43.343 40.606,43.343 M4.143,6.051 L9.944,6.051 L9.944,7.708 C9.944,9.08 11.059,10.195 12.43,10.195 L14.916,10.195 C15.374,10.195 15.745,9.824 15.745,9.366 C15.745,8.909 15.374,8.537 14.916,8.537 L12.43,8.537 C11.973,8.537 11.601,8.166 11.601,7.708 L11.601,2.737 C11.601,2.28 11.973,1.908 12.43,1.908 L13.259,1.908 C13.716,1.908 14.087,2.28 14.087,2.737 L14.087,4.394 C13.63,4.394 13.259,4.765 13.259,5.223 C13.259,5.68 13.63,6.051 14.087,6.051 L29.004,6.051 L29.004,7.708 C29.004,9.08 30.119,10.195 31.49,10.195 L33.976,10.195 C34.434,10.195 34.805,9.824 34.805,9.366 C34.805,8.909 34.434,8.537 33.976,8.537 L31.49,8.537 C31.033,8.537 30.662,8.166 30.662,7.708 L30.662,2.737 C30.662,2.28 31.033,1.908 31.49,1.908 L32.319,1.908 C32.776,1.908 33.148,2.28 33.148,2.737 L33.148,4.394 C32.69,4.394 32.319,4.765 32.319,5.223 C32.319,5.68 32.69,6.051 33.148,6.051 L40.606,6.051 C41.977,6.051 43.092,7.166 43.092,8.537 L43.092,15.167 L1.657,15.167 L1.657,8.537 C1.657,7.166 2.772,6.051 4.143,6.051 M40.606,4.394 L34.805,4.394 L34.805,2.737 C34.805,1.366 33.69,0.25 32.319,0.25 L31.49,0.25 C30.119,0.25 29.004,1.366 29.004,2.737 L29.004,4.394 L15.745,4.394 L15.745,2.737 C15.745,1.366 14.63,0.25 13.259,0.25 L12.43,0.25 C11.059,0.25 9.944,1.366 9.944,2.737 L9.944,4.394 L4.143,4.394 C1.858,4.394 0,6.252 0,8.537 L0,40.856 C0,43.141 1.858,45 4.143,45 L40.606,45 C42.891,45 44.75,43.141 44.75,40.856 L44.75,8.537 C44.75,6.252 42.891,4.394 40.606,4.394" id="Fill-1" fill="#2C97C8" sketch:type="MSShapeGroup" mask="url(#mask-2)"></path>
            </g>
            <path d="M23.456,32.958 L23.456,38.156 C25.112,37.949 26.032,37.075 26.032,35.534 C26.032,34.063 24.905,33.418 23.456,32.958 M21.755,30.359 L21.755,25.736 C20.19,25.897 19.11,26.656 19.11,28.289 C19.11,29.439 20.259,29.945 21.755,30.359 M16.303,36.432 C16.303,35.787 16.741,35.305 17.407,35.305 C17.821,35.305 18.143,35.488 18.419,35.925 C19.225,37.26 20.098,37.995 21.755,38.18 L21.755,32.498 C19.386,31.9 16.902,31.187 16.902,28.289 C16.902,25.392 19.155,23.92 21.755,23.689 L21.755,23.092 C21.755,22.448 21.984,22.057 22.605,22.057 C23.25,22.057 23.456,22.448 23.456,23.092 L23.456,23.735 C25.25,23.942 26.515,24.747 27.366,26.15 C27.573,26.495 27.666,26.817 27.666,27.094 C27.666,27.829 27.136,28.244 26.539,28.244 C26.125,28.244 25.779,28.036 25.549,27.576 C25.067,26.564 24.399,26.013 23.456,25.806 L23.456,30.843 C25.802,31.51 28.24,32.451 28.24,35.488 C28.24,38.34 25.986,39.904 23.456,40.181 L23.456,40.802 C23.456,41.444 23.25,41.835 22.605,41.835 C21.984,41.835 21.755,41.444 21.755,40.802 L21.755,40.181 C19.593,39.996 17.775,39.122 16.58,37.26 C16.395,36.96 16.303,36.685 16.303,36.432" id="Fill-4" fill="#2C97C8" sketch:type="MSShapeGroup"></path>
            <path d="M4.811,20.057 L11.624,20.057 M19.292,20.057 L26.105,20.057 M31.811,20.057 L38.624,20.057 M31.968,24.617 L38.781,24.617 M31.968,34.16 L38.781,34.16 M31.968,39.16 L38.781,39.16 M31.811,29.243 L38.624,29.243 M4.811,24.617 L11.624,24.617 M4.811,29.243 L11.624,29.243 M5.145,39.16 L11.957,39.16 M4.811,34.16 L11.624,34.16" id="Stroke-5" stroke="#97D3D6" stroke-width="2" stroke-linecap="round" stroke-linejoin="round" sketch:type="MSShapeGroup"></path>
            <path d="M4.021,10.785 L40.522,10.785 L40.522,13.535 L4.021,13.535 L4.021,10.785 Z" id="Fill-7" fill="#97D3D6" sketch:type="MSShapeGroup"></path>
        </g>
    </g>
</svg>