<svg xmlns="http://www.w3.org/2000/svg" width="187" height="70" viewBox="0 0 187 70">
    <g fill="#339" fill-rule="nonzero">
        <path d="M0 0h20.723v7.427H14.31v27.23H6.414V7.428H0zM25.113 0h7.401v13.913a8.242 8.242 0 0 1 5.477-1.931c5.132 0 9.03 2.624 9.03 9.605v13.07H39.62v-12.13a3.385 3.385 0 0 0-3.553-3.614 4.827 4.827 0 0 0-3.553 1.436v14.309h-7.4V0zM71.394 32.727a14.558 14.558 0 0 1-8.634 2.525c-7.303 0-12.04-4.703-12.04-11.734 0-6.486 4.737-11.734 12.04-11.734 5.723 0 10.756 4.159 10.756 10.496a12.038 12.038 0 0 1-.444 3.714H58.368c.691 2.128 2.763 3.07 5.181 3.07a11.228 11.228 0 0 0 5.822-1.586l2.023 5.249zM58.121 21.042h7.994c0-1.535-1.234-3.07-3.602-3.07a4.113 4.113 0 0 0-4.392 3.07zM120.537 34.658h-7.401V22.082c0-1.931-.691-3.169-2.764-3.169a3.592 3.592 0 0 0-3.355 1.931v13.814h-7.401V22.032c0-1.881-.839-3.119-2.615-3.119a3.956 3.956 0 0 0-3.503 1.783v13.962h-7.401v-22.28h7.4v2.08a9.204 9.204 0 0 1 6.563-2.476c3.405 0 5.526 1.485 6.316 3.268a8.552 8.552 0 0 1 7.154-3.268c3.948 0 7.007 2.03 7.007 8.12v14.556zM135.742 11.784c7.598 0 12.335 5.05 12.335 11.734s-4.737 11.734-12.335 11.734c-7.599 0-12.336-5.05-12.336-11.734s4.737-11.734 12.336-11.734zm0 16.536c2.516 0 4.44-1.782 4.44-4.802 0-2.872-1.973-4.803-4.44-4.803-2.369 0-4.441 1.783-4.441 4.803 0 2.822 1.924 4.802 4.44 4.802zM150.113 19.062c0-4.803 3.948-7.278 8.685-7.278 4.983 0 7.845 1.732 9.325 3.02l-2.763 5.248a11.643 11.643 0 0 0-6.118-2.08c-1.086 0-1.727.496-1.727.99 0 2.328 11.743.843 11.743 8.764 0 4.506-3.651 7.526-9.572 7.526-4.688 0-9.079-2.525-10.115-4.11l3.503-4.852a12.785 12.785 0 0 0 7.105 2.773c1.086 0 1.678-.347 1.678-.99 0-2.377-11.744-.891-11.744-9.011zM171.892 6.189h7.401v6.189h6.168v6.931h-6.168v6.535c0 1.338.445 2.476 1.431 2.476a5.093 5.093 0 0 0 3.306-1.287l2.22 5.694a11.597 11.597 0 0 1-7.45 2.525c-5.033 0-6.908-3.367-6.908-9.06V6.188z"/>
        <path d="M6.425 34.147h7.894v27.23h9.622v7.427H6.425zM38.741 45.93c7.6 0 12.336 5.05 12.336 11.734S46.34 69.399 38.741 69.399c-7.598 0-12.335-5.05-12.335-11.735 0-6.684 4.737-11.734 12.335-11.734zm0 16.537c2.517 0 4.441-1.783 4.441-4.803 0-2.872-1.973-4.803-4.44-4.803-2.369 0-4.441 1.783-4.441 4.803 0 2.822 1.924 4.803 4.44 4.803zM82.31 68.804h-6.76l-3.948-10.298a14.558 14.558 0 0 1-.641-2.525c-.119.9-.351 1.782-.691 2.624l-3.948 10.2h-6.365l-7.105-22.281h7.944l2.714 10.2c.232.927.397 1.87.494 2.822.113-.961.328-1.907.641-2.822L68 46.524h6.612l3.454 10.15c.305.954.536 1.93.69 2.92.149-.989.297-2.03.543-3.019l2.418-10.051h7.45l-6.858 22.28zM120.3 65.437c-1.875 2.575-5.23 3.962-9.079 3.962-7.401 0-12.187-4.704-12.187-11.735a11.416 11.416 0 0 1 11.743-11.734c3.8 0 7.056 1.04 9.079 3.17l-3.405 5.841a6.23 6.23 0 0 0-4.736-2.08 4.665 4.665 0 0 0-4.787 4.803 4.84 4.84 0 0 0 4.885 4.803 6.63 6.63 0 0 0 5.033-2.476l3.454 5.446zM134.558 45.93c7.599 0 12.335 5.05 12.335 11.734s-4.736 11.735-12.335 11.735c-7.599 0-12.336-5.05-12.336-11.735 0-6.684 4.737-11.734 12.336-11.734zm0 16.537c2.516 0 4.44-1.783 4.44-4.803 0-2.872-1.973-4.803-4.44-4.803-2.368 0-4.44 1.783-4.44 4.803 0 2.822 1.924 4.803 4.44 4.803zM149.902 53.208c0-4.802 3.947-7.278 8.684-7.278 4.983 0 7.845 1.733 9.325 3.02l-2.763 5.249a11.647 11.647 0 0 0-6.118-2.08c-1.086 0-1.727.495-1.727.99 0 2.328 11.743.842 11.743 8.763 0 4.506-3.65 7.527-9.572 7.527-4.688 0-9.079-2.526-10.115-4.11l3.503-4.852a12.785 12.785 0 0 0 7.106 2.772c1.085 0 1.677-.346 1.677-.99 0-2.377-11.743-.891-11.743-9.01zM172.647 40.335h7.402v6.189h6.167v6.932h-6.167v6.535c0 1.337.444 2.476 1.43 2.476a5.093 5.093 0 0 0 3.306-1.287l2.22 5.693a11.597 11.597 0 0 1-7.45 2.526c-5.033 0-6.908-3.368-6.908-9.061V40.335z"/>
    </g>
</svg>
