<svg xmlns="http://www.w3.org/2000/svg" viewBox="0 0 138.35318 30"><defs><style>.a{fill-rule:evenodd;}</style></defs><title>logo-evrone</title><path class="a" d="M49.0173,8.48812h5.1188L47.30025,25.98274H42.82939L35.99353,8.48812h5.216L45.09721,20.1188ZM14.35206,0,0,30H4.17926L18.53133,0Zm19.9406,17.59179c0,.38877-.03237.84232-.06479,1.29588H22.14363a4.02742,4.02742,0,0,0,4.24406,3.40174,5.69068,5.69068,0,0,0,4.21169-1.78185l2.81855,2.49463a8.68506,8.68506,0,0,1-7.095,3.23973,8.68553,8.68553,0,0,1-9.07126-8.97409V17.203c0-4.95683,3.53128-9.03888,8.58533-9.03888C31.63608,8.16415,34.29266,12.66738,34.29266,17.59179Zm-4.79482-1.78185c-.29155-2.203-1.58747-3.69333-3.66087-3.69333-2.04107,0-3.36937,1.45788-3.75813,3.69333ZM62.31643,11.987V8.48812H57.392v17.365h4.92441V19.43844c0-4.14685,2.00865-6.12312,5.28076-6.12312h.25922V8.16415C64.9406,8.03456,63.32076,9.58966,62.31643,11.987Zm67.24085,5.60477c0,.38877-.03242.84232-.06484,1.29588H117.40825a4.02739,4.02739,0,0,0,4.24406,3.40174,5.69052,5.69052,0,0,0,4.21164-1.78185l2.81859,2.49463a9.17251,9.17251,0,0,1-16.16633-5.73436V17.203c0-4.95683,3.53133-9.03888,8.58533-9.03888C126.90069,8.16415,129.55728,12.66738,129.55728,17.59179Zm-4.79483-1.78185c-.29159-2.203-1.58747-3.69333-3.66091-3.69333-2.041,0-3.36932,1.45788-3.75813,3.69333Zm8.34235,4.85963v5.18354h5.24838V20.66957Zm-30.324-12.50542a6.14359,6.14359,0,0,0-5.08643,2.78617V8.48812H92.77v17.365H97.6944V16.16633c0-2.33262,1.19871-3.53132,3.07778-3.53132s2.98055,1.1987,2.98055,3.53132v9.68678h4.92442V14.61124C108.67715,10.62635,106.50649,8.16415,102.78083,8.16415ZM88.80129,17.13824V17.203a9.40367,9.40367,0,0,1-18.79045.0648V17.203a9.40367,9.40367,0,0,1,18.79045-.06479Zm-4.85957.06479a4.61373,4.61373,0,0,0-4.568-4.79482,4.44878,4.44878,0,0,0-4.50328,4.73V17.203a4.61376,4.61376,0,0,0,4.568,4.79483,4.4488,4.4488,0,0,0,4.50328-4.73Z"/></svg>