<svg xmlns="http://www.w3.org/2000/svg" viewBox="0 0 146.39996 29.70001"><defs><style>.a{fill:#000003;}</style></defs><title>logo-klops</title><path class="a" d="M139.6,24.6,138.2,5H104.7l1.5,19.80005v.8l6.7,4.1h33.5v-.8Zm-27.9-1.8h-3.6V19.6h3.6Zm10.9-9.9h-.2a8.85781,8.85781,0,0,0-2.3-.3,2.07156,2.07156,0,0,0-1.6,2v5h2.7v3.2H112.4V19.6h2v-7.8h-2V8.1h5.1l.1.7.3,2v-.1c.4-1.3,1.2-2.8,3-2.8A2.93431,2.93431,0,0,1,122.7,8.4Zm14,9.9h-5.5v-.1l-.3-1.69995a4.37467,4.37467,0,0,1-3.9,2c-3.1,0-3.8-2.6-3.8-4.5V8.2h5.7v3.7h-1.4v6.5c0,.7.30005,1.3,1.1,1.3s1.3-.8,1.4-1.9V8.2h6v3.7h-1.8v7.7h2.5ZM38.7,21.7h2.4v4.7H30.5V21.7h2.1v-11.9H30.3c0,1.4-.2,5-.5,8.1a14.30845,14.30845,0,0,1-2.7,7c-1.6,1.8-3.6,2.3-6.3,2.3A20.87367,20.87367,0,0,1,13.4,26l-2.6-8.1h-2v3.9h1.9v4.7H0v-4.7H2.3V5.2H0V.7L8.8,0V13.2h1l3.3-8.1h7.5v4.7H17.5l-1.6,4.1,2.6,7.7a20.08881,20.08881,0,0,0,2.5.1,1.966,1.966,0,0,0,2-1.2c.7-1.6,1.2-6.4,1.2-15.4H40.6v4.7H38.7Zm12.8-17c-7.3,0-9.8,5-9.8,11.1s2.5,11.1,9.8,11.1,9.8-5,9.8-11.1S58.8,4.7,51.5,4.7Zm0,17.2c-1.9,0-3.2-1.7-3.2-6.1S49.6,9.5,51.5,9.5s3.2,1.9,3.2,6.30005S53.4,21.9,51.5,21.9Zm48.8-.9.7,4.9a20.10768,20.10768,0,0,1-6.9,1c-7.3,0-10.1-5-10.1-11.1,0-6.2,2.8-11.1,8.1-11.1,2.8,0,4,.8,4.4,1.4h.1v-1h3.9v9.8H96.2c0-3.3-1-5.2-2.9-5.2s-2.9,1.9-2.9,6.1,2,5.8,5.1,5.8A15.17567,15.17567,0,0,0,100.3,21.00006Zm-19.2.6h2.4v4.7H74.6v-16.5H70.7V21.7h1.9v4.7H61.9V21.7h2.3v-11.9H62.3V5.1H83.1v4.7h-2Z"/></svg>