<svg xmlns="http://www.w3.org/2000/svg" viewBox="0 0 140.00001 22.6"><title>logo-starttrack</title><path d="M7.9,3.5c-2.4,0-3.3.7-3.3,2.8,0,2.8,2.4,2.6,6.1,3.1,2.8.4,5.4,1.4,5.4,5.9,0,5.1-2.4,7.3-8.2,7.3-6,0-7.9-2.7-7.9-6.2H4.3c.1,1.6.9,2.5,3.7,2.5,2.6,0,3.8-1,3.8-3.5s-3.4-2.6-5.9-2.9C3.2,12.2.3,10.9.3,6.4.2,2.2,3,0,7.9,0c4.3,0,7.2,1.5,7.6,5.9H11.2C11.1,4,10,3.5,7.9,3.5ZM29,11.1c-.3-4.2,2.2-5.9,6.6-5.9,4.8,0,6.9,2.2,6.9,6.6V22.3H39l-.4-2a6.0613,6.0613,0,0,1-4.8,2.2c-3,0-5.3-1.6-5.3-4.8,0-4,3.6-5.6,10-5.2,0-2.5-.5-3.8-2.8-3.8-1.9,0-2.6.6-2.5,2.4Zm3.5,6.3c0,1.1,1.1,1.5,2.5,1.5,2.5,0,3.2-1.7,3.4-3.4C34,15.1,32.5,16,32.5,17.4Zm22.1-8c-2.8-.4-5,.7-5,3.2v9.7H45.4V5.3h3.9l.2,1.8a5.47476,5.47476,0,0,1,5.1-1.9ZM79.4,3.7h-5V22.2H70.2V3.7h-5V.2H79.4Zm9.3,5.7c-2.8-.4-5,.7-5,3.2v9.7H79.5V5.3h3.9l.2,1.8a5.47474,5.47474,0,0,1,5.1-1.9Zm2.6,1.7c-.3-4.2,2.2-5.9,6.6-5.9,4.8,0,6.9,2.2,6.9,6.6V22.3h-3.5l-.4-2a6.0613,6.0613,0,0,1-4.8,2.2c-3,0-5.3-1.6-5.3-4.8,0-4,3.6-5.6,10-5.2,0-2.5-.5-3.8-2.8-3.8-1.9,0-2.6.6-2.5,2.4Zm3.5,6.3c0,1.1,1.1,1.5,2.5,1.5,2.5,0,3.2-1.7,3.4-3.4-4.4-.4-5.9.5-5.9,1.9Zm23.1-5.8c0-1.9-.8-2.9-2.9-2.9-2.4,0-3.1,1.2-3.1,3.3v3.7c0,2.1.6,3.3,2.8,3.3s3.1-.9,3.1-2.9h4.1c0,4.6-2.3,6.4-7.2,6.4s-7.2-2-7.2-6.7V12c0-4.6,2.4-6.8,7.3-6.8s7,1.8,7,6.4Zm17.3,10.7-5.1-7.4h-1.2v7.4h-4.3V.1h4.3V11.4H130l4.6-6h4.8L133.5,13l6.5,9.3ZM18,8.8V5.2h1.1V2.3l4.3-.4V5.2h3.1V8.8H23.4V16c0,1.9.3,3.1,3.2,2.8v3.5c-5.4.5-7.5-1.2-7.5-6.2V8.8Zm38.5,0V5.2h1.1V2.3l4.3-.4V5.2H65V8.8H61.9V16c0,1.9.3,3.1,3.2,2.8v3.5c-5.4.5-7.5-1.2-7.5-6.2V8.8Z"/></svg>