<svg xmlns="http://www.w3.org/2000/svg" width="410" height="226" viewBox="0 0 410 226">
    <g fill="#FFF" fill-rule="nonzero">
        <path d="M.41 17.68C.41 7.104 9.452 0 26.184 0L26.1 12.688c-8.113 0-12.169 1.776-12.169 5.16 0 7.952 16.225 9.728 16.225 24.278 0 12.267-10.901 19.118-28.394 19.118V48.556c8.62 0 14.873-1.016 14.873-5.33C16.635 36.543.41 33.498.41 17.68zM70.214 56.93a24.974 24.974 0 0 1-14.789 4.314c-12.508 0-20.62-8.035-20.62-20.047 0-11.083 8.112-20.05 20.62-20.05 9.802 0 18.422 7.107 18.422 17.935a20.49 20.49 0 0 1-.76 6.343H47.903c1.183 3.638 4.732 5.246 8.873 5.246a19.275 19.275 0 0 0 9.972-2.707l3.465 8.966zM47.48 36.967h13.69c0-2.623-2.112-5.245-6.169-5.245-4.225 0-6.337 1.86-7.52 5.245zM77.228 11.588h12.676v10.574h10.563v11.843H89.904v11.167c0 2.284.76 4.23 2.45 4.23a8.738 8.738 0 0 0 5.662-2.2l3.803 9.728a19.894 19.894 0 0 1-12.76 4.314c-8.62 0-11.83-5.752-11.83-15.48V11.588zM155.482 60.23h-12.675v-3.808a13.066 13.066 0 0 1-10.902 4.822c-6.422 0-12.76-4.652-12.76-15.142v-23.94h12.676v21.234c0 2.96 1.183 6.006 4.901 6.006a7.711 7.711 0 0 0 6.085-3.469v-23.77h12.675v38.066zM162.667 22.162h12.676v2.877c2.89-2.607 6.673-4 10.563-3.891 10.226 0 16.986 8.205 16.986 19.456 0 11.588-8.112 20.64-20.45 20.64-2.42.05-4.827-.351-7.099-1.184v17.087h-12.676V22.162zm12.676 14.213v11.589a9.94 9.94 0 0 0 5.916 1.438c5.493 0 8.112-3.892 8.112-8.544 0-4.4-2.62-7.868-7.436-7.868a8.468 8.468 0 0 0-6.592 3.385z"/>
        <path d="M1.68 60.936h12.675V71.51H24.92v11.843H14.355V94.52c0 2.284.76 4.23 2.451 4.23a8.738 8.738 0 0 0 5.662-2.2l3.803 9.728a19.894 19.894 0 0 1-12.76 4.314c-8.62 0-11.832-5.753-11.832-15.48V60.936zM31.342 50.363h12.676v23.77a14.137 14.137 0 0 1 9.38-3.299c8.789 0 15.465 4.483 15.465 16.411v22.332H56.187V88.852a5.792 5.792 0 0 0-6.084-6.175 8.272 8.272 0 0 0-6.085 2.453v24.447H31.342V50.363zM108.498 106.278a24.974 24.974 0 0 1-14.788 4.314c-12.508 0-20.62-8.036-20.62-20.048 0-11.082 8.112-20.048 20.62-20.048 9.802 0 18.422 7.106 18.422 17.934a20.49 20.49 0 0 1-.761 6.343H86.188c1.183 3.638 4.733 5.246 8.874 5.246a19.275 19.275 0 0 0 9.971-2.707l3.465 8.966zM85.766 86.315h13.69c0-2.623-2.113-5.245-6.17-5.245-4.225 0-6.337 1.86-7.52 5.245zM131.147 71.51h12.676v3.046c1.52-2.2 3.549-3.722 7.86-3.722 3.125 0 4.647.507 5.914 1.438l-4.479 11.842a7.861 7.861 0 0 0-4.647-1.437 4.822 4.822 0 0 0-4.648 2.707v24.193h-12.676V71.51zM162.922 71.51h12.675v38.067h-12.675zM201.712 127.173a26.555 26.555 0 0 1-17.494-6.006l6.085-9.728a22.501 22.501 0 0 0 12.253 3.89c5.324 0 6.846-2.114 6.846-5.16v-1.353a19.357 19.357 0 0 1-7.606 1.776c-12.423 0-20.029-8.036-20.029-20.048 0-11.082 8.958-20.049 22.226-20.049a36.937 36.937 0 0 1 18.084 4.737v33.5c0 13.365-9.126 18.44-20.365 18.44zm7.69-30.623V83.692a12.536 12.536 0 0 0-5.494-1.354c-6.422 0-8.62 4.314-8.62 8.798a7.729 7.729 0 0 0 8.198 7.613 8.577 8.577 0 0 0 5.916-2.199zM228.416 50.363h12.677v23.77a14.137 14.137 0 0 1 9.38-3.299c8.789 0 15.464 4.483 15.464 16.411v22.332h-12.675V88.852a5.792 5.792 0 0 0-6.085-6.175 8.272 8.272 0 0 0-6.084 2.453v24.447h-12.677V50.363zM273.122 60.936h12.676V71.51h10.563v11.843h-10.563V94.52c0 2.284.76 4.23 2.45 4.23a8.738 8.738 0 0 0 5.662-2.2l3.803 9.728a19.895 19.895 0 0 1-12.76 4.314c-8.62 0-11.83-5.753-11.83-15.48V60.936zM36.834 153.172c-3.211 4.4-8.958 6.768-15.549 6.768-12.676 0-20.874-8.036-20.874-20.048a19.528 19.528 0 0 1 20.113-20.049c6.507 0 12.085 1.777 15.55 5.414l-5.832 9.981a10.682 10.682 0 0 0-8.112-3.552 7.982 7.982 0 0 0-8.198 8.206 8.28 8.28 0 0 0 8.367 8.205 11.365 11.365 0 0 0 8.62-4.23l5.915 9.305zM60.411 119.843c13.014 0 21.127 8.63 21.127 20.05S73.425 159.94 60.41 159.94c-13.013 0-21.126-8.628-21.126-20.048 0-11.42 8.113-20.049 21.126-20.049zm0 28.254c4.31 0 7.606-3.046 7.606-8.205 0-4.907-3.38-8.206-7.606-8.206-4.056 0-7.605 3.046-7.605 8.206 0 4.822 3.296 8.205 7.605 8.205zM86.61 120.858h12.677v2.96a13.793 13.793 0 0 1 9.38-3.636c8.788 0 15.464 4.145 15.464 16.073v22.67h-12.675v-20.472c0-4.399-2.536-6.428-6.254-6.428a7.793 7.793 0 0 0-5.915 2.621v24.279H86.61v-38.067z"/>
        <path d="M131.315 109.328h12.676v10.575h10.563v11.842h-10.563v11.167c0 2.284.76 4.23 2.45 4.23a8.738 8.738 0 0 0 5.663-2.2l3.803 9.728a19.894 19.894 0 0 1-12.76 4.314c-8.62 0-11.832-5.752-11.832-15.48v-34.176zM162.922 120.858h12.675v38.067h-12.675zM183.88 120.858h12.676v2.96a13.793 13.793 0 0 1 9.38-3.636c8.789 0 15.464 4.145 15.464 16.073v22.67h-12.675v-20.472c0-4.399-2.536-6.428-6.254-6.428a7.793 7.793 0 0 0-5.915 2.621v24.279h-12.677v-38.067zM264.923 158.925h-12.676v-3.807a13.066 13.066 0 0 1-10.902 4.822c-6.422 0-12.76-4.653-12.76-15.142v-23.94h12.676v21.233c0 2.96 1.183 6.006 4.901 6.006a7.71 7.71 0 0 0 6.085-3.468v-23.77h12.676v38.066zM292.812 119.843c13.013 0 21.126 8.63 21.126 20.05s-8.113 20.047-21.126 20.047c-13.014 0-21.127-8.628-21.127-20.048 0-11.42 8.113-20.049 21.127-20.049zm0 28.254c4.31 0 7.605-3.046 7.605-8.205 0-4.907-3.38-8.206-7.605-8.206-4.057 0-7.606 3.046-7.606 8.206 0 4.822 3.296 8.205 7.606 8.205zM354.503 158.925h-12.676v-3.807a13.066 13.066 0 0 1-10.902 4.822c-6.422 0-12.76-4.653-12.76-15.142v-23.94h12.676v21.233c0 2.96 1.183 6.006 4.901 6.006a7.711 7.711 0 0 0 6.085-3.468v-23.77h12.676v38.066zM360.504 132.278c0-8.205 6.761-12.435 14.874-12.435 8.535 0 13.436 2.96 15.972 5.16l-4.733 8.967a19.981 19.981 0 0 0-10.48-3.552c-1.858 0-2.957.845-2.957 1.69 0 3.977 20.113 1.44 20.113 14.974 0 7.699-6.254 12.858-16.395 12.858-8.028 0-15.549-4.314-17.323-7.02l6-8.291a21.93 21.93 0 0 0 12.169 4.738c1.859 0 2.873-.594 2.873-1.693 0-4.06-20.113-1.522-20.113-15.396zM1.93 170.206h12.677v38.067H1.931zM21.198 170.206h12.677v2.96a13.793 13.793 0 0 1 9.38-3.636c8.788 0 15.464 4.144 15.464 16.072v22.67H46.044v-20.47c0-4.4-2.536-6.43-6.254-6.43a7.793 7.793 0 0 0-5.915 2.622v24.279H21.198v-38.067zM64.214 159.631h12.675v10.575h10.564v11.843H76.889v11.166c0 2.284.761 4.23 2.451 4.23a8.738 8.738 0 0 0 5.662-2.199l3.803 9.728a19.894 19.894 0 0 1-12.76 4.314c-8.62 0-11.831-5.753-11.831-15.48V159.63zM127.172 204.974a24.978 24.978 0 0 1-14.789 4.314c-12.506 0-20.619-8.036-20.619-20.048 0-11.083 8.113-20.049 20.619-20.049 9.803 0 18.423 7.106 18.423 17.934a20.49 20.49 0 0 1-.76 6.344h-25.184c1.183 3.637 4.733 5.245 8.873 5.245a19.274 19.274 0 0 0 9.972-2.707l3.465 8.967zM104.44 185.01h13.69c0-2.623-2.113-5.244-6.169-5.244-4.226 0-6.339 1.86-7.521 5.244zM155.398 225.868a26.555 26.555 0 0 1-17.493-6.006l6.085-9.728a22.501 22.501 0 0 0 12.253 3.892c5.324 0 6.845-2.115 6.845-5.161v-1.354a19.357 19.357 0 0 1-7.606 1.777c-12.422 0-20.028-8.036-20.028-20.048 0-11.083 8.958-20.049 22.226-20.049a36.937 36.937 0 0 1 18.084 4.737v33.5c0 13.365-9.127 18.44-20.366 18.44zm7.69-30.622v-12.859a12.536 12.536 0 0 0-5.493-1.353c-6.422 0-8.62 4.314-8.62 8.798a7.729 7.729 0 0 0 8.198 7.613 8.577 8.577 0 0 0 5.915-2.199zM184.639 170.206h12.676v3.046c1.521-2.2 3.55-3.722 7.86-3.722 3.126 0 4.647.507 5.915 1.437l-4.48 11.843a7.861 7.861 0 0 0-4.647-1.437 4.822 4.822 0 0 0-4.648 2.707v24.193H184.64v-38.067zM214.978 172.913a30.026 30.026 0 0 1 14.112-3.722c11.578 0 15.803 5.837 15.803 16.157v22.925h-10.986v-3.469c-1.859 2.623-5.83 3.977-9.972 3.977-6.845 0-12-4.315-12-12.012 0-8.63 6.17-12.606 13.69-12.606a13.181 13.181 0 0 1 7.437 2.115c.253-4.567-1.859-6.512-5.239-6.512a23.573 23.573 0 0 0-9.719 2.368l-3.126-9.221zm18.084 23.348v-2.368a7.953 7.953 0 0 0-4.817-1.27c-2.113 0-3.634 1.015-3.634 2.876 0 1.693 1.521 2.707 3.634 2.707a5.737 5.737 0 0 0 4.817-1.945z"/>
        <path d="M252.078 158.676h12.675v10.574h10.564v11.843h-10.564v11.167c0 2.284.761 4.23 2.451 4.23a8.738 8.738 0 0 0 5.662-2.2l3.803 9.728a19.895 19.895 0 0 1-12.76 4.314c-8.62 0-11.831-5.753-11.831-15.48v-34.176zM282.839 170.206h12.676v38.067H282.84zM322.81 169.191c13.015 0 21.128 8.63 21.128 20.05 0 11.419-8.113 20.047-21.127 20.047-13.015 0-21.127-8.628-21.127-20.048 0-11.42 8.112-20.049 21.127-20.049zm0 28.254c4.31 0 7.607-3.046 7.607-8.205 0-4.907-3.38-8.206-7.606-8.206-4.057 0-7.606 3.046-7.606 8.206 0 4.822 3.296 8.205 7.606 8.205zM349.01 170.206h12.676v2.96a13.793 13.793 0 0 1 9.38-3.636c8.789 0 15.465 4.144 15.465 16.072v22.67h-12.676v-20.47c0-4.4-2.536-6.43-6.254-6.43a7.793 7.793 0 0 0-5.915 2.622v24.279H349.01v-38.067zM401.658 192.2a8.096 8.096 0 0 1 7.944 7.952 8.257 8.257 0 0 1-7.944 8.629 8.392 8.392 0 0 1-8.62-8.629 8.262 8.262 0 0 1 8.62-7.952zm-7.099-43.142h13.521v36.375h-13.52v-36.375z"/>
    </g>
</svg>
