<svg xmlns="http://www.w3.org/2000/svg" width="280" height="154" viewBox="0 0 280 154">
    <g fill="#FFF" fill-rule="nonzero">
        <path d="M.959 12.024C.959 4.832 7.109 0 18.488 0l-.057 8.63c-5.518 0-8.276 1.207-8.276 3.509 0 5.408 11.035 6.616 11.035 16.511 0 8.343-7.415 13.002-19.312 13.002v-8.629c5.863 0 10.116-.69 10.116-3.625 0-4.545-11.035-6.616-11.035-17.374zM48.433 38.719a16.985 16.985 0 0 1-10.058 2.933c-8.507 0-14.024-5.465-14.024-13.634 0-7.537 5.517-13.635 14.024-13.635 6.666 0 12.529 4.832 12.529 12.197a13.935 13.935 0 0 1-.518 4.314H33.26c.804 2.474 3.218 3.568 6.034 3.568a13.11 13.11 0 0 0 6.782-1.841l2.357 6.098zM32.973 25.14h9.31c0-1.784-1.437-3.567-4.196-3.567-2.873 0-4.31 1.266-5.115 3.567zM53.203 7.881h8.621v7.192h7.184v8.054h-7.184v7.594c0 1.554.517 2.877 1.667 2.877a5.943 5.943 0 0 0 3.85-1.495l2.587 6.616a13.53 13.53 0 0 1-8.678 2.933c-5.863 0-8.047-3.912-8.047-10.528V7.881zM106.424 40.962h-8.62v-2.589a8.886 8.886 0 0 1-7.415 3.28c-4.368 0-8.678-3.165-8.678-10.299V15.073h8.62v14.44c0 2.014.806 4.085 3.334 4.085a5.244 5.244 0 0 0 4.139-2.359V15.073h8.62v25.89zM111.31 15.073h8.622v1.956a10.294 10.294 0 0 1 7.184-2.646c6.954 0 11.552 5.58 11.552 13.232 0 7.881-5.518 14.037-13.908 14.037a13.231 13.231 0 0 1-4.828-.805v11.621h-8.621V15.073zm8.622 9.666v7.882a6.76 6.76 0 0 0 4.023.977c3.736 0 5.517-2.646 5.517-5.81 0-2.992-1.781-5.351-5.057-5.351a5.76 5.76 0 0 0-4.483 2.302z"/>
        <path d="M1.822 41.443h8.621v7.191h7.184v8.055h-7.184v7.594c0 1.554.517 2.877 1.667 2.877a5.943 5.943 0 0 0 3.85-1.496l2.587 6.616a13.53 13.53 0 0 1-8.678 2.934c-5.863 0-8.047-3.912-8.047-10.528V41.443zM21.996 34.252h8.621v16.166a9.615 9.615 0 0 1 6.38-2.243c5.977 0 10.517 3.049 10.517 11.16v15.189h-8.62V60.429a3.939 3.939 0 0 0-4.139-4.2 5.626 5.626 0 0 0-4.138 1.669v16.626h-8.621V34.252zM74.47 72.28a16.985 16.985 0 0 1-10.058 2.934c-8.506 0-14.024-5.465-14.024-13.634 0-7.538 5.518-13.636 14.024-13.636 6.667 0 12.53 4.833 12.53 12.197a13.935 13.935 0 0 1-.518 4.314H59.297c.804 2.474 3.219 3.568 6.035 3.568a13.11 13.11 0 0 0 6.782-1.84l2.356 6.097zM59.01 58.703h9.31c0-1.784-1.436-3.567-4.195-3.567-2.874 0-4.31 1.265-5.115 3.567zM89.873 48.634h8.622v2.072c1.034-1.497 2.413-2.531 5.345-2.531 2.126 0 3.16.344 4.023.977l-3.047 8.054a5.346 5.346 0 0 0-3.16-.977 3.28 3.28 0 0 0-3.161 1.84v16.455h-8.622v-25.89zM111.484 48.634h8.62v25.89h-8.62zM137.865 86.49a18.06 18.06 0 0 1-11.897-4.084l4.138-6.616a15.303 15.303 0 0 0 8.333 2.646c3.621 0 4.656-1.438 4.656-3.51v-.92a13.164 13.164 0 0 1-5.173 1.208c-8.448 0-13.621-5.465-13.621-13.634 0-7.538 6.092-13.636 15.116-13.636a25.121 25.121 0 0 1 12.299 3.222v22.783c0 9.09-6.207 12.542-13.851 12.542zm5.23-20.826V56.92a8.526 8.526 0 0 0-3.736-.92c-4.368 0-5.863 2.933-5.863 5.983a5.256 5.256 0 0 0 5.576 5.178 5.833 5.833 0 0 0 4.023-1.496zM156.027 34.252h8.621v16.166a9.615 9.615 0 0 1 6.38-2.243c5.977 0 10.517 3.049 10.517 11.16v15.189h-8.62V60.429a3.939 3.939 0 0 0-4.139-4.2 5.626 5.626 0 0 0-4.138 1.669v16.626h-8.621V34.252zM186.431 41.443h8.621v7.191h7.185v8.055h-7.185v7.594c0 1.554.518 2.877 1.667 2.877a5.943 5.943 0 0 0 3.85-1.496l2.587 6.616a13.53 13.53 0 0 1-8.678 2.934c-5.863 0-8.047-3.912-8.047-10.528V41.443zM25.731 104.173c-2.184 2.992-6.092 4.603-10.575 4.603C6.535 108.776.96 103.31.96 95.14a13.281 13.281 0 0 1 13.679-13.635c4.425 0 8.218 1.208 10.575 3.682l-3.966 6.788a7.265 7.265 0 0 0-5.517-2.416 5.429 5.429 0 0 0-5.575 5.581 5.632 5.632 0 0 0 5.69 5.58 7.73 7.73 0 0 0 5.862-2.876l4.023 6.328zM41.766 81.506c8.85 0 14.368 5.869 14.368 13.635 0 7.767-5.517 13.635-14.368 13.635-8.85 0-14.368-5.868-14.368-13.635 0-7.766 5.518-13.635 14.368-13.635zm0 19.215c2.931 0 5.172-2.07 5.172-5.58 0-3.337-2.298-5.58-5.172-5.58-2.759 0-5.172 2.07-5.172 5.58 0 3.28 2.241 5.58 5.172 5.58zM59.584 82.196h8.621v2.013a9.38 9.38 0 0 1 6.38-2.473c5.977 0 10.517 2.819 10.517 10.931v15.419h-8.62V94.163c0-2.992-1.725-4.372-4.254-4.372a5.3 5.3 0 0 0-4.023 1.782v16.513h-8.62v-25.89z"/>
        <path d="M89.988 74.354h8.62v7.192h7.185V89.6H98.61v7.595c0 1.553.517 2.877 1.667 2.877a5.943 5.943 0 0 0 3.85-1.496l2.587 6.616a13.53 13.53 0 0 1-8.679 2.934c-5.862 0-8.046-3.913-8.046-10.528V74.354zM111.484 82.196h8.62v25.89h-8.62zM125.737 82.196h8.621v2.013a9.38 9.38 0 0 1 6.38-2.473c5.977 0 10.517 2.819 10.517 10.931v15.419h-8.62V94.163c0-2.992-1.725-4.372-4.254-4.372a5.3 5.3 0 0 0-4.023 1.782v16.513h-8.62v-25.89zM180.855 108.086h-8.62v-2.59a8.886 8.886 0 0 1-7.415 3.28c-4.368 0-8.678-3.165-8.678-10.298V82.196h8.62v14.44c0 2.014.805 4.085 3.334 4.085a5.243 5.243 0 0 0 4.138-2.358V82.196h8.621v25.89zM199.822 81.506c8.851 0 14.369 5.869 14.369 13.635 0 7.767-5.518 13.635-14.369 13.635-8.85 0-14.368-5.868-14.368-13.635 0-7.766 5.518-13.635 14.368-13.635zm0 19.215c2.931 0 5.173-2.07 5.173-5.58 0-3.337-2.3-5.58-5.173-5.58-2.758 0-5.172 2.07-5.172 5.58 0 3.28 2.241 5.58 5.172 5.58zM241.779 108.086h-8.621v-2.59a8.886 8.886 0 0 1-7.414 3.28c-4.368 0-8.679-3.165-8.679-10.298V82.196h8.621v14.44c0 2.014.805 4.085 3.334 4.085a5.244 5.244 0 0 0 4.138-2.358V82.196h8.62v25.89zM245.86 89.963c0-5.58 4.598-8.457 10.116-8.457 5.805 0 9.138 2.013 10.862 3.51l-3.218 6.098a13.59 13.59 0 0 0-7.127-2.416c-1.264 0-2.012.575-2.012 1.15 0 2.704 13.68.978 13.68 10.183 0 5.236-4.254 8.745-11.15 8.745-5.46 0-10.576-2.934-11.783-4.775l4.08-5.638a14.915 14.915 0 0 0 8.277 3.222c1.264 0 1.954-.404 1.954-1.151 0-2.762-13.678-1.036-13.678-10.471zM1.993 115.758h8.621v25.89h-8.62zM15.097 115.758h8.621v2.013a9.38 9.38 0 0 1 6.38-2.473c5.977 0 10.517 2.819 10.517 10.93v15.42h-8.62v-13.924c0-2.992-1.725-4.372-4.254-4.372a5.3 5.3 0 0 0-4.023 1.783v16.512h-8.62v-25.89zM44.352 108.566h8.62v7.192h7.185v8.054h-7.184v7.594c0 1.554.517 2.877 1.667 2.877a5.943 5.943 0 0 0 3.85-1.495l2.587 6.615a13.53 13.53 0 0 1-8.679 2.934c-5.862 0-8.046-3.912-8.046-10.528v-23.243zM87.17 139.403a16.988 16.988 0 0 1-10.058 2.934c-8.505 0-14.023-5.465-14.023-13.634 0-7.537 5.518-13.635 14.023-13.635 6.668 0 12.53 4.832 12.53 12.197a13.935 13.935 0 0 1-.518 4.314H71.997c.805 2.474 3.219 3.567 6.035 3.567a13.108 13.108 0 0 0 6.782-1.84l2.356 6.097zm-15.46-13.577h9.31c0-1.784-1.436-3.567-4.195-3.567-2.874 0-4.31 1.265-5.115 3.567zM106.367 153.614a18.06 18.06 0 0 1-11.897-4.085l4.138-6.616a15.303 15.303 0 0 0 8.334 2.647c3.62 0 4.655-1.439 4.655-3.51v-.92a13.164 13.164 0 0 1-5.173 1.207c-8.448 0-13.621-5.465-13.621-13.634 0-7.537 6.092-13.635 15.116-13.635a25.121 25.121 0 0 1 12.299 3.22v22.784c0 9.09-6.207 12.542-13.85 12.542zm5.23-20.826v-8.746a8.526 8.526 0 0 0-3.736-.92c-4.368 0-5.862 2.934-5.862 5.984a5.256 5.256 0 0 0 5.575 5.177 5.833 5.833 0 0 0 4.023-1.495zM126.254 115.758h8.62v2.071c1.035-1.496 2.415-2.531 5.346-2.531 2.126 0 3.161.345 4.023.978l-3.046 8.054a5.346 5.346 0 0 0-3.161-.978 3.28 3.28 0 0 0-3.161 1.841v16.454h-8.621v-25.89zM146.887 117.599a20.421 20.421 0 0 1 9.598-2.531c7.874 0 10.748 3.97 10.748 10.988v15.591h-7.472v-2.359c-1.264 1.784-3.965 2.705-6.782 2.705-4.655 0-8.161-2.935-8.161-8.17 0-5.868 4.196-8.573 9.31-8.573a8.965 8.965 0 0 1 5.059 1.439c.172-3.107-1.265-4.43-3.564-4.43a16.032 16.032 0 0 0-6.61 1.611l-2.126-6.271zm12.3 15.879v-1.61a5.41 5.41 0 0 0-3.277-.864c-1.437 0-2.47.69-2.47 1.956 0 1.15 1.033 1.84 2.47 1.84a3.902 3.902 0 0 0 3.277-1.322z"/>
        <path d="M172.12 107.916h8.62v7.192h7.184v8.054h-7.184v7.594c0 1.554.517 2.877 1.667 2.877a5.943 5.943 0 0 0 3.85-1.495l2.587 6.616a13.53 13.53 0 0 1-8.679 2.933c-5.862 0-8.046-3.912-8.046-10.528v-23.243zM193.04 115.758h8.621v25.89h-8.621zM220.225 115.068c8.851 0 14.368 5.868 14.368 13.635 0 7.767-5.517 13.634-14.368 13.634-8.851 0-14.369-5.867-14.369-13.634s5.518-13.635 14.369-13.635zm0 19.215c2.93 0 5.173-2.071 5.173-5.58 0-3.338-2.3-5.581-5.173-5.581-2.759 0-5.173 2.071-5.173 5.58 0 3.28 2.242 5.581 5.173 5.581zM238.043 115.758h8.621v2.013a9.38 9.38 0 0 1 6.38-2.473c5.977 0 10.517 2.819 10.517 10.93v15.42h-8.62v-13.924c0-2.992-1.725-4.372-4.254-4.372a5.3 5.3 0 0 0-4.023 1.783v16.512h-8.621v-25.89zM273.85 130.716a5.506 5.506 0 0 1 5.402 5.408 5.616 5.616 0 0 1-5.403 5.869 5.708 5.708 0 0 1-5.862-5.869 5.62 5.62 0 0 1 5.862-5.408zm-4.829-29.34h9.196v24.738h-9.196v-24.739z"/>
    </g>
</svg>
