<svg xmlns="http://www.w3.org/2000/svg" width="545" height="240" viewBox="0 0 545 240">
    <g fill="#FFF" fill-rule="nonzero">
        <path d="M70.72 46.852c0 24.394-15.489 34.312-32.571 34.312-20.5 0-34.735-11.741-34.735-35.11V0h18.221v42.178c0 12.425 3.759 21.887 16.514 21.887 11.046 0 14.349-8.093 14.349-20.861V0h18.221v46.852zM83.247 28.498h17.083v3.99a18.588 18.588 0 0 1 12.64-4.901c11.845 0 20.842 5.585 20.842 21.659v30.55h-17.083V52.21c0-5.928-3.417-8.664-8.427-8.664a10.502 10.502 0 0 0-7.972 3.534v32.716H83.247V28.498zM145.2 0h17.082v79.796H145.2zM174.012 28.498h17.082v51.298h-17.082zM284.024 79.796h-17.082V50.842c0-4.446-1.594-7.296-6.379-7.296a8.294 8.294 0 0 0-7.743 4.446v31.804h-17.083V50.728c0-4.332-1.937-7.182-6.036-7.182a9.135 9.135 0 0 0-8.085 4.104v32.146h-17.083V28.498h17.083v4.788a21.272 21.272 0 0 1 15.147-5.7c7.858 0 12.755 3.42 14.577 7.525 3.53-4.333 8.427-7.524 16.512-7.524 9.11 0 16.172 4.673 16.172 18.695v33.514zM296.323 28.498h17.083v51.298h-17.083zM325.706 14.25h17.081v14.248h14.236v15.96h-14.236v15.047c0 3.078 1.026 5.7 3.303 5.7a11.774 11.774 0 0 0 7.63-2.964l5.125 13.11a26.807 26.807 0 0 1-17.197 5.813c-11.616 0-15.942-7.752-15.942-20.861V14.25zM410.549 75.35c-5.352 3.99-12.64 5.814-19.93 5.814-16.855 0-27.788-10.83-27.788-27.017 0-14.933 10.933-27.016 27.788-27.016 13.21 0 24.827 9.576 24.827 24.167.107 2.886-.24 5.77-1.026 8.549h-33.937c1.595 4.902 6.378 7.068 11.959 7.068a25.975 25.975 0 0 0 13.438-3.648l4.669 12.084zm-30.636-26.902h18.45c0-3.534-2.846-7.068-8.313-7.068-5.695 0-8.541 2.508-10.137 7.068zM459.52 75.578a17.495 17.495 0 0 1-12.983 5.13c-14.577 0-23.688-10.373-23.688-25.876 0-16.302 11.502-27.701 28.244-27.701a19.47 19.47 0 0 1 8.427 1.596V0h17.083v79.796H459.52v-4.218zm0-14.59V45.255a15.147 15.147 0 0 0-7.63-2.166c-5.353 0-10.82 3.534-10.82 11.171 0 6.954 4.67 10.488 8.998 10.488a13.841 13.841 0 0 0 9.452-3.762zM3.987 107.867H21.07v3.876a20.399 20.399 0 0 1 14.235-5.244c13.78 0 22.891 11.058 22.891 26.22 0 15.616-10.933 27.813-27.56 27.813a26.227 26.227 0 0 1-9.566-1.596v23.027H3.987v-74.096zm17.083 19.151v15.618a13.39 13.39 0 0 0 7.972 1.937c7.402 0 10.933-5.243 10.933-11.513 0-5.928-3.53-10.602-10.022-10.602-3.303 0-6.036 1.369-8.883 4.56zM102.838 156.543a19.757 19.757 0 0 1-12.186 3.99c-15.488 0-25.054-10.944-25.054-27.017 0-14.933 12.072-27.017 29.951-27.017a49.775 49.775 0 0 1 24.372 6.384v46.282h-17.083v-2.622zm0-15.732v-16.529a16.898 16.898 0 0 0-7.403-1.824c-8.655 0-11.615 5.814-11.615 11.856 0 6.726 4.327 10.26 9.907 10.26a13.515 13.515 0 0 0 9.111-3.763zM130.74 107.867h17.083v4.104c2.05-2.964 4.783-5.016 10.591-5.016 4.214 0 6.264.684 7.972 1.938l-6.035 15.96a10.59 10.59 0 0 0-6.264-1.938 6.499 6.499 0 0 0-6.264 3.648v32.602H130.74v-51.298zM206.473 156.543a19.757 19.757 0 0 1-12.186 3.99c-15.488 0-25.054-10.944-25.054-27.017 0-14.933 12.072-27.017 29.951-27.017a49.772 49.772 0 0 1 24.371 6.384v46.282h-17.082v-2.622zm0-15.732v-16.529a16.898 16.898 0 0 0-7.402-1.824c-8.655 0-11.616 5.814-11.616 11.856 0 6.726 4.327 10.26 9.907 10.26a13.514 13.514 0 0 0 9.111-3.763z"/>
        <path d="M236.085 79.368h17.083v79.797h-17.083zM267.401 79.368h17.083v79.797H267.4zM340.742 154.72c-5.352 3.989-12.64 5.812-19.93 5.812-16.855 0-27.788-10.829-27.788-27.016 0-14.933 10.933-27.017 27.789-27.017 13.21 0 24.826 9.576 24.826 24.167.107 2.886-.239 5.771-1.026 8.55h-33.937c1.595 4.902 6.378 7.068 11.959 7.068a25.965 25.965 0 0 0 13.437-3.648l4.67 12.083zm-30.635-26.904h18.45c0-3.534-2.847-7.067-8.314-7.067-5.694 0-8.541 2.508-10.136 7.067zM354.18 79.368h17.084v79.797H354.18zM382.991 107.867h17.083v51.298h-17.083zM410.779 123.257c0-11.058 9.11-16.758 20.043-16.758 11.503 0 18.108 3.99 21.525 6.954l-6.378 12.084a26.92 26.92 0 0 0-14.12-4.788c-2.506 0-3.987 1.14-3.987 2.28 0 5.357 27.105 1.938 27.105 20.177 0 10.373-8.429 17.326-22.094 17.326-10.819 0-20.956-5.813-23.347-9.46l8.086-11.172c3.19 3.078 11.275 6.384 16.4 6.384 2.505 0 3.872-.799 3.872-2.28 0-5.472-27.105-2.052-27.105-20.747zM544.709 159.165h-17.083V130.21c0-4.447-1.594-7.296-6.378-7.296a8.294 8.294 0 0 0-7.744 4.445v31.805h-17.083v-29.069c0-4.332-1.936-7.181-6.036-7.181a9.135 9.135 0 0 0-8.084 4.104v32.146h-17.083v-51.298H482.3v4.788a21.272 21.272 0 0 1 15.146-5.7c7.858 0 12.755 3.42 14.577 7.524 3.53-4.332 8.428-7.524 16.512-7.524 9.111 0 16.173 4.674 16.173 18.695v33.515zM28.47 185.868c17.539 0 28.472 11.627 28.472 27.016 0 15.39-10.933 27.017-28.471 27.017S0 228.274 0 212.884c0-15.389 10.933-27.016 28.47-27.016zm0 38.074c5.81 0 10.25-4.104 10.25-11.058 0-6.611-4.555-11.057-10.25-11.057-5.466 0-10.248 4.104-10.248 11.057 0 6.498 4.44 11.058 10.249 11.058zM66.053 178.914c0-14.249 7.289-21.545 18.678-21.545 6.15 0 12.185 2.052 14.919 5.016l-5.694 12.995a8.753 8.753 0 0 0-6.15-2.052c-2.278 0-4.67 2.052-4.67 6.612v7.296h10.82v15.96h-10.82v35.337H66.053v-59.619zM113.884 158.737h17.083v29.867a24.15 24.15 0 0 1 11.274-2.736c15.147 0 24.257 11.057 24.257 26.219 0 16.87-11.16 27.814-29.95 27.814a53.308 53.308 0 0 1-22.664-5.471v-75.693zm17.083 46.396v17.327a12.865 12.865 0 0 0 6.377 1.482c6.15 0 10.933-3.762 10.933-10.83 0-8.093-5.239-11.285-10.136-11.285a9.939 9.939 0 0 0-7.174 3.306zM223.441 238.533h-17.083v-5.13c-2.505 3.193-6.947 6.498-14.691 6.498-8.655 0-17.196-6.27-17.196-20.404v-32.262h17.082v28.614c0 3.99 1.595 8.093 6.606 8.093 2.847 0 5.58-1.368 8.2-4.674v-32.033h17.082v51.298zM236.31 187.235h17.083v51.298H236.31z"/>
        <path d="M267.401 158.737h17.083v79.796H267.4zM329.695 234.315a17.495 17.495 0 0 1-12.983 5.13c-14.577 0-23.688-10.373-23.688-25.876 0-16.302 11.502-27.701 28.244-27.701a19.47 19.47 0 0 1 8.427 1.596v-28.727h17.083v79.796h-17.083v-4.218zm0-14.59v-15.732a15.147 15.147 0 0 0-7.63-2.166c-5.353 0-10.82 3.534-10.82 11.172 0 6.953 4.67 10.487 8.998 10.487a13.841 13.841 0 0 0 9.452-3.762zM356.001 202.625c0-11.058 9.111-16.757 20.044-16.757 11.502 0 18.107 3.99 21.525 6.954l-6.378 12.083a26.92 26.92 0 0 0-14.121-4.788c-2.506 0-3.987 1.14-3.987 2.28 0 5.358 27.106 1.938 27.106 20.177 0 10.374-8.43 17.327-22.095 17.327-10.818 0-20.955-5.813-23.346-9.461l8.086-11.172c3.189 3.078 11.275 6.384 16.4 6.384 2.505 0 3.872-.798 3.872-2.28 0-5.471-27.106-2.052-27.106-20.747zM416.93 216.875a10.911 10.911 0 0 1 10.706 10.715c0 6.041-4.328 11.628-10.706 11.628a11.31 11.31 0 0 1-11.616-11.628 11.136 11.136 0 0 1 11.616-10.715z"/>
    </g>
</svg>
