<svg xmlns="http://www.w3.org/2000/svg" width="273" height="120" viewBox="0 0 273 120">
    <g fill="#FFF" fill-rule="nonzero">
        <path d="M35.36 23.426c0 12.197-7.744 17.156-16.286 17.156-10.25 0-17.367-5.87-17.367-17.555V0h9.11v21.089c0 6.213 1.88 10.943 8.257 10.943 5.524 0 7.175-4.046 7.175-10.43V0h9.11v23.426zM41.623 14.25h8.542v1.994a9.294 9.294 0 0 1 6.32-2.45c5.923 0 10.42 2.792 10.42 10.829v15.275h-8.54V26.105c0-2.964-1.709-4.332-4.214-4.332a5.25 5.25 0 0 0-3.986 1.767v16.358h-8.542V14.25zM72.6 0h8.541v39.898H72.6zM87.006 14.25h8.541v25.648h-8.541zM142.012 39.898h-8.541V25.421c0-2.223-.797-3.648-3.19-3.648a4.147 4.147 0 0 0-3.871 2.223v15.902h-8.542V25.364c0-2.166-.968-3.59-3.018-3.59a4.567 4.567 0 0 0-4.042 2.051v16.073h-8.542V14.25h8.542v2.394a10.636 10.636 0 0 1 7.573-2.85c3.93 0 6.378 1.71 7.289 3.762 1.765-2.166 4.214-3.762 8.256-3.762 4.555 0 8.086 2.337 8.086 9.348v16.757zM148.161 14.25h8.542v25.648h-8.542zM162.853 7.125h8.54v7.124h7.119v7.98h-7.119v7.524c0 1.539.513 2.85 1.652 2.85a5.887 5.887 0 0 0 3.815-1.482l2.563 6.554a13.404 13.404 0 0 1-8.599 2.907c-5.808 0-7.971-3.876-7.971-10.43V7.124zM205.274 37.675c-2.676 1.995-6.32 2.907-9.964 2.907-8.428 0-13.895-5.415-13.895-13.508 0-7.467 5.467-13.509 13.895-13.509 6.605 0 12.413 4.788 12.413 12.084a13.813 13.813 0 0 1-.513 4.275h-16.969c.798 2.45 3.19 3.534 5.98 3.534a12.988 12.988 0 0 0 6.72-1.824l2.333 6.041zm-15.317-13.451h9.225c0-1.767-1.424-3.534-4.157-3.534-2.847 0-4.27 1.254-5.068 3.534zM229.76 37.79a8.747 8.747 0 0 1-6.492 2.564c-7.288 0-11.844-5.187-11.844-12.938 0-8.151 5.752-13.85 14.122-13.85a9.735 9.735 0 0 1 4.214.797V0h8.542v39.898h-8.542V37.79zm0-7.296v-7.866a7.574 7.574 0 0 0-3.815-1.083c-2.677 0-5.41 1.767-5.41 5.586 0 3.477 2.335 5.244 4.5 5.244a6.92 6.92 0 0 0 4.725-1.881zM1.993 53.933h8.542v1.939a10.2 10.2 0 0 1 7.118-2.622c6.89 0 11.445 5.528 11.445 13.11 0 7.808-5.466 13.906-13.78 13.906a13.114 13.114 0 0 1-4.783-.798v11.514H1.993V53.933zm8.542 9.576v7.809a6.695 6.695 0 0 0 3.986.969c3.701 0 5.466-2.622 5.466-5.757 0-2.964-1.765-5.3-5.01-5.3-1.652 0-3.019.683-4.442 2.28zM51.419 78.271a9.878 9.878 0 0 1-6.093 1.995c-7.744 0-12.527-5.472-12.527-13.508 0-7.467 6.036-13.508 14.976-13.508 4.268.001 8.464 1.1 12.185 3.192v23.14H51.42v-1.31zm0-7.865V62.14a8.45 8.45 0 0 0-3.701-.912c-4.328 0-5.808 2.907-5.808 5.928 0 3.363 2.163 5.13 4.954 5.13a6.758 6.758 0 0 0 4.555-1.881zM65.37 53.933h8.542v2.053c1.024-1.482 2.391-2.508 5.295-2.508 2.107 0 3.132.342 3.986.968l-3.018 7.98a5.295 5.295 0 0 0-3.132-.969 3.25 3.25 0 0 0-3.131 1.824v16.301H65.37V53.933zM103.237 78.271a9.878 9.878 0 0 1-6.093 1.995c-7.744 0-12.527-5.472-12.527-13.508 0-7.467 6.035-13.508 14.975-13.508 4.269.001 8.465 1.1 12.186 3.192v23.14h-8.541v-1.31zm0-7.865V62.14a8.449 8.449 0 0 0-3.701-.912c-4.328 0-5.809 2.907-5.809 5.928 0 3.363 2.164 5.13 4.954 5.13a6.757 6.757 0 0 0 4.556-1.881z"/>
        <path d="M118.042 39.684h8.542v39.898h-8.542zM133.7 39.684h8.542v39.898H133.7zM170.371 77.36c-2.676 1.994-6.32 2.906-9.965 2.906-8.428 0-13.894-5.414-13.894-13.508 0-7.467 5.466-13.508 13.894-13.508 6.605 0 12.414 4.788 12.414 12.083a13.813 13.813 0 0 1-.513 4.275h-16.969c.798 2.45 3.19 3.534 5.98 3.534a12.983 12.983 0 0 0 6.718-1.824l2.335 6.042zm-15.318-13.452h9.225c0-1.767-1.423-3.534-4.156-3.534-2.848 0-4.271 1.254-5.069 3.534zM177.09 39.684h8.542v39.898h-8.542zM191.496 53.933h8.541v25.65h-8.541zM205.39 61.628c0-5.529 4.555-8.378 10.021-8.378 5.751 0 9.054 1.994 10.763 3.477l-3.19 6.041a13.46 13.46 0 0 0-7.06-2.394c-1.253 0-1.993.57-1.993 1.14 0 2.68 13.552.97 13.552 10.089 0 5.187-4.214 8.663-11.047 8.663-5.409 0-10.477-2.906-11.673-4.73l4.043-5.586c1.595 1.539 5.638 3.192 8.2 3.192 1.253 0 1.936-.4 1.936-1.14 0-2.736-13.553-1.026-13.553-10.374zM272.354 79.582h-8.541V65.105c0-2.223-.797-3.648-3.19-3.648a4.147 4.147 0 0 0-3.871 2.223v15.902h-8.541V65.048c0-2.166-.969-3.59-3.018-3.59a4.567 4.567 0 0 0-4.043 2.051v16.073h-8.541V53.933h8.541v2.394a10.636 10.636 0 0 1 7.574-2.85c3.929 0 6.377 1.71 7.288 3.763 1.765-2.166 4.214-3.762 8.256-3.762 4.556 0 8.086 2.336 8.086 9.347v16.757zM14.235 92.934c8.77 0 14.236 5.814 14.236 13.508 0 7.695-5.467 13.508-14.236 13.508C5.466 119.95 0 114.137 0 106.442c0-7.694 5.466-13.508 14.235-13.508zm0 19.037c2.905 0 5.125-2.052 5.125-5.529 0-3.306-2.278-5.529-5.125-5.529-2.733 0-5.124 2.053-5.124 5.53 0 3.248 2.22 5.528 5.124 5.528zM33.027 89.457c0-7.124 3.644-10.772 9.338-10.772 3.075 0 6.093 1.026 7.46 2.507l-2.847 6.498a4.377 4.377 0 0 0-3.075-1.026c-1.14 0-2.335 1.026-2.335 3.306v3.648h5.41v7.98h-5.41v17.669h-8.541v-29.81zM56.942 79.369h8.541v14.933a12.075 12.075 0 0 1 5.638-1.368c7.573 0 12.128 5.529 12.128 13.11 0 8.435-5.58 13.906-14.975 13.906a26.654 26.654 0 0 1-11.332-2.735V79.369zm8.541 23.197v8.664c.982.518 2.08.773 3.189.741 3.075 0 5.466-1.881 5.466-5.415 0-4.047-2.619-5.643-5.068-5.643a4.97 4.97 0 0 0-3.587 1.653zM111.72 119.267h-8.54v-2.565c-1.254 1.596-3.474 3.248-7.347 3.248-4.327 0-8.598-3.134-8.598-10.202v-16.13h8.542v14.306c0 1.995.797 4.047 3.302 4.047 1.424 0 2.79-.684 4.1-2.337V93.618h8.542v25.649zM118.155 93.618h8.542v25.649h-8.542z"/>
        <path d="M133.7 79.369h8.542v39.898H133.7zM164.848 117.158a8.747 8.747 0 0 1-6.492 2.565c-7.289 0-11.844-5.187-11.844-12.939 0-8.15 5.751-13.85 14.122-13.85a9.735 9.735 0 0 1 4.214.798V79.369h8.541v39.898h-8.541v-2.11zm0-7.296v-7.866a7.574 7.574 0 0 0-3.815-1.083c-2.677 0-5.41 1.768-5.41 5.586 0 3.477 2.335 5.244 4.499 5.244a6.92 6.92 0 0 0 4.726-1.88zM178 101.313c0-5.53 4.556-8.38 10.023-8.38 5.75 0 9.053 1.996 10.762 3.478l-3.19 6.042a13.46 13.46 0 0 0-7.06-2.394c-1.252 0-1.993.57-1.993 1.14 0 2.678 13.553.969 13.553 10.088 0 5.187-4.215 8.663-11.047 8.663-5.41 0-10.478-2.906-11.674-4.73l4.043-5.586c1.595 1.539 5.638 3.192 8.2 3.192 1.253 0 1.936-.4 1.936-1.14 0-2.736-13.552-1.026-13.552-10.373zM208.465 108.437a5.456 5.456 0 0 1 5.353 5.358c0 3.02-2.164 5.814-5.353 5.814a5.655 5.655 0 0 1-5.808-5.814 5.568 5.568 0 0 1 5.808-5.358z"/>
    </g>
</svg>
