<svg width="40" height="32" viewBox="0 0 40 32" xmlns="http://www.w3.org/2000/svg"><path d="M11.371 19.255H10.1l-.182-1.126a1.813 1.813 0 0 0-.617-.4c-.255-.109-.545-.145-.909-.145-.726 0-1.308.254-1.707.8-.363.544-.545 1.235-.545 2.07v.29c0 .873.182 1.563.581 2.108.4.545.945.8 1.671.8.327 0 .654-.037.909-.146.29-.11.472-.218.654-.4l.181-1.126h1.272v1.671c-.327.4-.763.69-1.308.945a4.716 4.716 0 0 1-1.78.363c-1.127 0-2.071-.4-2.798-1.162-.726-.8-1.09-1.78-1.09-3.016v-.29c0-1.236.364-2.217 1.09-3.016.727-.8 1.635-1.199 2.798-1.199.654 0 1.235.11 1.78.363.509.255.945.545 1.308.945v1.671h-.037zm.654-2.434v-1.017h2.616v7.847l.836.182v1.017h-3.343v-1.017l.836-.182v-6.648l-.945-.182zm3.851 4.832c0-.945.255-1.707.8-2.289.508-.581 1.235-.908 2.18-.908.944 0 1.67.29 2.18.908.508.582.799 1.344.799 2.289v.109c0 .945-.255 1.708-.8 2.289-.508.581-1.235.872-2.18.872-.944 0-1.67-.29-2.18-.872-.508-.581-.799-1.344-.799-2.289v-.109zm1.672.109c0 .581.109 1.017.29 1.38.218.364.509.51.981.51.436 0 .763-.182.945-.51.218-.363.29-.799.29-1.38v-.109c0-.545-.108-1.017-.29-1.344-.218-.363-.545-.545-.981-.545-.436 0-.763.182-.945.545-.218.363-.29.8-.29 1.344v.109zm9.373 2.289c-.218.29-.436.508-.763.69-.29.145-.618.254-1.017.254-.654 0-1.163-.218-1.562-.617-.364-.436-.545-1.09-.545-1.962v-2.58l-.69-.181v-1.017H24.74v3.778c0 .472.073.8.218.98.145.183.363.292.69.292.255 0 .509-.037.69-.146a1.18 1.18 0 0 0 .473-.363V19.8l-.727-.181V18.6h2.435v5.087l.762.181v1.017H27.03l-.109-.835zm7.084.036c-.181.29-.436.509-.69.654a1.866 1.866 0 0 1-.908.218c-.763 0-1.38-.29-1.817-.835-.436-.582-.654-1.308-.654-2.253v-.109c0-.98.218-1.78.654-2.398.436-.617 1.018-.908 1.817-.908.327 0 .581.073.836.218.254.145.472.327.653.581v-2.252l-.871-.182v-1.017h2.615v7.847l.8.182v1.017h-2.29l-.145-.763zm-2.361-2.216c0 .545.109.981.29 1.308.182.327.473.472.909.472.254 0 .472-.036.654-.145.181-.11.327-.254.436-.436v-2.652a1.104 1.104 0 0 0-.436-.472 1.225 1.225 0 0 0-.618-.182c-.4 0-.726.182-.908.545-.182.363-.29.835-.29 1.453v.109h-.037zM30.699 5.45c5.087 0 9.228 4.141 9.301 9.3a9.88 9.88 0 0 1-.29 2.29l-.945-.255c.181-.69.254-1.38.254-2.071 0-4.541-3.706-8.247-8.283-8.247-2.907 0-5.559 1.49-7.085 3.996l-.835-.508a9.014 9.014 0 0 1 3.96-3.597A8.382 8.382 0 0 0 18.965.98c-4.47 0-8.138 3.524-8.356 7.956a9.262 9.262 0 0 1 6.72 4.36l-.835.509a8.258 8.258 0 0 0-7.12-3.997C4.722 9.81.98 13.551.98 18.165H0c0-5.122 4.214-9.3 9.337-9.3h.29C9.847 3.924 13.952 0 18.929 0a9.355 9.355 0 0 1 8.72 5.958 9.602 9.602 0 0 1 3.051-.508zM4.432 28.629a5.72 5.72 0 0 1 .909-.073c.472 0 .835.109 1.053.254a.824.824 0 0 1 .327.654.93.93 0 0 1-.29.69c-.255.218-.654.364-1.127.364-.145 0-.29 0-.4-.037v1.272h-.472v-3.124zm.509 1.525c.109.037.254.037.4.037.58 0 .944-.255.944-.654 0-.436-.363-.618-.872-.618-.218 0-.363 0-.472.036v1.2zm3.706.618l-.4.981h-.509l1.272-3.16h.581l1.272 3.16h-.509l-.4-.981H8.648zm1.199-.327l-.364-.908c-.072-.218-.145-.4-.181-.582-.073.182-.11.364-.182.582l-.363.908h1.09zm3.088 1.308v-1.344l-1.2-1.817h.546l.508.872c.146.254.255.436.364.654.109-.218.218-.4.363-.654l.545-.872h.545L13.37 30.41v1.344h-.436zm6.358-1.38c-.037-.437-.073-.982-.073-1.345-.145.363-.29.763-.472 1.2l-.654 1.525h-.364l-.617-1.49a10.136 10.136 0 0 1-.436-1.235c0 .4-.037.908-.073 1.38l-.109 1.345h-.472l.254-3.16h.618l.654 1.525c.145.4.29.727.363 1.054.109-.327.218-.654.4-1.054l.654-1.526h.617l.218 3.161h-.472l-.036-1.38zm4.323-.11h-1.453v1.127h1.598v.327h-2.107v-3.161h2.035v.327h-1.526v.98h1.453v.4zm1.925 1.49v-3.16h.545l1.2 1.598c.254.363.508.69.653 1.017-.036-.436-.072-.8-.072-1.308v-1.308h.436v3.161h-.473l-1.162-1.599c-.255-.363-.509-.726-.69-1.053.036.4.036.763.036 1.308v1.344h-.473zm5.45-2.798h-1.126v-.363h2.76v.363H31.5v2.798h-.473v-2.798h-.036zm3.052 2.29c.218.108.508.217.872.217.508 0 .763-.218.763-.545 0-.29-.182-.472-.69-.617-.618-.182-.982-.473-.982-.909 0-.508.473-.871 1.2-.871.363 0 .653.072.835.145l-.145.327c-.11-.073-.364-.145-.69-.145-.51 0-.69.254-.69.472 0 .29.217.436.726.617.617.218.944.473.944.909 0 .472-.436.908-1.308.908-.363 0-.763-.109-.944-.218l.109-.29z" fill="#000" fill-rule="nonzero"/></svg>