<svg width="40" height="32" viewBox="0 0 40 32" xmlns="http://www.w3.org/2000/svg"><path d="M7.276 31.325v-2.086a1.23 1.23 0 0 0-1.29-1.32 1.266 1.266 0 0 0-1.154.59 1.202 1.202 0 0 0-1.085-.59 1.081 1.081 0 0 0-.961.493v-.41H2.07v3.323h.721v-1.843c0-.577.316-.883.804-.883.473 0 .714.313.714.876v1.85h.72v-1.843c0-.577.33-.883.804-.883.488 0 .721.313.721.876v1.85h.721zM17.945 28h-1.168v-1.008h-.72v1.008h-.667v.66h.666v1.516c0 .772.295 1.23 1.139 1.23.316.002.625-.088.892-.256l-.206-.62c-.19.116-.408.18-.631.188-.357 0-.474-.222-.474-.556v-1.501h1.169v-.66zm6.089-.083a.965.965 0 0 0-.867.487V28h-.707v3.323h.714v-1.863c0-.549.234-.855.7-.855a1.15 1.15 0 0 1 .446.084l.22-.682a1.51 1.51 0 0 0-.508-.09h.002zm-9.208.346a2.431 2.431 0 0 0-1.34-.346c-.83 0-1.366.403-1.366 1.064 0 .543.399.876 1.133.98l.337.05c.391.055.577.16.577.347 0 .257-.261.403-.749.403a1.734 1.734 0 0 1-1.092-.347l-.336.563c.414.294.913.445 1.421.432.948 0 1.497-.452 1.497-1.085 0-.584-.433-.891-1.147-.994l-.336-.05c-.309-.041-.556-.104-.556-.326 0-.244.233-.39.624-.39.36.006.713.104 1.024.285l.309-.586zm19.129-.346a.965.965 0 0 0-.866.487V28h-.704v3.323h.714v-1.863c0-.549.234-.855.7-.855.153-.002.305.027.446.084l.22-.682a1.51 1.51 0 0 0-.508-.09h-.002zm-9.198 1.745a1.669 1.669 0 0 0 1.751 1.745c.43.022.851-.12 1.181-.396l-.343-.584c-.246.19-.548.295-.859.3a1.067 1.067 0 0 1 0-2.128c.311.004.613.109.859.299l.343-.584a1.706 1.706 0 0 0-1.181-.396 1.668 1.668 0 0 0-1.751 1.745v-.001zm6.688 0v-1.661h-.714v.403a1.24 1.24 0 0 0-1.037-.487c-.92 0-1.641.73-1.641 1.745 0 1.015.72 1.745 1.64 1.745a1.24 1.24 0 0 0 1.038-.487v.404h.714v-1.662zm-2.658 0a.995.995 0 1 1 1.985.14.995.995 0 0 1-1.985-.14zm-8.617-1.745c-.961 0-1.633.71-1.633 1.745 0 1.057.7 1.745 1.683 1.745.49.017.97-.149 1.346-.466l-.35-.535c-.27.22-.607.341-.955.347a.914.914 0 0 1-.982-.814h2.438c.007-.09.013-.18.013-.278-.007-1.036-.638-1.745-1.56-1.745v.001zm-.014.647c.46 0 .756.292.831.806h-1.703a.849.849 0 0 1 .872-.806zm17.915 1.098v-2.995h-.715v1.738a1.24 1.24 0 0 0-1.036-.487c-.92 0-1.642.73-1.642 1.745 0 1.015.721 1.745 1.642 1.745a1.24 1.24 0 0 0 1.036-.487v.404h.715v-1.663zm-2.658 0a.995.995 0 1 1 1.985.14.995.995 0 0 1-1.985-.14zm-24.114 0v-1.661h-.714v.403a1.24 1.24 0 0 0-1.037-.487c-.92 0-1.641.73-1.641 1.745 0 1.015.721 1.745 1.641 1.745a1.24 1.24 0 0 0 1.037-.487v.404h.714v-1.662zm-2.657 0a.995.995 0 1 1 1.984.14.995.995 0 0 1-1.984-.14zm10.263-6.974c.096.085.198.167.299.25a12.195 12.195 0 0 1-6.843 2.092C5.534 25.031 0 19.427 0 12.516 0 5.604 5.534 0 12.36 0a12.195 12.195 0 0 1 6.843 2.092c-.099.083-.201.164-.298.25a13.584 13.584 0 0 0 0 20.347zm1.892-20.597c.099.083.202.165.299.25a13.584 13.584 0 0 1 0 20.347c-.097.085-.198.167-.3.25a12.196 12.196 0 0 0 6.843 2.093C34.466 25.032 40 19.428 40 12.516S34.465.001 27.638.001a12.192 12.192 0 0 0-6.841 2.09zm-.798.589a12.608 12.608 0 0 0 0 19.67 12.608 12.608 0 0 0 0-19.67z" fill="#000" fill-rule="nonzero"/></svg>