<svg width="40" height="13" viewBox="0 0 40 13" xmlns="http://www.w3.org/2000/svg"><path d="M36.074 8.301H33.38c.184-.482.61-1.648 1.29-3.494l.06-.174c.05-.129.12-.299.198-.51a6.24 6.24 0 0 0 .174-.51l.234 1.075.74 3.613zM7.874 7.03L6.74 1.267C6.598.565 6.107.211 5.275.211H.041L0 .464c4.05 1.033 6.676 3.223 7.874 6.565zM11.368.216L8.205 8.77l-.33-1.74c-.34-.91-.892-1.755-1.663-2.53a7.524 7.524 0 0 0-2.557-1.727l2.635 9.959h3.416L14.803.216h-3.435zm2.714 12.539h3.241L19.357.215h-3.241l-2.034 12.54zm15-12.227A7.883 7.883 0 0 0 26.17 0c-1.603 0-2.911.386-3.926 1.152-1.015.767-1.529 1.764-1.543 2.99-.013 1.326.933 2.46 2.833 3.397.625.298 1.061.565 1.309.799.248.234.372.487.372.762 0 .39-.198.689-.588.9-.39.211-.84.312-1.345.312-1.12 0-2.135-.216-3.049-.643l-.431-.215-.45 2.814c.964.44 2.167.666 3.613.666 1.694.014 3.049-.372 4.073-1.153 1.023-.78 1.547-1.822 1.57-3.126 0-1.382-.91-2.512-2.732-3.398-.638-.326-1.102-.597-1.387-.822-.284-.22-.431-.468-.431-.744 0-.284.16-.537.477-.753.317-.215.776-.32 1.378-.32.909-.015 1.717.141 2.42.467l.293.157.455-2.714zm8.3-.312h-2.497c-.845 0-1.414.353-1.699 1.056L28.38 12.755h3.398l.684-1.873h4.141c.065.284.198.909.39 1.873H40L37.383.215z" fill="#000" fill-rule="nonzero"/></svg>