<svg version="1.1" xmlns="http://www.w3.org/2000/svg" x="0px" y="0px" viewBox="0 0 24 20">
	<path d="M0.7,4.6h15.7c0.4,0,0.8,0.4,0.8,0.9v0c0,0.5-0.3,0.9-0.8,0.9H0.7C0.3,6.4,0,6,0,5.5v0C0,5,0.3,4.6,0.7,4.6z"/>
	<path d="M0.7,13.6h15.7c0.4,0,0.8,0.4,0.8,0.9v0c0,0.5-0.3,0.9-0.8,0.9H0.7C0.3,15.4,0,15,0,14.5v0C0,14,0.3,13.6,0.7,13.6z"/>
	<path d="M0,1c0-0.6,0.4-1,1-1h22c0.6,0,1,0.4,1,1s-0.4,1-1,1H1C0.4,2,0,1.6,0,1z"/>
	<path d="M0,10c0-0.6,0.4-1,1-1h22c0.6,0,1,0.4,1,1s-0.4,1-1,1H1C0.4,11,0,10.6,0,10z"/>
	<path d="M0,19c0-0.6,0.4-1,1-1h22c0.6,0,1,0.4,1,1s-0.4,1-1,1H1C0.4,20,0,19.6,0,19z"/>
</svg>