<svg xmlns="http://www.w3.org/2000/svg" width="155" height="30" viewBox="0 0 155 30">
    <path fill="#FFF" fill-rule="evenodd" d="M153.8 12.748a7.757 7.757 0 0 1-1.705 2.55 6.58 6.58 0 0 1-2.145 1.399 7.362 7.362 0 0 1-2.016.518l4.62 9.568c.145.287.22.603.22.923a1.968 1.968 0 0 1-.624 1.459 2.085 2.085 0 0 1-2.6.277 2.13 2.13 0 0 1-.77-.85l-5.354-11.23H132.83v10.532c0 .494-.198.967-.55 1.313-.339.37-.818.577-1.32.572h-.367c-.499-.005-.975-.211-1.32-.572a1.79 1.79 0 0 1-.586-1.313V2.7a2.026 2.026 0 0 1 .623-1.477 2 2 0 0 1 1.467-.628h14.775a11.935 11.935 0 0 1 3.3.461 8.292 8.292 0 0 1 2.88 1.46 7.187 7.187 0 0 1 2.016 2.55 8.587 8.587 0 0 1 .751 3.768 9.753 9.753 0 0 1-.699 3.914zm-3.868-5.93a3.454 3.454 0 0 0-1.1-1.257 4.343 4.343 0 0 0-1.54-.646 8.276 8.276 0 0 0-1.742-.185h-12.72v8.499h12.722a5.07 5.07 0 0 0 3.556-1.146 4.199 4.199 0 0 0 1.247-3.251 4.27 4.27 0 0 0-.422-2.014zm-33.546 19.063a14.919 14.919 0 0 1-4.875 3.047 16.498 16.498 0 0 1-11.7 0 15.084 15.084 0 0 1-4.877-3.03 14.475 14.475 0 0 1-3.355-4.728 15.893 15.893 0 0 1 0-12.34 14.497 14.497 0 0 1 3.355-4.728 15.124 15.124 0 0 1 4.877-3.03 16.494 16.494 0 0 1 11.7 0 15.114 15.114 0 0 1 4.875 3.03 14.477 14.477 0 0 1 3.355 4.729 15.84 15.84 0 0 1 0 12.32 14.714 14.714 0 0 1-3.355 4.73zM116 10.805a10.817 10.817 0 0 0-2.328-3.454 11.084 11.084 0 0 0-3.536-2.345 11.957 11.957 0 0 0-8.946 0 11.073 11.073 0 0 0-3.538 2.346 10.797 10.797 0 0 0-2.328 3.454 10.84 10.84 0 0 0 0 8.387 10.797 10.797 0 0 0 2.328 3.454 11.066 11.066 0 0 0 3.538 2.347 11.96 11.96 0 0 0 8.946 0 11.077 11.077 0 0 0 3.538-2.347 10.811 10.811 0 0 0 2.328-3.454 10.862 10.862 0 0 0-.002-8.388zM84.215 29.78a2.082 2.082 0 0 1-1.723-.85l-8.578-11.563-8.58 11.563a2.545 2.545 0 0 1-.7.61 1.763 1.763 0 0 1-.916.24 2.246 2.246 0 0 1-1.54-.627 1.93 1.93 0 0 1-.7-1.478c.001-.45.14-.889.4-1.256l9.5-12.635-7.112-9.863a2.13 2.13 0 0 1 .164-2.7 1.825 1.825 0 0 1 1.412-.628 2.04 2.04 0 0 1 1.65.85l6.49 8.904 6.636-8.94c.187-.265.44-.475.733-.61.288-.133.6-.201.916-.2a1.792 1.792 0 0 1 1.393.608 2.1 2.1 0 0 1 .55 1.46 1.98 1.98 0 0 1-.4 1.256l-7.3 9.897 9.35 12.598c.292.366.448.824.44 1.293a1.971 1.971 0 0 1-.624 1.459 2.031 2.031 0 0 1-1.46.612zM38.9 23.869c.363.41.806.742 1.3.978.58.27 1.213.403 1.851.388h12.95c.559 0 1.095.226 1.483.629.41.38.63.92.6 1.477a2.164 2.164 0 0 1-.642 1.441 1.935 1.935 0 0 1-1.447.629H42.053a9.186 9.186 0 0 1-3.116-.537 7.908 7.908 0 0 1-2.658-1.569 7.623 7.623 0 0 1-1.852-2.567 8.537 8.537 0 0 1-.7-3.565 7.08 7.08 0 0 1 .276-2.033 8.36 8.36 0 0 1 1.686-3.085c.33-.381.679-.745 1.045-1.09a14.655 14.655 0 0 1-1.045-1.09 8.36 8.36 0 0 1-1.686-3.085 7.074 7.074 0 0 1-.276-2.032 8.534 8.534 0 0 1 .7-3.565 7.626 7.626 0 0 1 1.852-2.567 7.94 7.94 0 0 1 2.658-1.57c1-.357 2.055-.539 3.116-.537H55a1.94 1.94 0 0 1 1.447.63c.388.382.617.897.642 1.441a1.882 1.882 0 0 1-.6 1.477 2.06 2.06 0 0 1-1.484.627H42.053a4.142 4.142 0 0 0-1.85.388 4.07 4.07 0 0 0-1.3.98c-.34.387-.606.83-.789 1.31-.175.442-.268.911-.275 1.386.008.479.101.953.275 1.4.18.487.447.937.788 1.329.363.41.806.744 1.3.98.58.27 1.213.402 1.851.387h10.67a2.211 2.211 0 0 1 1.722.646 2.107 2.107 0 0 1 0 2.919 2.21 2.21 0 0 1-1.723.646H42.053a4.146 4.146 0 0 0-1.85.388 4.082 4.082 0 0 0-1.3.978 4.277 4.277 0 0 0-.789 1.33c-.174.447-.267.92-.275 1.4.007.474.1.944.275 1.384.181.485.448.933.786 1.323zm-22.07 4.58a2.071 2.071 0 0 1-1.87 1.219h-2.236c-.414 0-.818-.13-1.156-.37a2.069 2.069 0 0 1-.752-.888L.148 3.66a2.1 2.1 0 0 1-.147-.85 2.06 2.06 0 0 1 .605-1.478A1.941 1.941 0 0 1 2.054.703c.4-.004.793.12 1.118.352.327.23.586.543.752.906l9.936 23.05L23.868 1.96c.161-.361.422-.669.752-.887a2.032 2.032 0 0 1 2.622.24c.403.378.63.908.623 1.46a2.485 2.485 0 0 1-.184.887L16.83 28.449z"/>
</svg>
